<svg width="65" height="78" viewBox="0 0 65 78" fill="none" xmlns="http://www.w3.org/2000/svg">
<path d="M19.5 38.9694L32.5 54.4455L45.5 38.9694L40.95 33.5528L35.75 39.7432L35.75 23.4934L29.25 23.4934L29.25 39.7432L24.05 33.5528L19.5 38.9694ZM-1.42062e-06 38.9694C-1.2241e-06 33.6173 0.853667 28.5876 2.561 23.8803C4.26617 19.173 6.58125 15.0783 9.50625 11.5962C12.4312 8.11404 15.8708 5.35802 19.825 3.32808C23.7792 1.29556 28.0042 0.279295 32.5 0.279295C36.9958 0.279295 41.2208 1.29556 45.175 3.32808C49.1292 5.35802 52.5687 8.11405 55.4937 11.5962C58.4187 15.0783 60.7349 19.173 62.4422 23.8803C64.1474 28.5876 65 33.6173 65 38.9694C65 44.3216 64.1474 49.3513 62.4422 54.0586C60.7349 58.7659 58.4187 62.8606 55.4937 66.3427C52.5687 69.8248 49.1292 72.5808 45.175 74.6108C41.2208 76.6433 36.9958 77.6595 32.5 77.6595C28.0042 77.6595 23.7792 76.6433 19.825 74.6108C15.8708 72.5808 12.4312 69.8248 9.50625 66.3427C6.58125 62.8606 4.26616 58.7659 2.561 54.0586C0.853666 49.3513 -1.61714e-06 44.3215 -1.42062e-06 38.9694ZM6.5 38.9694C6.5 47.6102 9.01875 54.9291 14.0562 60.9261C19.0938 66.923 25.2417 69.9215 32.5 69.9215C39.7583 69.9215 45.9062 66.923 50.9437 60.9261C55.9812 54.9291 58.5 47.6102 58.5 38.9694C58.5 30.3286 55.9812 23.0097 50.9437 17.0128C45.9062 11.0158 39.7583 8.01732 32.5 8.01732C25.2417 8.01732 19.0938 11.0158 14.0563 17.0128C9.01875 23.0097 6.5 30.3286 6.5 38.9694Z" fill="white"/>
</svg>
