<svg width="174" height="125" viewBox="0 0 174 125" fill="none" xmlns="http://www.w3.org/2000/svg">
<path d="M0.482955 3.50877V2.72752H5.9375V3.50877H3.65057V10.0002H2.76989V3.50877H0.482955ZM13.1303 6.36388C13.1303 7.13093 12.9918 7.7938 12.7148 8.35252C12.4379 8.91123 12.0579 9.3421 11.5749 9.64513C11.092 9.94816 10.5404 10.0997 9.9201 10.0997C9.29983 10.0997 8.74822 9.94816 8.26527 9.64513C7.78232 9.3421 7.40234 8.91123 7.12536 8.35252C6.84837 7.7938 6.70987 7.13093 6.70987 6.36388C6.70987 5.59683 6.84837 4.93396 7.12536 4.37524C7.40234 3.81653 7.78232 3.38566 8.26527 3.08263C8.74822 2.7796 9.29983 2.62808 9.9201 2.62808C10.5404 2.62808 11.092 2.7796 11.5749 3.08263C12.0579 3.38566 12.4379 3.81653 12.7148 4.37524C12.9918 4.93396 13.1303 5.59683 13.1303 6.36388ZM12.2781 6.36388C12.2781 5.73415 12.1727 5.20266 11.962 4.76942C11.7537 4.33618 11.4708 4.00829 11.1133 3.78576C10.7582 3.56322 10.3604 3.45195 9.9201 3.45195C9.47976 3.45195 9.08085 3.56322 8.72337 3.78576C8.36825 4.00829 8.08535 4.33618 7.87464 4.76942C7.66631 5.20266 7.56214 5.73415 7.56214 6.36388C7.56214 6.99362 7.66631 7.5251 7.87464 7.95834C8.08535 8.39158 8.36825 8.71947 8.72337 8.94201C9.08085 9.16454 9.47976 9.27581 9.9201 9.27581C10.3604 9.27581 10.7582 9.16454 11.1133 8.94201C11.4708 8.71947 11.7537 8.39158 11.962 7.95834C12.1727 7.5251 12.2781 6.99362 12.2781 6.36388ZM14.5676 10.0002H13.6444L16.3148 2.72752H17.2239L19.8944 10.0002H18.9711L16.7978 3.87808H16.7409L14.5676 10.0002ZM14.9086 7.15934H18.6301V7.94058H14.9086V7.15934ZM25.0044 4.5457C24.9618 4.18585 24.789 3.90649 24.486 3.70763C24.1829 3.50877 23.8113 3.40933 23.3709 3.40933C23.0489 3.40933 22.7672 3.46142 22.5257 3.56558C22.2866 3.66975 22.0996 3.81298 21.9647 3.99527C21.8321 4.17756 21.7658 4.38471 21.7658 4.61672C21.7658 4.81085 21.812 4.97775 21.9043 5.11743C21.999 5.25474 22.1197 5.36956 22.2665 5.46189C22.4133 5.55185 22.5672 5.62643 22.7282 5.68561C22.8891 5.74243 23.0371 5.7886 23.1721 5.82411L23.9107 6.02297C24.1001 6.07269 24.3108 6.14134 24.5428 6.22894C24.7772 6.31653 25.0009 6.43609 25.214 6.5876C25.4294 6.73675 25.6069 6.92851 25.7466 7.16289C25.8863 7.39726 25.9561 7.6849 25.9561 8.02581C25.9561 8.4188 25.8532 8.77392 25.6472 9.09115C25.4436 9.40839 25.1453 9.66052 24.7523 9.84755C24.3617 10.0346 23.887 10.1281 23.3283 10.1281C22.8075 10.1281 22.3565 10.044 21.9753 9.87595C21.5965 9.70787 21.2982 9.47349 21.0804 9.17283C20.865 8.87217 20.7431 8.52297 20.7147 8.12524H21.6238C21.6474 8.39987 21.7398 8.62714 21.9007 8.80706C22.0641 8.98462 22.2701 9.11719 22.5186 9.20479C22.7696 9.29002 23.0395 9.33263 23.3283 9.33263C23.6645 9.33263 23.9663 9.27818 24.2338 9.16928C24.5014 9.05801 24.7132 8.90413 24.8695 8.70763C25.0257 8.50877 25.1039 8.27676 25.1039 8.01161C25.1039 7.77013 25.0364 7.57363 24.9015 7.42212C24.7665 7.2706 24.589 7.1475 24.3688 7.0528C24.1486 6.9581 23.9107 6.87524 23.655 6.80422L22.7601 6.54854C22.1919 6.38519 21.7421 6.152 21.4107 5.84897C21.0792 5.54594 20.9135 5.14939 20.9135 4.65933C20.9135 4.25214 21.0236 3.89702 21.2438 3.59399C21.4663 3.2886 21.7646 3.05185 22.1387 2.88377C22.5151 2.71331 22.9353 2.62808 23.3993 2.62808C23.8681 2.62808 24.2847 2.71213 24.6493 2.88022C25.0139 3.04593 25.3027 3.27321 25.5158 3.56203C25.7312 3.85086 25.8449 4.17875 25.8567 4.5457H25.0044ZM27.0064 3.50877V2.72752H32.4609V3.50877H30.174V10.0002H29.2933V3.50877H27.0064ZM33.8201 10.0002V2.72752H38.2093V3.50877H34.7008V5.96615H37.9821V6.7474H34.7008V9.21899H38.2662V10.0002H33.8201ZM39.7967 10.0002V2.72752H42.2541C42.8223 2.72752 43.2886 2.82458 43.6532 3.01871C44.0178 3.21047 44.2877 3.47444 44.4629 3.81061C44.6381 4.14679 44.7257 4.52913 44.7257 4.95763C44.7257 5.38613 44.6381 5.76611 44.4629 6.09755C44.2877 6.42898 44.019 6.6894 43.6568 6.8788C43.2946 7.06582 42.8317 7.15934 42.2683 7.15934H40.2797V6.36388H42.2399C42.6281 6.36388 42.9406 6.30706 43.1774 6.19343C43.4165 6.07979 43.5893 5.9188 43.6958 5.71047C43.8047 5.49977 43.8592 5.24882 43.8592 4.95763C43.8592 4.66644 43.8047 4.41194 43.6958 4.19414C43.5869 3.97633 43.4129 3.80825 43.1738 3.68987C42.9347 3.56914 42.6187 3.50877 42.2257 3.50877H40.6774V10.0002H39.7967ZM43.22 6.7332L45.0098 10.0002H43.987L42.2257 6.7332H43.22Z" fill="black"/>
<path d="M1.4304 34.0002V32.7858L5.99148 27.7929C6.52675 27.2081 6.96757 26.6998 7.31392 26.268C7.66027 25.8317 7.91667 25.4224 8.0831 25.04C8.25402 24.6532 8.33949 24.2484 8.33949 23.8255C8.33949 23.3397 8.22254 22.9192 7.98864 22.5638C7.75923 22.2085 7.44437 21.9341 7.04403 21.7407C6.6437 21.5472 6.19389 21.4505 5.6946 21.4505C5.16383 21.4505 4.70052 21.5607 4.30469 21.7811C3.91335 21.997 3.60973 22.3007 3.39382 22.692C3.18241 23.0833 3.0767 23.5421 3.0767 24.0684H1.48438C1.48438 23.2588 1.67105 22.5481 2.04439 21.9363C2.41773 21.3246 2.92602 20.8478 3.56925 20.5059C4.21697 20.1641 4.94342 19.9931 5.74858 19.9931C6.55824 19.9931 7.27569 20.1641 7.90092 20.5059C8.52616 20.8478 9.01645 21.3088 9.3718 21.8891C9.72715 22.4693 9.90483 23.1148 9.90483 23.8255C9.90483 24.3338 9.81262 24.8309 9.6282 25.3167C9.44827 25.7979 9.1334 26.3355 8.68359 26.9292C8.23828 27.5185 7.61979 28.2382 6.82812 29.0883L3.72443 32.4079V32.5159H10.1477V34.0002H1.4304ZM18.8988 26.349V27.8333H12.8533V26.349H18.8988ZM29.4733 23.6366C29.3923 22.9529 29.064 22.4221 28.4882 22.0443C27.9124 21.6664 27.2062 21.4775 26.3696 21.4775C25.7578 21.4775 25.2226 21.5765 24.7638 21.7744C24.3095 21.9723 23.9541 22.2444 23.6977 22.5908C23.4458 22.9372 23.3199 23.3307 23.3199 23.7716C23.3199 24.1404 23.4076 24.4575 23.583 24.7229C23.7629 24.9838 23.9923 25.2019 24.2712 25.3774C24.5501 25.5483 24.8425 25.69 25.1483 25.8024C25.4542 25.9104 25.7354 25.9981 25.9917 26.0656L27.3952 26.4434C27.755 26.5379 28.1553 26.6683 28.5961 26.8348C29.0415 27.0012 29.4665 27.2283 29.8714 27.5162C30.2807 27.7996 30.618 28.164 30.8834 28.6093C31.1488 29.0546 31.2815 29.6011 31.2815 30.2488C31.2815 30.9955 31.0858 31.6702 30.6945 32.273C30.3077 32.8757 29.7409 33.3548 28.9942 33.7101C28.252 34.0655 27.3502 34.2431 26.2886 34.2431C25.299 34.2431 24.4421 34.0835 23.718 33.7641C22.9983 33.4447 22.4315 32.9994 22.0177 32.4282C21.6083 31.8569 21.3767 31.1934 21.3227 30.4377H23.05C23.095 30.9595 23.2704 31.3913 23.5763 31.7332C23.8866 32.0706 24.278 32.3225 24.7503 32.4889C25.2271 32.6508 25.7398 32.7318 26.2886 32.7318C26.9273 32.7318 27.5009 32.6283 28.0091 32.4214C28.5174 32.21 28.92 31.9176 29.2169 31.5443C29.5138 31.1664 29.6622 30.7256 29.6622 30.2218C29.6622 29.763 29.534 29.3897 29.2776 29.1018C29.0212 28.8139 28.6839 28.58 28.2655 28.4001C27.8472 28.2202 27.3952 28.0627 26.9094 27.9278L25.2091 27.442C24.1295 27.1316 23.2749 26.6886 22.6452 26.1128C22.0154 25.5371 21.7006 24.7836 21.7006 23.8525C21.7006 23.0788 21.9097 22.4041 22.328 21.8284C22.7509 21.2481 23.3176 20.7983 24.0283 20.4789C24.7435 20.1551 25.5419 19.9931 26.4236 19.9931C27.3142 19.9931 28.1059 20.1528 28.7986 20.4722C29.4913 20.7871 30.04 21.2189 30.4449 21.7676C30.8542 22.3164 31.0701 22.9394 31.0926 23.6366H29.4733ZM34.0327 34.0002V20.1821H35.706V32.5159H42.1293V34.0002H34.0327ZM46.3935 20.1821V34.0002H44.7202V20.1821H46.3935ZM60.8678 24.5002H59.1945C59.0956 24.0189 58.9224 23.5961 58.675 23.2318C58.4321 22.8674 58.1352 22.5616 57.7844 22.3142C57.438 22.0623 57.0534 21.8734 56.6306 21.7474C56.2078 21.6215 55.767 21.5585 55.3082 21.5585C54.4715 21.5585 53.7136 21.7699 53.0344 22.1927C52.3596 22.6155 51.8221 23.2385 51.4218 24.0617C51.026 24.8848 50.828 25.8947 50.828 27.0912C50.828 28.2876 51.026 29.2975 51.4218 30.1206C51.8221 30.9438 52.3596 31.5668 53.0344 31.9896C53.7136 32.4124 54.4715 32.6238 55.3082 32.6238C55.767 32.6238 56.2078 32.5609 56.6306 32.4349C57.0534 32.309 57.438 32.1223 57.7844 31.8749C58.1352 31.623 58.4321 31.3149 58.675 30.9505C58.9224 30.5817 59.0956 30.1589 59.1945 29.6821H60.8678C60.7419 30.3883 60.5125 31.0202 60.1796 31.578C59.8467 32.1358 59.4329 32.6103 58.9381 33.0017C58.4433 33.3885 57.8878 33.6831 57.2716 33.8855C56.6598 34.088 56.0054 34.1892 55.3082 34.1892C54.1296 34.1892 53.0816 33.9013 52.164 33.3255C51.2464 32.7498 50.5244 31.9311 49.9981 30.8696C49.4719 29.808 49.2087 28.5485 49.2087 27.0912C49.2087 25.6338 49.4719 24.3743 49.9981 23.3127C50.5244 22.2512 51.2464 21.4325 52.164 20.8568C53.0816 20.281 54.1296 19.9931 55.3082 19.9931C56.0054 19.9931 56.6598 20.0943 57.2716 20.2968C57.8878 20.4992 58.4433 20.7961 58.9381 21.1874C59.4329 21.5742 59.8467 22.0465 60.1796 22.6043C60.5125 23.1576 60.7419 23.7895 60.8678 24.5002ZM63.5717 34.0002V20.1821H71.9112V21.6664H65.245V26.3355H71.4794V27.8198H65.245V32.5159H72.0192V34.0002H63.5717Z" fill="black"/>
<path d="M0.758523 67.0002V58.273H4.2017C4.8608 58.273 5.4233 58.3909 5.8892 58.6267C6.35795 58.8596 6.71449 59.1906 6.95881 59.6196C7.20597 60.0457 7.32955 60.5471 7.32955 61.1238C7.32955 61.7034 7.20455 62.2019 6.95455 62.6196C6.70455 63.0343 6.34233 63.3525 5.8679 63.5741C5.39631 63.7957 4.82528 63.9065 4.15483 63.9065H1.84943V62.4235H3.85653C4.20881 62.4235 4.50142 62.3752 4.73438 62.2787C4.96733 62.1821 5.14063 62.0372 5.25426 61.844C5.37074 61.6508 5.42898 61.4108 5.42898 61.1238C5.42898 60.8341 5.37074 60.5897 5.25426 60.3909C5.14063 60.192 4.96591 60.0414 4.73011 59.9392C4.49716 59.8341 4.20313 59.7815 3.84801 59.7815H2.60369V67.0002H0.758523ZM5.47159 63.0287L7.64062 67.0002H5.60369L3.48153 63.0287H5.47159ZM16.6534 62.6366C16.6534 63.5883 16.473 64.398 16.1122 65.0656C15.7543 65.7332 15.2656 66.2431 14.6463 66.5954C14.0298 66.9448 13.3366 67.1196 12.5668 67.1196C11.7912 67.1196 11.0952 66.9434 10.4787 66.5912C9.86222 66.2389 9.375 65.7289 9.01705 65.0613C8.65909 64.3937 8.48011 63.5855 8.48011 62.6366C8.48011 61.6849 8.65909 60.8752 9.01705 60.2076C9.375 59.54 9.86222 59.0315 10.4787 58.6821C11.0952 58.3298 11.7912 58.1537 12.5668 58.1537C13.3366 58.1537 14.0298 58.3298 14.6463 58.6821C15.2656 59.0315 15.7543 59.54 16.1122 60.2076C16.473 60.8752 16.6534 61.6849 16.6534 62.6366ZM14.7827 62.6366C14.7827 62.0201 14.6903 61.5002 14.5057 61.0769C14.3239 60.6537 14.0668 60.3326 13.7344 60.1139C13.402 59.8951 13.0128 59.7858 12.5668 59.7858C12.1207 59.7858 11.7315 59.8951 11.3991 60.1139C11.0668 60.3326 10.8082 60.6537 10.6236 61.0769C10.4418 61.5002 10.3509 62.0201 10.3509 62.6366C10.3509 63.2531 10.4418 63.773 10.6236 64.1963C10.8082 64.6196 11.0668 64.9406 11.3991 65.1593C11.7315 65.3781 12.1207 65.4875 12.5668 65.4875C13.0128 65.4875 13.402 65.3781 13.7344 65.1593C14.0668 64.9406 14.3239 64.6196 14.5057 64.1963C14.6903 63.773 14.7827 63.2531 14.7827 62.6366ZM22.7546 60.7829C22.7205 60.4392 22.5742 60.1721 22.3157 59.9818C22.0572 59.7914 21.7063 59.6963 21.2631 59.6963C20.962 59.6963 20.7077 59.7389 20.5004 59.8241C20.293 59.9065 20.1339 60.0216 20.0231 60.1693C19.9151 60.317 19.8612 60.4846 19.8612 60.6721C19.8555 60.8284 19.8881 60.9647 19.9592 61.0812C20.033 61.1977 20.1339 61.2985 20.2617 61.3838C20.3896 61.4662 20.5373 61.5386 20.7049 61.6011C20.8725 61.6608 21.0515 61.7119 21.2418 61.7545L22.0259 61.942C22.4066 62.0272 22.756 62.1409 23.0742 62.2829C23.3924 62.425 23.668 62.5997 23.9009 62.8071C24.1339 63.0144 24.3143 63.2588 24.4421 63.54C24.5728 63.8213 24.6396 64.1437 24.6424 64.5073C24.6396 65.0414 24.5032 65.5045 24.2333 65.8966C23.9663 66.2858 23.5799 66.5883 23.0742 66.8042C22.5714 67.0173 21.9648 67.1238 21.2546 67.1238C20.5501 67.1238 19.9364 67.0159 19.4137 66.8C18.8938 66.5841 18.4876 66.2644 18.195 65.8412C17.9052 65.415 17.7532 64.888 17.739 64.2602H19.5245C19.5444 64.5528 19.6282 64.7971 19.7759 64.9931C19.9265 65.1863 20.1268 65.3326 20.3768 65.4321C20.6296 65.5287 20.9151 65.5769 21.2333 65.5769C21.5458 65.5769 21.8171 65.5315 22.0472 65.4406C22.2802 65.3497 22.4606 65.2233 22.5884 65.0613C22.7163 64.8994 22.7802 64.7133 22.7802 64.5031C22.7802 64.3071 22.7219 64.1423 22.6055 64.0088C22.4918 63.8752 22.3242 63.7616 22.1026 63.6679C21.8839 63.5741 21.6154 63.4889 21.2972 63.4122L20.3469 63.1735C19.6112 62.9946 19.0302 62.7147 18.604 62.3341C18.1779 61.9534 17.9663 61.4406 17.9691 60.7957C17.9663 60.2673 18.1069 59.8056 18.391 59.4108C18.6779 59.0159 19.0714 58.7076 19.5714 58.486C20.0714 58.2644 20.6396 58.1537 21.2759 58.1537C21.9237 58.1537 22.489 58.2644 22.9719 58.486C23.4577 58.7076 23.8356 59.0159 24.1055 59.4108C24.3754 59.8056 24.5146 60.263 24.5231 60.7829H22.7546ZM25.8835 67.0002V58.273H31.7642V59.7943H27.7287V61.8738H31.4616V63.3951H27.7287V65.4789H31.7812V67.0002H25.8835ZM41.7955 61.094C41.7358 60.8866 41.652 60.7034 41.544 60.5443C41.4361 60.3823 41.304 60.246 41.1477 60.1352C40.9943 60.0216 40.8182 59.9349 40.6193 59.8752C40.4233 59.8156 40.206 59.7858 39.9673 59.7858C39.5213 59.7858 39.1293 59.8966 38.7912 60.1181C38.456 60.3397 38.1946 60.6622 38.0071 61.0855C37.8196 61.5059 37.7259 62.0201 37.7259 62.6281C37.7259 63.236 37.8182 63.7531 38.0028 64.1792C38.1875 64.6054 38.4489 64.9306 38.7869 65.1551C39.125 65.3767 39.5241 65.4875 39.9844 65.4875C40.402 65.4875 40.7585 65.4136 41.054 65.2659C41.3523 65.1153 41.5795 64.9037 41.7358 64.6309C41.8949 64.3582 41.9744 64.0358 41.9744 63.6636L42.3494 63.719H40.0994V62.3298H43.7514V63.4292C43.7514 64.1963 43.5895 64.8554 43.2656 65.4065C42.9418 65.9548 42.4957 66.3781 41.9276 66.6764C41.3594 66.9718 40.7088 67.1196 39.9759 67.1196C39.1577 67.1196 38.4389 66.9392 37.8196 66.5784C37.2003 66.2147 36.7173 65.6991 36.3707 65.0315C36.027 64.361 35.8551 63.5656 35.8551 62.6451C35.8551 61.9377 35.9574 61.3071 36.1619 60.7531C36.3693 60.1963 36.6591 59.7247 37.0312 59.3383C37.4034 58.9519 37.8366 58.6579 38.331 58.4562C38.8253 58.2545 39.3608 58.1537 39.9375 58.1537C40.4318 58.1537 40.892 58.2261 41.3182 58.371C41.7443 58.513 42.1222 58.7147 42.4517 58.9761C42.7841 59.2375 43.0554 59.5485 43.2656 59.9093C43.4759 60.2673 43.6108 60.6622 43.6705 61.094H41.7955ZM53.1573 62.6366C53.1573 63.5883 52.9769 64.398 52.6161 65.0656C52.2582 65.7332 51.7695 66.2431 51.1502 66.5954C50.5337 66.9448 49.8406 67.1196 49.0707 67.1196C48.2951 67.1196 47.5991 66.9434 46.9826 66.5912C46.3661 66.2389 45.8789 65.7289 45.521 65.0613C45.163 64.3937 44.984 63.5855 44.984 62.6366C44.984 61.6849 45.163 60.8752 45.521 60.2076C45.8789 59.54 46.3661 59.0315 46.9826 58.6821C47.5991 58.3298 48.2951 58.1537 49.0707 58.1537C49.8406 58.1537 50.5337 58.3298 51.1502 58.6821C51.7695 59.0315 52.2582 59.54 52.6161 60.2076C52.9769 60.8752 53.1573 61.6849 53.1573 62.6366ZM51.2866 62.6366C51.2866 62.0201 51.1942 61.5002 51.0096 61.0769C50.8278 60.6537 50.5707 60.3326 50.2383 60.1139C49.9059 59.8951 49.5167 59.7858 49.0707 59.7858C48.6246 59.7858 48.2354 59.8951 47.9031 60.1139C47.5707 60.3326 47.3121 60.6537 47.1275 61.0769C46.9457 61.5002 46.8548 62.0201 46.8548 62.6366C46.8548 63.2531 46.9457 63.773 47.1275 64.1963C47.3121 64.6196 47.5707 64.9406 47.9031 65.1593C48.2354 65.3781 48.6246 65.4875 49.0707 65.4875C49.5167 65.4875 49.9059 65.3781 50.2383 65.1593C50.5707 64.9406 50.8278 64.6196 51.0096 64.1963C51.1942 63.773 51.2866 63.2531 51.2866 62.6366ZM54.5241 67.0002V58.273H56.3693V65.4789H60.1108V67.0002H54.5241ZM64.4265 67.0002H61.3327V58.273H64.4521C65.3299 58.273 66.0856 58.4477 66.7191 58.7971C67.3526 59.1437 67.8398 59.6423 68.1808 60.2929C68.5245 60.9434 68.6964 61.7218 68.6964 62.6281C68.6964 63.5372 68.5245 64.3184 68.1808 64.9718C67.8398 65.6252 67.3498 66.1267 66.7106 66.4761C66.0742 66.8255 65.3129 67.0002 64.4265 67.0002ZM63.1779 65.4193H64.3498C64.8952 65.4193 65.354 65.3227 65.7262 65.1295C66.1012 64.9335 66.3825 64.6309 66.57 64.2218C66.7603 63.8099 66.8555 63.2787 66.8555 62.6281C66.8555 61.9832 66.7603 61.4562 66.57 61.0471C66.3825 60.638 66.1026 60.3369 65.7305 60.1437C65.3583 59.9505 64.8995 59.8539 64.354 59.8539H63.1779V65.4193Z" fill="black"/>
<path d="M91.8295 60.4548C91.7784 60.023 91.571 59.6877 91.2074 59.4491C90.8438 59.2105 90.3977 59.0912 89.8693 59.0912C89.483 59.0912 89.1449 59.1537 88.8551 59.2787C88.5682 59.4037 88.3438 59.5755 88.1818 59.7943C88.0227 60.013 87.9432 60.2616 87.9432 60.54C87.9432 60.773 87.9986 60.9733 88.1094 61.1409C88.223 61.3056 88.3679 61.4434 88.544 61.5542C88.7202 61.6622 88.9048 61.7517 89.098 61.8227C89.2912 61.8909 89.4688 61.9463 89.6307 61.9889L90.517 62.2275C90.7443 62.2872 90.9972 62.3696 91.2756 62.4747C91.5568 62.5798 91.8253 62.7233 92.081 62.9051C92.3395 63.0841 92.5526 63.3142 92.7202 63.5954C92.8878 63.8767 92.9716 64.2218 92.9716 64.6309C92.9716 65.1025 92.848 65.5287 92.6009 65.9093C92.3565 66.29 91.9986 66.5926 91.527 66.817C91.0582 67.0414 90.4886 67.1537 89.8182 67.1537C89.1932 67.1537 88.652 67.0528 88.1946 66.8511C87.7401 66.6494 87.3821 66.3681 87.1207 66.0073C86.8622 65.6466 86.7159 65.2275 86.6818 64.7502H87.7727C87.8011 65.0798 87.9119 65.3525 88.1051 65.5684C88.3011 65.7815 88.5483 65.9406 88.8466 66.0457C89.1477 66.148 89.4716 66.1991 89.8182 66.1991C90.2216 66.1991 90.5838 66.1338 90.9048 66.0031C91.2259 65.8696 91.4801 65.6849 91.6676 65.4491C91.8551 65.2105 91.9489 64.9321 91.9489 64.6139C91.9489 64.3241 91.8679 64.0883 91.706 63.9065C91.544 63.7247 91.331 63.5769 91.0668 63.4633C90.8026 63.3497 90.517 63.2502 90.2102 63.165L89.1364 62.8582C88.4545 62.6622 87.9148 62.3823 87.517 62.0187C87.1193 61.6551 86.9205 61.1792 86.9205 60.5912C86.9205 60.1025 87.0526 59.6764 87.3168 59.3127C87.5838 58.9463 87.9418 58.6622 88.3906 58.4605C88.8423 58.2559 89.3466 58.1537 89.9034 58.1537C90.4659 58.1537 90.9659 58.2545 91.4034 58.4562C91.8409 58.6551 92.1875 58.9278 92.4432 59.2744C92.7017 59.621 92.8381 60.0144 92.8523 60.4548H91.8295ZM97.4194 60.4548V61.3071H94.0273V60.4548H97.4194ZM95.016 58.8866H96.0217V65.1252C96.0217 65.4093 96.0629 65.6224 96.1452 65.7644C96.2305 65.9037 96.3384 65.9974 96.4691 66.0457C96.6026 66.0912 96.7433 66.1139 96.891 66.1139C97.0018 66.1139 97.0927 66.1082 97.1637 66.0968C97.2347 66.0826 97.2915 66.0713 97.3342 66.0627L97.5387 66.9662C97.4705 66.9917 97.3754 67.0173 97.2532 67.0429C97.131 67.0713 96.9762 67.0855 96.7887 67.0855C96.5046 67.0855 96.2262 67.0244 95.9535 66.9022C95.6836 66.7801 95.4592 66.594 95.2802 66.344C95.104 66.094 95.016 65.7787 95.016 65.398V58.8866ZM99.5799 69.4548C99.4094 69.4548 99.2575 69.4406 99.1239 69.4122C98.9904 69.3866 98.8981 69.361 98.8469 69.3355L99.1026 68.4491C99.3469 68.5116 99.5629 68.5343 99.7504 68.5173C99.9379 68.5002 100.104 68.4164 100.249 68.2659C100.397 68.1181 100.532 67.8781 100.654 67.5457L100.841 67.0343L98.4208 60.4548H99.5117L101.319 65.6707H101.387L103.194 60.4548H104.284L101.506 67.9548C101.381 68.2929 101.226 68.5727 101.042 68.7943C100.857 69.0187 100.642 69.1849 100.398 69.2929C100.157 69.4008 99.8839 69.4548 99.5799 69.4548ZM106.618 58.273V67.0002H105.612V58.273H106.618ZM111.204 67.1366C110.573 67.1366 110.029 66.9974 109.572 66.719C109.117 66.4377 108.766 66.0457 108.519 65.5429C108.275 65.0372 108.153 64.4491 108.153 63.7787C108.153 63.1082 108.275 62.5173 108.519 62.0059C108.766 61.4917 109.11 61.0912 109.55 60.8042C109.994 60.5144 110.511 60.3696 111.102 60.3696C111.442 60.3696 111.779 60.4264 112.112 60.54C112.444 60.6537 112.746 60.8383 113.019 61.094C113.292 61.3468 113.509 61.6821 113.671 62.0997C113.833 62.5173 113.914 63.0315 113.914 63.6423V64.0684H108.869V63.1991H112.891C112.891 62.8298 112.817 62.5002 112.67 62.2105C112.525 61.9207 112.317 61.692 112.048 61.5244C111.781 61.3568 111.465 61.273 111.102 61.273C110.701 61.273 110.354 61.3724 110.062 61.5713C109.772 61.7673 109.549 62.023 109.393 62.3383C109.237 62.6537 109.158 62.9917 109.158 63.3525V63.9321C109.158 64.4264 109.244 64.8454 109.414 65.1892C109.587 65.5301 109.827 65.79 110.134 65.969C110.441 66.1451 110.798 66.2332 111.204 66.2332C111.468 66.2332 111.707 66.1963 111.92 66.1224C112.136 66.0457 112.322 65.9321 112.478 65.7815C112.634 65.6281 112.755 65.4377 112.84 65.2105L113.812 65.4832C113.71 65.8127 113.538 66.1025 113.296 66.3525C113.055 66.5997 112.756 66.7929 112.401 66.9321C112.046 67.0684 111.647 67.1366 111.204 67.1366ZM116.177 67.0684C115.967 67.0684 115.786 66.9931 115.636 66.8426C115.485 66.692 115.41 66.5116 115.41 66.3014C115.41 66.0912 115.485 65.9108 115.636 65.7602C115.786 65.6096 115.967 65.5343 116.177 65.5343C116.387 65.5343 116.567 65.6096 116.718 65.7602C116.869 65.9108 116.944 66.0912 116.944 66.3014C116.944 66.4406 116.908 66.5684 116.837 66.6849C116.769 66.8014 116.677 66.8951 116.56 66.9662C116.447 67.0343 116.319 67.0684 116.177 67.0684ZM116.177 62.2105C115.967 62.2105 115.786 62.1352 115.636 61.9846C115.485 61.8341 115.41 61.6537 115.41 61.4434C115.41 61.2332 115.485 61.0528 115.636 60.9022C115.786 60.7517 115.967 60.6764 116.177 60.6764C116.387 60.6764 116.567 60.7517 116.718 60.9022C116.869 61.0528 116.944 61.2332 116.944 61.4434C116.944 61.5826 116.908 61.7105 116.837 61.8269C116.769 61.9434 116.677 62.0372 116.56 62.1082C116.447 62.1764 116.319 62.2105 116.177 62.2105ZM121.962 67.0002V58.273H125.405C126.064 58.273 126.626 58.3909 127.092 58.6267C127.561 58.8596 127.918 59.1906 128.162 59.6196C128.409 60.0457 128.533 60.5471 128.533 61.1238C128.533 61.7034 128.408 62.2019 128.158 62.6196C127.908 63.0343 127.545 63.3525 127.071 63.5741C126.599 63.7957 126.028 63.9065 125.358 63.9065H123.053V62.4235H125.06C125.412 62.4235 125.705 62.3752 125.938 62.2787C126.17 62.1821 126.344 62.0372 126.457 61.844C126.574 61.6508 126.632 61.4108 126.632 61.1238C126.632 60.8341 126.574 60.5897 126.457 60.3909C126.344 60.192 126.169 60.0414 125.933 59.9392C125.7 59.8341 125.406 59.7815 125.051 59.7815H123.807V67.0002H121.962ZM126.675 63.0287L128.844 67.0002H126.807L124.685 63.0287H126.675ZM129.837 67.0002V58.273H135.717V59.7943H131.682V61.8738H135.415V63.3951H131.682V65.4789H135.734V67.0002H129.837ZM136.852 59.7943V58.273H144.02V59.7943H141.348V67.0002H139.524V59.7943H136.852ZM145.2 67.0002V58.273H148.643C149.302 58.273 149.865 58.3909 150.331 58.6267C150.799 58.8596 151.156 59.1906 151.4 59.6196C151.647 60.0457 151.771 60.5471 151.771 61.1238C151.771 61.7034 151.646 62.2019 151.396 62.6196C151.146 63.0343 150.784 63.3525 150.309 63.5741C149.838 63.7957 149.267 63.9065 148.596 63.9065H146.291V62.4235H148.298C148.65 62.4235 148.943 62.3752 149.176 62.2787C149.409 62.1821 149.582 62.0372 149.696 61.844C149.812 61.6508 149.87 61.4108 149.87 61.1238C149.87 60.8341 149.812 60.5897 149.696 60.3909C149.582 60.192 149.407 60.0414 149.172 59.9392C148.939 59.8341 148.645 59.7815 148.289 59.7815H147.045V67.0002H145.2ZM149.913 63.0287L152.082 67.0002H150.045L147.923 63.0287H149.913ZM161.095 62.6366C161.095 63.5883 160.914 64.398 160.554 65.0656C160.196 65.7332 159.707 66.2431 159.088 66.5954C158.471 66.9448 157.778 67.1196 157.008 67.1196C156.233 67.1196 155.537 66.9434 154.92 66.5912C154.304 66.2389 153.816 65.7289 153.458 65.0613C153.1 64.3937 152.922 63.5855 152.922 62.6366C152.922 61.6849 153.1 60.8752 153.458 60.2076C153.816 59.54 154.304 59.0315 154.92 58.6821C155.537 58.3298 156.233 58.1537 157.008 58.1537C157.778 58.1537 158.471 58.3298 159.088 58.6821C159.707 59.0315 160.196 59.54 160.554 60.2076C160.914 60.8752 161.095 61.6849 161.095 62.6366ZM159.224 62.6366C159.224 62.0201 159.132 61.5002 158.947 61.0769C158.765 60.6537 158.508 60.3326 158.176 60.1139C157.843 59.8951 157.454 59.7858 157.008 59.7858C156.562 59.7858 156.173 59.8951 155.841 60.1139C155.508 60.3326 155.25 60.6537 155.065 61.0769C154.883 61.5002 154.792 62.0201 154.792 62.6366C154.792 63.2531 154.883 63.773 155.065 64.1963C155.25 64.6196 155.508 64.9406 155.841 65.1593C156.173 65.3781 156.562 65.4875 157.008 65.4875C157.454 65.4875 157.843 65.3781 158.176 65.1593C158.508 64.9406 158.765 64.6196 158.947 64.1963C159.132 63.773 159.224 63.2531 159.224 62.6366Z" fill="black"/>
<rect y="86.0002" width="112" height="30" rx="8" fill="#D7E2FC"/>
<path d="M18.2592 98.6387H16.5973C16.5334 98.2836 16.4144 97.9711 16.2404 97.7012C16.0664 97.4314 15.8533 97.2023 15.6012 97.0141C15.3491 96.8259 15.0668 96.6838 14.7543 96.588C14.4453 96.4921 14.1168 96.4441 13.7688 96.4441C13.1403 96.4441 12.5774 96.6022 12.0803 96.9182C11.5866 97.2343 11.196 97.6977 10.9084 98.3085C10.6243 98.9193 10.4822 99.665 10.4822 100.546C10.4822 101.433 10.6243 102.183 10.9084 102.794C11.196 103.404 11.5884 103.866 12.0856 104.179C12.5827 104.491 13.142 104.647 13.7635 104.647C14.108 104.647 14.4347 104.601 14.7436 104.509C15.0561 104.413 15.3384 104.273 15.5906 104.088C15.8427 103.903 16.0558 103.678 16.2298 103.411C16.4073 103.142 16.5298 102.833 16.5973 102.485L18.2592 102.49C18.1705 103.026 17.9982 103.52 17.7425 103.971C17.4904 104.418 17.1655 104.805 16.7678 105.132C16.3736 105.455 15.9226 105.705 15.4148 105.883C14.907 106.061 14.353 106.149 13.7528 106.149C12.8082 106.149 11.9666 105.926 11.228 105.478C10.4893 105.027 9.90696 104.383 9.48082 103.545C9.05824 102.707 8.84695 101.707 8.84695 100.546C8.84695 99.3809 9.06001 98.3813 9.48615 97.5468C9.91229 96.7087 10.4947 96.0659 11.2333 95.6185C11.9719 95.1675 12.8118 94.942 13.7528 94.942C14.3317 94.942 14.8714 95.0255 15.3722 95.1924C15.8764 95.3557 16.3292 95.5972 16.7305 95.9168C17.1317 96.2328 17.4638 96.6199 17.7266 97.078C17.9893 97.5326 18.1669 98.0528 18.2592 98.6387ZM23.5473 106.165C22.7803 106.165 22.1109 105.99 21.5392 105.638C20.9674 105.286 20.5235 104.795 20.2075 104.163C19.8914 103.53 19.7334 102.792 19.7334 101.947C19.7334 101.098 19.8914 100.356 20.2075 99.7201C20.5235 99.0844 20.9674 98.5908 21.5392 98.2392C22.1109 97.8877 22.7803 97.7119 23.5473 97.7119C24.3144 97.7119 24.9838 97.8877 25.5555 98.2392C26.1272 98.5908 26.5711 99.0844 26.8872 99.7201C27.2032 100.356 27.3612 101.098 27.3612 101.947C27.3612 102.792 27.2032 103.53 26.8872 104.163C26.5711 104.795 26.1272 105.286 25.5555 105.638C24.9838 105.99 24.3144 106.165 23.5473 106.165ZM23.5526 104.828C24.0498 104.828 24.4617 104.697 24.7884 104.434C25.1151 104.171 25.3566 103.822 25.5129 103.385C25.6727 102.948 25.7526 102.467 25.7526 101.941C25.7526 101.419 25.6727 100.94 25.5129 100.503C25.3566 100.063 25.1151 99.7094 24.7884 99.4431C24.4617 99.1767 24.0498 99.0436 23.5526 99.0436C23.0519 99.0436 22.6365 99.1767 22.3062 99.4431C21.9795 99.7094 21.7362 100.063 21.5764 100.503C21.4202 100.94 21.3421 101.419 21.3421 101.941C21.3421 102.467 21.4202 102.948 21.5764 103.385C21.7362 103.822 21.9795 104.171 22.3062 104.434C22.6365 104.697 23.0519 104.828 23.5526 104.828ZM29.139 106V97.8184H30.6678V99.1501H30.769C30.9395 98.6991 31.2182 98.3475 31.6053 98.0954C31.9924 97.8397 32.4558 97.7119 32.9956 97.7119C33.5424 97.7119 34.0005 97.8397 34.3699 98.0954C34.7427 98.3511 35.0179 98.7027 35.1955 99.1501H35.2807C35.476 98.7133 35.7868 98.3653 36.2129 98.1061C36.639 97.8433 37.1468 97.7119 37.7363 97.7119C38.4785 97.7119 39.084 97.9445 39.5527 98.4097C40.025 98.8749 40.2612 99.5762 40.2612 100.514V106H38.6685V100.663C38.6685 100.109 38.5176 99.7076 38.2157 99.4591C37.9139 99.2105 37.5534 99.0862 37.1344 99.0862C36.6159 99.0862 36.2129 99.246 35.9252 99.5656C35.6376 99.8816 35.4938 100.288 35.4938 100.785V106H33.9064V100.562C33.9064 100.118 33.7679 99.7609 33.4909 99.491C33.214 99.2211 32.8535 99.0862 32.4096 99.0862C32.1078 99.0862 31.829 99.1661 31.5733 99.3259C31.3212 99.4821 31.117 99.7005 30.9608 99.9811C30.8081 100.262 30.7317 100.587 30.7317 100.956V106H29.139ZM42.3959 109.068V97.8184H43.9513V99.1448H44.0844C44.1768 98.9743 44.3099 98.7772 44.4839 98.5535C44.6579 98.3298 44.8994 98.1345 45.2084 97.9676C45.5173 97.7971 45.9257 97.7119 46.4335 97.7119C47.094 97.7119 47.6835 97.8788 48.202 98.2126C48.7204 98.5464 49.127 99.0276 49.4218 99.6561C49.7201 100.285 49.8692 101.041 49.8692 101.925C49.8692 102.81 49.7219 103.568 49.4271 104.2C49.1324 104.828 48.7275 105.313 48.2126 105.654C47.6977 105.991 47.11 106.16 46.4495 106.16C45.9523 106.16 45.5457 106.077 45.2297 105.91C44.9172 105.743 44.6721 105.547 44.4946 105.324C44.317 105.1 44.1803 104.901 44.0844 104.727H43.9885V109.068H42.3959ZM43.9566 101.909C43.9566 102.485 44.04 102.989 44.2069 103.422C44.3738 103.855 44.6153 104.194 44.9314 104.44C45.2474 104.681 45.6345 104.802 46.0926 104.802C46.5684 104.802 46.9662 104.676 47.2858 104.424C47.6054 104.168 47.8469 103.822 48.0102 103.385C48.1771 102.948 48.2606 102.456 48.2606 101.909C48.2606 101.37 48.1789 100.885 48.0155 100.455C47.8557 100.025 47.6143 99.6863 47.2911 99.4377C46.9715 99.1892 46.572 99.0649 46.0926 99.0649C45.6309 99.0649 45.2403 99.1838 44.9207 99.4218C44.6047 99.6597 44.365 99.9917 44.2016 100.418C44.0383 100.844 43.9566 101.341 43.9566 101.909ZM54.0347 106.181C53.5162 106.181 53.0475 106.085 52.6285 105.894C52.2094 105.698 51.8774 105.416 51.6324 105.047C51.3909 104.677 51.2702 104.225 51.2702 103.688C51.2702 103.227 51.3589 102.847 51.5365 102.549C51.714 102.25 51.9537 102.014 52.2556 101.84C52.5574 101.666 52.8948 101.535 53.2677 101.446C53.6405 101.357 54.0205 101.29 54.4076 101.243C54.8976 101.187 55.2954 101.141 55.6008 101.105C55.9062 101.066 56.1281 101.004 56.2666 100.919C56.4051 100.833 56.4743 100.695 56.4743 100.503V100.466C56.4743 100.001 56.343 99.6402 56.0802 99.3845C55.8209 99.1288 55.4339 99.001 54.9189 99.001C54.3827 99.001 53.9601 99.1199 53.6512 99.3578C53.3458 99.5922 53.1345 99.8532 53.0173 100.141L51.5205 99.8C51.6981 99.3028 51.9573 98.9015 52.2982 98.5961C52.6427 98.2872 53.0386 98.0635 53.4861 97.925C53.9335 97.7829 54.404 97.7119 54.8976 97.7119C55.2243 97.7119 55.5706 97.751 55.9363 97.8291C56.3057 97.9037 56.6501 98.0421 56.9697 98.2446C57.2929 98.447 57.5574 98.7364 57.7634 99.1128C57.9694 99.4857 58.0724 99.9704 58.0724 100.567V106H56.517V104.882H56.453C56.3501 105.088 56.1956 105.29 55.9896 105.489C55.7836 105.688 55.5191 105.853 55.1959 105.984C54.8728 106.116 54.4857 106.181 54.0347 106.181ZM54.3809 104.903C54.8213 104.903 55.1977 104.816 55.5102 104.642C55.8263 104.468 56.066 104.241 56.2293 103.96C56.3962 103.676 56.4797 103.372 56.4797 103.049V101.995C56.4229 102.051 56.3128 102.105 56.1494 102.154C55.9896 102.201 55.8067 102.241 55.6008 102.277C55.3948 102.309 55.1942 102.339 54.9988 102.367C54.8035 102.392 54.6402 102.414 54.5088 102.431C54.1998 102.47 53.9175 102.536 53.6618 102.628C53.4097 102.721 53.2073 102.854 53.0546 103.028C52.9055 103.198 52.8309 103.426 52.8309 103.71C52.8309 104.104 52.9765 104.402 53.2677 104.605C53.5589 104.804 53.93 104.903 54.3809 104.903ZM60.1937 106V97.8184H61.7331V99.1181H61.8184C61.9675 98.6778 62.2303 98.3316 62.6067 98.0794C62.9867 97.8238 63.4164 97.6959 63.8958 97.6959C63.9952 97.6959 64.1124 97.6995 64.2473 97.7066C64.3858 97.7137 64.4941 97.7225 64.5723 97.7332V99.2566C64.5083 99.2389 64.3947 99.2193 64.2314 99.198C64.068 99.1732 63.9047 99.1608 63.7413 99.1608C63.3649 99.1608 63.0293 99.2407 62.7346 99.4005C62.4434 99.5567 62.2125 99.7751 62.0421 100.056C61.8716 100.333 61.7864 100.649 61.7864 101.004V106H60.1937ZM69.1839 106.165C68.3778 106.165 67.6835 105.993 67.1011 105.649C66.5223 105.301 66.0748 104.812 65.7588 104.184C65.4463 103.552 65.29 102.811 65.29 101.963C65.29 101.125 65.4463 100.386 65.7588 99.7467C66.0748 99.1075 66.5152 98.6086 67.0798 98.2499C67.648 97.8912 68.3121 97.7119 69.072 97.7119C69.5336 97.7119 69.9811 97.7882 70.4143 97.9409C70.8476 98.0936 71.2364 98.3333 71.5809 98.66C71.9253 98.9867 72.197 99.4111 72.3959 99.9331C72.5947 100.452 72.6942 101.082 72.6942 101.824V102.389H66.1903V101.196H71.1334C71.1334 100.777 71.0482 100.405 70.8778 100.082C70.7073 99.7556 70.4676 99.4981 70.1586 99.3099C69.8532 99.1217 69.4946 99.0276 69.0827 99.0276C68.6352 99.0276 68.2446 99.1377 67.9108 99.3578C67.5805 99.5745 67.3248 99.8586 67.1437 100.21C66.9662 100.558 66.8774 100.936 66.8774 101.345V102.277C66.8774 102.824 66.9733 103.289 67.165 103.672C67.3604 104.056 67.632 104.349 67.98 104.551C68.328 104.75 68.7346 104.85 69.1998 104.85C69.5017 104.85 69.7769 104.807 70.0255 104.722C70.2741 104.633 70.4889 104.502 70.67 104.328C70.8511 104.154 70.9896 103.939 71.0855 103.683L72.593 103.955C72.4722 104.399 72.2556 104.788 71.9431 105.121C71.6341 105.452 71.2453 105.709 70.7765 105.894C70.3113 106.075 69.7805 106.165 69.1839 106.165Z" fill="#263B85"/>
<path d="M99 105H98.42L97.61 104.19C98.5 103 99 101.5 99 100C99 96.1302 95.87 93.0002 92 93.0002C90.5 93.0002 89 93.5002 87.79 94.4002C84.7 96.7202 84.07 101.11 86.39 104.2C88.71 107.29 93.1 107.92 96.19 105.6L97 106.41V107L102 112L104 110L99 105ZM92 105C89.24 105 87 102.76 87 100C87 97.2402 89.24 95.0002 92 95.0002C94.76 95.0002 97 97.2402 97 100C97 102.76 94.76 105 92 105ZM84 95.0002L82 97.0002V90.0002H89L87 92.0002H84V95.0002ZM102 90.0002V97.0002L100 95.0002V92.0002H97L95 90.0002H102ZM87 108L89 110H82V103L84 105V108H87Z" fill="#263B85"/>
</svg>
