<svg width="207" height="85" viewBox="0 0 207 85" fill="none" xmlns="http://www.w3.org/2000/svg">
<g clip-path="url(#clip0_210_357)">
<path d="M189.755 24.7771C189.634 26.9076 189.703 27.3819 189.682 28.934C189.663 30.2977 189.824 32.5971 189.37 34.3982C189.031 35.7408 187.102 36.7795 186.738 37.0329C186.164 37.4325 184.784 38.2244 184.279 38.2916M123.542 12.8442C125.377 11.8725 127.135 11.2658 128.838 10.9019C136.345 9.297 143.298 10.1435 150.015 11.3849C158.12 12.8825 165.731 15.844 172.866 20.3418C175.94 22.2804 178.196 23.913 181.069 26.2944C183.721 28.4929 186.122 31.255 188.627 33.8295" stroke="#333333" stroke-width="3" stroke-linecap="round"/>
</g>
<path d="M25.44 28.552H14.88V12.616H44.256V85H25.44V28.552Z" fill="black"/>
<path d="M57.7625 18.6C57.7625 19.4 57.6325 20.1325 57.3725 20.7975C57.1125 21.4575 56.745 22.025 56.27 22.5C55.8 22.975 55.2325 23.345 54.5675 23.61C53.9075 23.87 53.1725 24 52.3625 24H48.2825V13.2H52.3625C53.1725 13.2 53.9075 13.3325 54.5675 13.5975C55.2325 13.8575 55.8 14.225 56.27 14.7C56.745 15.175 57.1125 15.745 57.3725 16.41C57.6325 17.07 57.7625 17.8 57.7625 18.6ZM55.97 18.6C55.97 17.98 55.885 17.4225 55.715 16.9275C55.55 16.4325 55.31 16.015 54.995 15.675C54.685 15.335 54.3075 15.075 53.8625 14.895C53.4175 14.71 52.9175 14.6175 52.3625 14.6175H50.045V22.5825H52.3625C52.9175 22.5825 53.4175 22.4925 53.8625 22.3125C54.3075 22.1325 54.685 21.8725 54.995 21.5325C55.31 21.1875 55.55 20.77 55.715 20.28C55.885 19.785 55.97 19.225 55.97 18.6ZM64.4111 19.3125C64.4111 19.0425 64.3711 18.7925 64.2911 18.5625C64.2161 18.3275 64.1036 18.125 63.9536 17.955C63.8036 17.78 63.6161 17.645 63.3911 17.55C63.1711 17.45 62.9161 17.4 62.6261 17.4C62.0411 17.4 61.5811 17.5675 61.2461 17.9025C60.9111 18.2375 60.6986 18.7075 60.6086 19.3125H64.4111ZM60.5636 20.3025C60.5836 20.7375 60.6511 21.115 60.7661 21.435C60.8811 21.75 61.0336 22.0125 61.2236 22.2225C61.4186 22.4325 61.6486 22.59 61.9136 22.695C62.1836 22.795 62.4836 22.845 62.8136 22.845C63.1286 22.845 63.4011 22.81 63.6311 22.74C63.8611 22.665 64.0611 22.585 64.2311 22.5C64.4011 22.41 64.5461 22.33 64.6661 22.26C64.7861 22.185 64.8961 22.1475 64.9961 22.1475C65.1261 22.1475 65.2261 22.1975 65.2961 22.2975L65.7536 22.89C65.5636 23.115 65.3486 23.305 65.1086 23.46C64.8686 23.615 64.6136 23.7425 64.3436 23.8425C64.0736 23.9375 63.7961 24.005 63.5111 24.045C63.2261 24.09 62.9486 24.1125 62.6786 24.1125C62.1486 24.1125 61.6561 24.025 61.2011 23.85C60.7511 23.67 60.3586 23.4075 60.0236 23.0625C59.6936 22.7175 59.4336 22.29 59.2436 21.78C59.0586 21.27 58.9661 20.6825 58.9661 20.0175C58.9661 19.4875 59.0486 18.9925 59.2136 18.5325C59.3836 18.0725 59.6236 17.6725 59.9336 17.3325C60.2486 16.9925 60.6286 16.725 61.0736 16.53C61.5236 16.33 62.0311 16.23 62.5961 16.23C63.0661 16.23 63.5011 16.3075 63.9011 16.4625C64.3011 16.6125 64.6461 16.835 64.9361 17.13C65.2261 17.425 65.4511 17.7875 65.6111 18.2175C65.7761 18.6425 65.8586 19.1275 65.8586 19.6725C65.8586 19.9225 65.8311 20.09 65.7761 20.175C65.7211 20.26 65.6211 20.3025 65.4761 20.3025H60.5636ZM71.9299 17.7375C71.8899 17.8075 71.8449 17.8575 71.7949 17.8875C71.7449 17.9175 71.6824 17.9325 71.6074 17.9325C71.5224 17.9325 71.4299 17.9075 71.3299 17.8575C71.2299 17.8025 71.1124 17.7425 70.9774 17.6775C70.8424 17.6125 70.6824 17.555 70.4974 17.505C70.3174 17.45 70.1049 17.4225 69.8599 17.4225C69.6599 17.4225 69.4774 17.4475 69.3124 17.4975C69.1524 17.5425 69.0149 17.61 68.8999 17.7C68.7899 17.785 68.7049 17.8875 68.6449 18.0075C68.5849 18.1225 68.5549 18.2475 68.5549 18.3825C68.5549 18.5625 68.6099 18.7125 68.7199 18.8325C68.8299 18.9525 68.9749 19.0575 69.1549 19.1475C69.3349 19.2325 69.5399 19.31 69.7699 19.38C69.9999 19.45 70.2349 19.525 70.4749 19.605C70.7149 19.685 70.9499 19.7775 71.1799 19.8825C71.4099 19.9875 71.6149 20.1175 71.7949 20.2725C71.9749 20.4225 72.1199 20.6075 72.2299 20.8275C72.3399 21.0425 72.3949 21.305 72.3949 21.615C72.3949 21.975 72.3299 22.3075 72.1999 22.6125C72.0699 22.9175 71.8799 23.1825 71.6299 23.4075C71.3799 23.6325 71.0674 23.8075 70.6924 23.9325C70.3224 24.0575 69.8974 24.12 69.4174 24.12C69.1524 24.12 68.8949 24.095 68.6449 24.045C68.3999 24 68.1649 23.9375 67.9399 23.8575C67.7199 23.7725 67.5124 23.6725 67.3174 23.5575C67.1274 23.4425 66.9574 23.3175 66.8074 23.1825L67.1824 22.5675C67.2274 22.4925 67.2824 22.435 67.3474 22.395C67.4174 22.35 67.5024 22.3275 67.6024 22.3275C67.7074 22.3275 67.8099 22.3625 67.9099 22.4325C68.0149 22.4975 68.1349 22.57 68.2699 22.65C68.4099 22.73 68.5774 22.805 68.7724 22.875C68.9674 22.94 69.2099 22.9725 69.4999 22.9725C69.7399 22.9725 69.9474 22.945 70.1224 22.89C70.2974 22.83 70.4424 22.75 70.5574 22.65C70.6724 22.55 70.7574 22.4375 70.8124 22.3125C70.8674 22.1825 70.8949 22.045 70.8949 21.9C70.8949 21.705 70.8399 21.545 70.7299 21.42C70.6199 21.295 70.4724 21.1875 70.2874 21.0975C70.1074 21.0075 69.8999 20.9275 69.6649 20.8575C69.4349 20.7875 69.1999 20.7125 68.9599 20.6325C68.7199 20.5525 68.4824 20.46 68.2474 20.355C68.0174 20.25 67.8099 20.1175 67.6249 19.9575C67.4449 19.7925 67.2999 19.595 67.1899 19.365C67.0799 19.13 67.0249 18.845 67.0249 18.51C67.0249 18.205 67.0849 17.915 67.2049 17.64C67.3299 17.365 67.5099 17.1225 67.7449 16.9125C67.9849 16.7025 68.2774 16.5375 68.6224 16.4175C68.9724 16.2925 69.3749 16.23 69.8299 16.23C70.3449 16.23 70.8124 16.3125 71.2324 16.4775C71.6524 16.6425 72.0049 16.8675 72.2899 17.1525L71.9299 17.7375ZM75.5902 16.35V24H73.9777V16.35H75.5902ZM75.8602 14.04C75.8602 14.185 75.8302 14.3225 75.7702 14.4525C75.7152 14.5825 75.6377 14.6975 75.5377 14.7975C75.4377 14.8925 75.3202 14.97 75.1852 15.03C75.0552 15.085 74.9152 15.1125 74.7652 15.1125C74.6202 15.1125 74.4827 15.085 74.3527 15.03C74.2277 14.97 74.1177 14.8925 74.0227 14.7975C73.9277 14.6975 73.8502 14.5825 73.7902 14.4525C73.7352 14.3225 73.7077 14.185 73.7077 14.04C73.7077 13.89 73.7352 13.75 73.7902 13.62C73.8502 13.49 73.9277 13.3775 74.0227 13.2825C74.1177 13.1825 74.2277 13.105 74.3527 13.05C74.4827 12.99 74.6202 12.96 74.7652 12.96C74.9152 12.96 75.0552 12.99 75.1852 13.05C75.3202 13.105 75.4377 13.1825 75.5377 13.2825C75.6377 13.3775 75.7152 13.49 75.7702 13.62C75.8302 13.75 75.8602 13.89 75.8602 14.04ZM80.3463 20.1075C80.8463 20.1075 81.2213 19.98 81.4713 19.725C81.7213 19.47 81.8463 19.1375 81.8463 18.7275C81.8463 18.3075 81.7213 17.975 81.4713 17.73C81.2213 17.485 80.8463 17.3625 80.3463 17.3625C79.8513 17.3625 79.4763 17.485 79.2213 17.73C78.9713 17.975 78.8463 18.3075 78.8463 18.7275C78.8463 18.9275 78.8788 19.1125 78.9438 19.2825C79.0088 19.4525 79.1038 19.6 79.2288 19.725C79.3538 19.845 79.5088 19.94 79.6938 20.01C79.8838 20.075 80.1013 20.1075 80.3463 20.1075ZM82.5888 24.375C82.5888 24.205 82.5388 24.07 82.4388 23.97C82.3438 23.865 82.2138 23.785 82.0488 23.73C81.8838 23.67 81.6913 23.6275 81.4713 23.6025C81.2513 23.5725 81.0163 23.5525 80.7663 23.5425C80.5213 23.5275 80.2688 23.515 80.0088 23.505C79.7538 23.49 79.5063 23.465 79.2663 23.43C79.0263 23.555 78.8288 23.705 78.6738 23.88C78.5238 24.055 78.4488 24.2575 78.4488 24.4875C78.4488 24.6375 78.4863 24.7775 78.5613 24.9075C78.6413 25.0375 78.7613 25.15 78.9213 25.245C79.0863 25.34 79.2938 25.415 79.5438 25.47C79.7988 25.525 80.1038 25.5525 80.4588 25.5525C81.1688 25.5525 81.7013 25.4425 82.0563 25.2225C82.4113 25.0025 82.5888 24.72 82.5888 24.375ZM84.2088 16.6275V17.2275C84.2088 17.4275 84.0888 17.55 83.8488 17.595L83.0838 17.7225C83.2138 18.0125 83.2788 18.335 83.2788 18.69C83.2788 19.065 83.2038 19.405 83.0538 19.71C82.9088 20.015 82.7063 20.275 82.4463 20.49C82.1863 20.705 81.8763 20.87 81.5163 20.985C81.1563 21.1 80.7663 21.1575 80.3463 21.1575C80.1863 21.1575 80.0288 21.15 79.8738 21.135C79.7238 21.115 79.5763 21.09 79.4313 21.06C79.2863 21.145 79.1788 21.235 79.1088 21.33C79.0388 21.425 79.0038 21.5225 79.0038 21.6225C79.0038 21.7875 79.0763 21.91 79.2213 21.99C79.3663 22.07 79.5563 22.1275 79.7913 22.1625C80.0313 22.1975 80.3038 22.22 80.6088 22.23C80.9138 22.24 81.2238 22.2575 81.5388 22.2825C81.8538 22.3075 82.1638 22.35 82.4688 22.41C82.7738 22.465 83.0438 22.56 83.2788 22.695C83.5188 22.825 83.7113 23.0025 83.8563 23.2275C84.0013 23.4525 84.0738 23.745 84.0738 24.105C84.0738 24.435 83.9913 24.7575 83.8263 25.0725C83.6613 25.3875 83.4213 25.6675 83.1063 25.9125C82.7963 26.1575 82.4163 26.3525 81.9663 26.4975C81.5163 26.6475 81.0038 26.7225 80.4288 26.7225C79.8588 26.7225 79.3613 26.6675 78.9363 26.5575C78.5163 26.4475 78.1638 26.2975 77.8788 26.1075C77.5988 25.9225 77.3888 25.7075 77.2488 25.4625C77.1138 25.2175 77.0463 24.9625 77.0463 24.6975C77.0463 24.3375 77.1588 24.03 77.3838 23.775C77.6138 23.52 77.9238 23.32 78.3138 23.175C78.1038 23.075 77.9338 22.9375 77.8038 22.7625C77.6788 22.5875 77.6163 22.3575 77.6163 22.0725C77.6163 21.8475 77.6988 21.6125 77.8638 21.3675C78.0288 21.1225 78.2763 20.915 78.6063 20.745C78.2263 20.535 77.9263 20.2575 77.7063 19.9125C77.4863 19.5625 77.3763 19.155 77.3763 18.69C77.3763 18.31 77.4488 17.9675 77.5938 17.6625C77.7438 17.3575 77.9513 17.0975 78.2163 16.8825C78.4813 16.6675 78.7938 16.5025 79.1538 16.3875C79.5188 16.2725 79.9163 16.215 80.3463 16.215C81.0063 16.215 81.5813 16.3525 82.0713 16.6275H84.2088ZM86.99 17.3625C87.155 17.1925 87.325 17.04 87.5 16.905C87.68 16.765 87.87 16.645 88.07 16.545C88.27 16.445 88.4825 16.3675 88.7075 16.3125C88.9325 16.2575 89.1775 16.23 89.4425 16.23C89.8625 16.23 90.23 16.3 90.545 16.44C90.865 16.58 91.1325 16.7775 91.3475 17.0325C91.5675 17.2875 91.7325 17.595 91.8425 17.955C91.9525 18.31 92.0075 18.7025 92.0075 19.1325V24H90.4025V19.1325C90.4025 18.6175 90.2825 18.2175 90.0425 17.9325C89.8075 17.6475 89.4475 17.505 88.9625 17.505C88.6025 17.505 88.2675 17.5875 87.9575 17.7525C87.6525 17.9175 87.365 18.1425 87.095 18.4275V24H85.4825V16.35H86.4575C86.6775 16.35 86.8175 16.4525 86.8775 16.6575L86.99 17.3625ZM55.025 34.5825L55.0175 36H48.2825V25.2H55.0175V26.6175H50.045V29.8725H54.02V31.245H50.045V34.5825H55.025ZM58.2676 24.9V36H56.6551V24.9H58.2676ZM65.2754 31.3125C65.2754 31.0425 65.2354 30.7925 65.1554 30.5625C65.0804 30.3275 64.9679 30.125 64.8179 29.955C64.6679 29.78 64.4804 29.645 64.2554 29.55C64.0354 29.45 63.7804 29.4 63.4904 29.4C62.9054 29.4 62.4454 29.5675 62.1104 29.9025C61.7754 30.2375 61.5629 30.7075 61.4729 31.3125H65.2754ZM61.4279 32.3025C61.4479 32.7375 61.5154 33.115 61.6304 33.435C61.7454 33.75 61.8979 34.0125 62.0879 34.2225C62.2829 34.4325 62.5129 34.59 62.7779 34.695C63.0479 34.795 63.3479 34.845 63.6779 34.845C63.9929 34.845 64.2654 34.81 64.4954 34.74C64.7254 34.665 64.9254 34.585 65.0954 34.5C65.2654 34.41 65.4104 34.33 65.5304 34.26C65.6504 34.185 65.7604 34.1475 65.8604 34.1475C65.9904 34.1475 66.0904 34.1975 66.1604 34.2975L66.6179 34.89C66.4279 35.115 66.2129 35.305 65.9729 35.46C65.7329 35.615 65.4779 35.7425 65.2079 35.8425C64.9379 35.9375 64.6604 36.005 64.3754 36.045C64.0904 36.09 63.8129 36.1125 63.5429 36.1125C63.0129 36.1125 62.5204 36.025 62.0654 35.85C61.6154 35.67 61.2229 35.4075 60.8879 35.0625C60.5579 34.7175 60.2979 34.29 60.1079 33.78C59.9229 33.27 59.8304 32.6825 59.8304 32.0175C59.8304 31.4875 59.9129 30.9925 60.0779 30.5325C60.2479 30.0725 60.4879 29.6725 60.7979 29.3325C61.1129 28.9925 61.4929 28.725 61.9379 28.53C62.3879 28.33 62.8954 28.23 63.4604 28.23C63.9304 28.23 64.3654 28.3075 64.7654 28.4625C65.1654 28.6125 65.5104 28.835 65.8004 29.13C66.0904 29.425 66.3154 29.7875 66.4754 30.2175C66.6404 30.6425 66.7229 31.1275 66.7229 31.6725C66.7229 31.9225 66.6954 32.09 66.6404 32.175C66.5854 32.26 66.4854 32.3025 66.3404 32.3025H61.4279ZM70.9566 32.1075C71.4566 32.1075 71.8316 31.98 72.0816 31.725C72.3316 31.47 72.4566 31.1375 72.4566 30.7275C72.4566 30.3075 72.3316 29.975 72.0816 29.73C71.8316 29.485 71.4566 29.3625 70.9566 29.3625C70.4616 29.3625 70.0866 29.485 69.8316 29.73C69.5816 29.975 69.4566 30.3075 69.4566 30.7275C69.4566 30.9275 69.4891 31.1125 69.5541 31.2825C69.6191 31.4525 69.7141 31.6 69.8391 31.725C69.9641 31.845 70.1191 31.94 70.3041 32.01C70.4941 32.075 70.7116 32.1075 70.9566 32.1075ZM73.1991 36.375C73.1991 36.205 73.1491 36.07 73.0491 35.97C72.9541 35.865 72.8241 35.785 72.6591 35.73C72.4941 35.67 72.3016 35.6275 72.0816 35.6025C71.8616 35.5725 71.6266 35.5525 71.3766 35.5425C71.1316 35.5275 70.8791 35.515 70.6191 35.505C70.3641 35.49 70.1166 35.465 69.8766 35.43C69.6366 35.555 69.4391 35.705 69.2841 35.88C69.1341 36.055 69.0591 36.2575 69.0591 36.4875C69.0591 36.6375 69.0966 36.7775 69.1716 36.9075C69.2516 37.0375 69.3716 37.15 69.5316 37.245C69.6966 37.34 69.9041 37.415 70.1541 37.47C70.4091 37.525 70.7141 37.5525 71.0691 37.5525C71.7791 37.5525 72.3116 37.4425 72.6666 37.2225C73.0216 37.0025 73.1991 36.72 73.1991 36.375ZM74.8191 28.6275V29.2275C74.8191 29.4275 74.6991 29.55 74.4591 29.595L73.6941 29.7225C73.8241 30.0125 73.8891 30.335 73.8891 30.69C73.8891 31.065 73.8141 31.405 73.6641 31.71C73.5191 32.015 73.3166 32.275 73.0566 32.49C72.7966 32.705 72.4866 32.87 72.1266 32.985C71.7666 33.1 71.3766 33.1575 70.9566 33.1575C70.7966 33.1575 70.6391 33.15 70.4841 33.135C70.3341 33.115 70.1866 33.09 70.0416 33.06C69.8966 33.145 69.7891 33.235 69.7191 33.33C69.6491 33.425 69.6141 33.5225 69.6141 33.6225C69.6141 33.7875 69.6866 33.91 69.8316 33.99C69.9766 34.07 70.1666 34.1275 70.4016 34.1625C70.6416 34.1975 70.9141 34.22 71.2191 34.23C71.5241 34.24 71.8341 34.2575 72.1491 34.2825C72.4641 34.3075 72.7741 34.35 73.0791 34.41C73.3841 34.465 73.6541 34.56 73.8891 34.695C74.1291 34.825 74.3216 35.0025 74.4666 35.2275C74.6116 35.4525 74.6841 35.745 74.6841 36.105C74.6841 36.435 74.6016 36.7575 74.4366 37.0725C74.2716 37.3875 74.0316 37.6675 73.7166 37.9125C73.4066 38.1575 73.0266 38.3525 72.5766 38.4975C72.1266 38.6475 71.6141 38.7225 71.0391 38.7225C70.4691 38.7225 69.9716 38.6675 69.5466 38.5575C69.1266 38.4475 68.7741 38.2975 68.4891 38.1075C68.2091 37.9225 67.9991 37.7075 67.8591 37.4625C67.7241 37.2175 67.6566 36.9625 67.6566 36.6975C67.6566 36.3375 67.7691 36.03 67.9941 35.775C68.2241 35.52 68.5341 35.32 68.9241 35.175C68.7141 35.075 68.5441 34.9375 68.4141 34.7625C68.2891 34.5875 68.2266 34.3575 68.2266 34.0725C68.2266 33.8475 68.3091 33.6125 68.4741 33.3675C68.6391 33.1225 68.8866 32.915 69.2166 32.745C68.8366 32.535 68.5366 32.2575 68.3166 31.9125C68.0966 31.5625 67.9866 31.155 67.9866 30.69C67.9866 30.31 68.0591 29.9675 68.2041 29.6625C68.3541 29.3575 68.5616 29.0975 68.8266 28.8825C69.0916 28.6675 69.4041 28.5025 69.7641 28.3875C70.1291 28.2725 70.5266 28.215 70.9566 28.215C71.6166 28.215 72.1916 28.3525 72.6816 28.6275H74.8191ZM80.1804 32.655C79.6054 32.675 79.1204 32.7225 78.7254 32.7975C78.3304 32.8675 78.0104 32.96 77.7654 33.075C77.5204 33.185 77.3429 33.3175 77.2329 33.4725C77.1279 33.6275 77.0754 33.7975 77.0754 33.9825C77.0754 34.1625 77.1029 34.3175 77.1579 34.4475C77.2179 34.5725 77.2979 34.6775 77.3979 34.7625C77.5029 34.8425 77.6229 34.9025 77.7579 34.9425C77.8979 34.9775 78.0504 34.995 78.2154 34.995C78.6354 34.995 78.9954 34.9175 79.2954 34.7625C79.6004 34.6025 79.8954 34.3725 80.1804 34.0725V32.655ZM75.9054 29.415C76.7704 28.61 77.8004 28.2075 78.9954 28.2075C79.4354 28.2075 79.8254 28.28 80.1654 28.425C80.5104 28.565 80.7979 28.765 81.0279 29.025C81.2629 29.285 81.4404 29.595 81.5604 29.955C81.6854 30.31 81.7479 30.705 81.7479 31.14V36H81.0279C80.8729 36 80.7554 35.9775 80.6754 35.9325C80.5954 35.8825 80.5279 35.785 80.4729 35.64L80.3154 35.0175C80.1204 35.1925 79.9279 35.35 79.7379 35.49C79.5479 35.625 79.3504 35.74 79.1454 35.835C78.9454 35.93 78.7279 36 78.4929 36.045C78.2629 36.095 78.0079 36.12 77.7279 36.12C77.4179 36.12 77.1279 36.0775 76.8579 35.9925C76.5929 35.9075 76.3629 35.78 76.1679 35.61C75.9729 35.435 75.8179 35.22 75.7029 34.965C75.5929 34.71 75.5379 34.41 75.5379 34.065C75.5379 33.77 75.6154 33.4825 75.7704 33.2025C75.9304 32.9225 76.1904 32.6725 76.5504 32.4525C76.9154 32.2275 77.3929 32.0425 77.9829 31.8975C78.5779 31.7525 79.3104 31.67 80.1804 31.65V31.14C80.1804 30.59 80.0629 30.18 79.8279 29.91C79.5929 29.64 79.2479 29.505 78.7929 29.505C78.4829 29.505 78.2229 29.545 78.0129 29.625C77.8029 29.7 77.6204 29.7825 77.4654 29.8725C77.3104 29.9625 77.1729 30.0475 77.0529 30.1275C76.9329 30.2025 76.8054 30.24 76.6704 30.24C76.5604 30.24 76.4654 30.2125 76.3854 30.1575C76.3104 30.0975 76.2479 30.025 76.1979 29.94L75.9054 29.415ZM85.1443 29.3625C85.3093 29.1925 85.4793 29.04 85.6543 28.905C85.8343 28.765 86.0243 28.645 86.2243 28.545C86.4243 28.445 86.6368 28.3675 86.8618 28.3125C87.0868 28.2575 87.3318 28.23 87.5968 28.23C88.0168 28.23 88.3843 28.3 88.6993 28.44C89.0193 28.58 89.2868 28.7775 89.5018 29.0325C89.7218 29.2875 89.8868 29.595 89.9968 29.955C90.1068 30.31 90.1618 30.7025 90.1618 31.1325V36H88.5568V31.1325C88.5568 30.6175 88.4368 30.2175 88.1968 29.9325C87.9618 29.6475 87.6018 29.505 87.1168 29.505C86.7568 29.505 86.4218 29.5875 86.1118 29.7525C85.8068 29.9175 85.5193 30.1425 85.2493 30.4275V36H83.6368V28.35H84.6118C84.8318 28.35 84.9718 28.4525 85.0318 28.6575L85.1443 29.3625ZM97.4525 29.85C97.4025 29.915 97.355 29.965 97.31 30C97.265 30.035 97.2 30.0525 97.115 30.0525C97.03 30.0525 96.94 30.0225 96.845 29.9625C96.755 29.9025 96.645 29.8375 96.515 29.7675C96.39 29.6925 96.2375 29.625 96.0575 29.565C95.8775 29.505 95.6525 29.475 95.3825 29.475C95.0325 29.475 94.725 29.5375 94.46 29.6625C94.2 29.7875 93.98 29.9675 93.8 30.2025C93.625 30.4325 93.4925 30.715 93.4025 31.05C93.3175 31.38 93.275 31.7525 93.275 32.1675C93.275 32.5975 93.3225 32.98 93.4175 33.315C93.5125 33.65 93.6475 33.9325 93.8225 34.1625C94.0025 34.3925 94.2175 34.5675 94.4675 34.6875C94.7225 34.8075 95.0075 34.8675 95.3225 34.8675C95.6325 34.8675 95.885 34.83 96.08 34.755C96.275 34.68 96.4375 34.5975 96.5675 34.5075C96.6975 34.4175 96.8075 34.335 96.8975 34.26C96.9925 34.185 97.0925 34.1475 97.1975 34.1475C97.3275 34.1475 97.4275 34.1975 97.4975 34.2975L97.955 34.89C97.77 35.115 97.565 35.305 97.34 35.46C97.115 35.615 96.8775 35.7425 96.6275 35.8425C96.3775 35.9375 96.1175 36.005 95.8475 36.045C95.5775 36.09 95.305 36.1125 95.03 36.1125C94.555 36.1125 94.11 36.025 93.695 35.85C93.285 35.67 92.925 35.4125 92.615 35.0775C92.31 34.7375 92.0675 34.325 91.8875 33.84C91.7125 33.35 91.625 32.7925 91.625 32.1675C91.625 31.6025 91.705 31.08 91.865 30.6C92.025 30.115 92.2575 29.6975 92.5625 29.3475C92.8725 28.9975 93.255 28.725 93.71 28.53C94.165 28.33 94.69 28.23 95.285 28.23C95.84 28.23 96.3275 28.32 96.7475 28.5C97.1725 28.68 97.55 28.935 97.88 29.265L97.4525 29.85ZM104.138 31.3125C104.138 31.0425 104.098 30.7925 104.018 30.5625C103.943 30.3275 103.83 30.125 103.68 29.955C103.53 29.78 103.343 29.645 103.118 29.55C102.898 29.45 102.643 29.4 102.353 29.4C101.768 29.4 101.308 29.5675 100.973 29.9025C100.638 30.2375 100.425 30.7075 100.335 31.3125H104.138ZM100.29 32.3025C100.31 32.7375 100.378 33.115 100.493 33.435C100.608 33.75 100.76 34.0125 100.95 34.2225C101.145 34.4325 101.375 34.59 101.64 34.695C101.91 34.795 102.21 34.845 102.54 34.845C102.855 34.845 103.128 34.81 103.358 34.74C103.588 34.665 103.788 34.585 103.958 34.5C104.128 34.41 104.273 34.33 104.393 34.26C104.513 34.185 104.623 34.1475 104.723 34.1475C104.853 34.1475 104.953 34.1975 105.023 34.2975L105.48 34.89C105.29 35.115 105.075 35.305 104.835 35.46C104.595 35.615 104.34 35.7425 104.07 35.8425C103.8 35.9375 103.523 36.005 103.238 36.045C102.953 36.09 102.675 36.1125 102.405 36.1125C101.875 36.1125 101.383 36.025 100.928 35.85C100.478 35.67 100.085 35.4075 99.7502 35.0625C99.4202 34.7175 99.1602 34.29 98.9702 33.78C98.7852 33.27 98.6927 32.6825 98.6927 32.0175C98.6927 31.4875 98.7752 30.9925 98.9402 30.5325C99.1102 30.0725 99.3502 29.6725 99.6602 29.3325C99.9752 28.9925 100.355 28.725 100.8 28.53C101.25 28.33 101.758 28.23 102.323 28.23C102.793 28.23 103.228 28.3075 103.628 28.4625C104.028 28.6125 104.373 28.835 104.663 29.13C104.953 29.425 105.178 29.7875 105.338 30.2175C105.503 30.6425 105.585 31.1275 105.585 31.6725C105.585 31.9225 105.558 32.09 105.503 32.175C105.448 32.26 105.348 32.3025 105.203 32.3025H100.29ZM50.045 48H48.2825V37.2H50.045V48ZM54.7563 48.12C54.1213 48.12 53.6313 47.9425 53.2863 47.5875C52.9463 47.2275 52.7763 46.7225 52.7763 46.0725V41.6175H51.9363C51.8463 41.6175 51.7688 41.59 51.7038 41.535C51.6388 41.475 51.6063 41.3875 51.6063 41.2725V40.62L52.8438 40.44L53.1963 38.2275C53.2213 38.1425 53.2638 38.075 53.3238 38.025C53.3838 37.97 53.4638 37.9425 53.5638 37.9425H54.3888V40.455H56.5113V41.6175H54.3888V45.96C54.3888 46.235 54.4563 46.445 54.5913 46.59C54.7263 46.735 54.9063 46.8075 55.1313 46.8075C55.2563 46.8075 55.3638 46.7925 55.4538 46.7625C55.5438 46.7275 55.6213 46.6925 55.6863 46.6575C55.7513 46.6175 55.8063 46.5825 55.8513 46.5525C55.9013 46.5175 55.9488 46.5 55.9938 46.5C56.0838 46.5 56.1563 46.55 56.2113 46.65L56.6913 47.4375C56.4413 47.6575 56.1463 47.8275 55.8063 47.9475C55.4663 48.0625 55.1163 48.12 54.7563 48.12ZM61.8698 44.655C61.2948 44.675 60.8098 44.7225 60.4148 44.7975C60.0198 44.8675 59.6998 44.96 59.4548 45.075C59.2098 45.185 59.0323 45.3175 58.9223 45.4725C58.8173 45.6275 58.7648 45.7975 58.7648 45.9825C58.7648 46.1625 58.7923 46.3175 58.8473 46.4475C58.9073 46.5725 58.9873 46.6775 59.0873 46.7625C59.1923 46.8425 59.3123 46.9025 59.4473 46.9425C59.5873 46.9775 59.7398 46.995 59.9048 46.995C60.3248 46.995 60.6848 46.9175 60.9848 46.7625C61.2898 46.6025 61.5848 46.3725 61.8698 46.0725V44.655ZM57.5948 41.415C58.4598 40.61 59.4898 40.2075 60.6848 40.2075C61.1248 40.2075 61.5148 40.28 61.8548 40.425C62.1998 40.565 62.4873 40.765 62.7173 41.025C62.9523 41.285 63.1298 41.595 63.2498 41.955C63.3748 42.31 63.4373 42.705 63.4373 43.14V48H62.7173C62.5623 48 62.4448 47.9775 62.3648 47.9325C62.2848 47.8825 62.2173 47.785 62.1623 47.64L62.0048 47.0175C61.8098 47.1925 61.6173 47.35 61.4273 47.49C61.2373 47.625 61.0398 47.74 60.8348 47.835C60.6348 47.93 60.4173 48 60.1823 48.045C59.9523 48.095 59.6973 48.12 59.4173 48.12C59.1073 48.12 58.8173 48.0775 58.5473 47.9925C58.2823 47.9075 58.0523 47.78 57.8573 47.61C57.6623 47.435 57.5073 47.22 57.3923 46.965C57.2823 46.71 57.2273 46.41 57.2273 46.065C57.2273 45.77 57.3048 45.4825 57.4598 45.2025C57.6198 44.9225 57.8798 44.6725 58.2398 44.4525C58.6048 44.2275 59.0823 44.0425 59.6723 43.8975C60.2673 43.7525 60.9998 43.67 61.8698 43.65V43.14C61.8698 42.59 61.7523 42.18 61.5173 41.91C61.2823 41.64 60.9373 41.505 60.4823 41.505C60.1723 41.505 59.9123 41.545 59.7023 41.625C59.4923 41.7 59.3098 41.7825 59.1548 41.8725C58.9998 41.9625 58.8623 42.0475 58.7423 42.1275C58.6223 42.2025 58.4948 42.24 58.3598 42.24C58.2498 42.24 58.1548 42.2125 58.0748 42.1575C57.9998 42.0975 57.9373 42.025 57.8873 41.94L57.5948 41.415ZM66.9688 36.9V48H65.3563V36.9H66.9688ZM70.6391 40.35V48H69.0266V40.35H70.6391ZM70.9091 38.04C70.9091 38.185 70.8791 38.3225 70.8191 38.4525C70.7641 38.5825 70.6866 38.6975 70.5866 38.7975C70.4866 38.8925 70.3691 38.97 70.2341 39.03C70.1041 39.085 69.9641 39.1125 69.8141 39.1125C69.6691 39.1125 69.5316 39.085 69.4016 39.03C69.2766 38.97 69.1666 38.8925 69.0716 38.7975C68.9766 38.6975 68.8991 38.5825 68.8391 38.4525C68.7841 38.3225 68.7566 38.185 68.7566 38.04C68.7566 37.89 68.7841 37.75 68.8391 37.62C68.8991 37.49 68.9766 37.3775 69.0716 37.2825C69.1666 37.1825 69.2766 37.105 69.4016 37.05C69.5316 36.99 69.6691 36.96 69.8141 36.96C69.9641 36.96 70.1041 36.99 70.2341 37.05C70.3691 37.105 70.4866 37.1825 70.5866 37.2825C70.6866 37.3775 70.7641 37.49 70.8191 37.62C70.8791 37.75 70.9091 37.89 70.9091 38.04ZM76.7526 44.655C76.1776 44.675 75.6926 44.7225 75.2976 44.7975C74.9026 44.8675 74.5826 44.96 74.3376 45.075C74.0926 45.185 73.9151 45.3175 73.8051 45.4725C73.7001 45.6275 73.6476 45.7975 73.6476 45.9825C73.6476 46.1625 73.6751 46.3175 73.7301 46.4475C73.7901 46.5725 73.8701 46.6775 73.9701 46.7625C74.0751 46.8425 74.1951 46.9025 74.3301 46.9425C74.4701 46.9775 74.6226 46.995 74.7876 46.995C75.2076 46.995 75.5676 46.9175 75.8676 46.7625C76.1726 46.6025 76.4676 46.3725 76.7526 46.0725V44.655ZM72.4776 41.415C73.3426 40.61 74.3726 40.2075 75.5676 40.2075C76.0076 40.2075 76.3976 40.28 76.7376 40.425C77.0826 40.565 77.3701 40.765 77.6001 41.025C77.8351 41.285 78.0126 41.595 78.1326 41.955C78.2576 42.31 78.3201 42.705 78.3201 43.14V48H77.6001C77.4451 48 77.3276 47.9775 77.2476 47.9325C77.1676 47.8825 77.1001 47.785 77.0451 47.64L76.8876 47.0175C76.6926 47.1925 76.5001 47.35 76.3101 47.49C76.1201 47.625 75.9226 47.74 75.7176 47.835C75.5176 47.93 75.3001 48 75.0651 48.045C74.8351 48.095 74.5801 48.12 74.3001 48.12C73.9901 48.12 73.7001 48.0775 73.4301 47.9925C73.1651 47.9075 72.9351 47.78 72.7401 47.61C72.5451 47.435 72.3901 47.22 72.2751 46.965C72.1651 46.71 72.1101 46.41 72.1101 46.065C72.1101 45.77 72.1876 45.4825 72.3426 45.2025C72.5026 44.9225 72.7626 44.6725 73.1226 44.4525C73.4876 44.2275 73.9651 44.0425 74.5551 43.8975C75.1501 43.7525 75.8826 43.67 76.7526 43.65V43.14C76.7526 42.59 76.6351 42.18 76.4001 41.91C76.1651 41.64 75.8201 41.505 75.3651 41.505C75.0551 41.505 74.7951 41.545 74.5851 41.625C74.3751 41.7 74.1926 41.7825 74.0376 41.8725C73.8826 41.9625 73.7451 42.0475 73.6251 42.1275C73.5051 42.2025 73.3776 42.24 73.2426 42.24C73.1326 42.24 73.0376 42.2125 72.9576 42.1575C72.8826 42.0975 72.8201 42.025 72.7701 41.94L72.4776 41.415ZM81.7166 41.3625C81.8816 41.1925 82.0516 41.04 82.2266 40.905C82.4066 40.765 82.5966 40.645 82.7966 40.545C82.9966 40.445 83.2091 40.3675 83.4341 40.3125C83.6591 40.2575 83.9041 40.23 84.1691 40.23C84.5891 40.23 84.9566 40.3 85.2716 40.44C85.5916 40.58 85.8591 40.7775 86.0741 41.0325C86.2941 41.2875 86.4591 41.595 86.5691 41.955C86.6791 42.31 86.7341 42.7025 86.7341 43.1325V48H85.1291V43.1325C85.1291 42.6175 85.0091 42.2175 84.7691 41.9325C84.5341 41.6475 84.1741 41.505 83.6891 41.505C83.3291 41.505 82.9941 41.5875 82.6841 41.7525C82.3791 41.9175 82.0916 42.1425 81.8216 42.4275V48H80.2091V40.35H81.1841C81.4041 40.35 81.5441 40.4525 81.6041 40.6575L81.7166 41.3625ZM92.3526 48V40.35H93.3276C93.5476 40.35 93.6876 40.4525 93.7476 40.6575L93.8526 41.325C93.9926 41.165 94.1376 41.02 94.2876 40.89C94.4376 40.755 94.5976 40.64 94.7676 40.545C94.9426 40.445 95.1276 40.3675 95.3226 40.3125C95.5226 40.2575 95.7376 40.23 95.9676 40.23C96.2126 40.23 96.4376 40.265 96.6426 40.335C96.8476 40.405 97.0276 40.505 97.1826 40.635C97.3426 40.765 97.4801 40.9225 97.5951 41.1075C97.7101 41.2925 97.8051 41.5 97.8801 41.73C97.9951 41.465 98.1401 41.2375 98.3151 41.0475C98.4901 40.8575 98.6851 40.7025 98.9001 40.5825C99.1151 40.4625 99.3426 40.375 99.5826 40.32C99.8276 40.26 100.075 40.23 100.325 40.23C100.735 40.23 101.1 40.295 101.42 40.425C101.745 40.555 102.018 40.745 102.238 40.995C102.463 41.24 102.633 41.5425 102.748 41.9025C102.863 42.2625 102.92 42.6725 102.92 43.1325V48H101.308V43.1325C101.308 42.5925 101.19 42.1875 100.955 41.9175C100.725 41.6425 100.383 41.505 99.9276 41.505C99.7226 41.505 99.5301 41.54 99.3501 41.61C99.1701 41.68 99.0126 41.7825 98.8776 41.9175C98.7426 42.0525 98.6351 42.2225 98.5551 42.4275C98.4801 42.6275 98.4426 42.8625 98.4426 43.1325V48H96.8301V43.1325C96.8301 42.5725 96.7176 42.1625 96.4926 41.9025C96.2676 41.6375 95.9376 41.505 95.5026 41.505C95.2026 41.505 94.9251 41.5825 94.6701 41.7375C94.4151 41.8875 94.1801 42.095 93.9651 42.36V48H92.3526ZM108.111 40.23C108.676 40.23 109.186 40.3225 109.641 40.5075C110.101 40.6925 110.491 40.955 110.811 41.295C111.136 41.635 111.386 42.0475 111.561 42.5325C111.736 43.0175 111.824 43.5625 111.824 44.1675C111.824 44.7725 111.736 45.3175 111.561 45.8025C111.386 46.2875 111.136 46.7025 110.811 47.0475C110.491 47.3875 110.101 47.65 109.641 47.835C109.186 48.02 108.676 48.1125 108.111 48.1125C107.541 48.1125 107.026 48.02 106.566 47.835C106.111 47.65 105.721 47.3875 105.396 47.0475C105.071 46.7025 104.821 46.2875 104.646 45.8025C104.471 45.3175 104.384 44.7725 104.384 44.1675C104.384 43.5625 104.471 43.0175 104.646 42.5325C104.821 42.0475 105.071 41.635 105.396 41.295C105.721 40.955 106.111 40.6925 106.566 40.5075C107.026 40.3225 107.541 40.23 108.111 40.23ZM108.111 46.8525C108.801 46.8525 109.314 46.6225 109.649 46.1625C109.989 45.6975 110.159 45.035 110.159 44.175C110.159 43.315 109.989 42.6525 109.649 42.1875C109.314 41.7175 108.801 41.4825 108.111 41.4825C107.411 41.4825 106.891 41.7175 106.551 42.1875C106.211 42.6525 106.041 43.315 106.041 44.175C106.041 45.035 106.211 45.6975 106.551 46.1625C106.891 46.6225 107.411 46.8525 108.111 46.8525ZM118.256 42.2325C118.031 41.9425 117.783 41.74 117.513 41.625C117.243 41.51 116.951 41.4525 116.636 41.4525C116.006 41.4525 115.513 41.685 115.158 42.15C114.803 42.61 114.626 43.2925 114.626 44.1975C114.626 44.6675 114.666 45.07 114.746 45.405C114.826 45.735 114.941 46.005 115.091 46.215C115.241 46.425 115.423 46.5775 115.638 46.6725C115.853 46.7675 116.096 46.815 116.366 46.815C116.776 46.815 117.128 46.7275 117.423 46.5525C117.723 46.3725 118.001 46.12 118.256 45.795V42.2325ZM119.868 36.9V48H118.893C118.678 48 118.541 47.8975 118.481 47.6925L118.338 46.86C118.018 47.235 117.653 47.5375 117.243 47.7675C116.838 47.9975 116.366 48.1125 115.826 48.1125C115.396 48.1125 115.006 48.0275 114.656 47.8575C114.306 47.6825 114.006 47.43 113.756 47.1C113.506 46.77 113.311 46.3625 113.171 45.8775C113.036 45.3875 112.968 44.8275 112.968 44.1975C112.968 43.6275 113.043 43.1 113.193 42.615C113.348 42.13 113.568 41.71 113.853 41.355C114.138 40.995 114.483 40.715 114.888 40.515C115.298 40.31 115.756 40.2075 116.261 40.2075C116.711 40.2075 117.093 40.28 117.408 40.425C117.723 40.565 118.006 40.7625 118.256 41.0175V36.9H119.868ZM126.857 43.3125C126.857 43.0425 126.817 42.7925 126.737 42.5625C126.662 42.3275 126.55 42.125 126.4 41.955C126.25 41.78 126.062 41.645 125.837 41.55C125.617 41.45 125.362 41.4 125.072 41.4C124.487 41.4 124.027 41.5675 123.692 41.9025C123.357 42.2375 123.145 42.7075 123.055 43.3125H126.857ZM123.01 44.3025C123.03 44.7375 123.097 45.115 123.212 45.435C123.327 45.75 123.48 46.0125 123.67 46.2225C123.865 46.4325 124.095 46.59 124.36 46.695C124.63 46.795 124.93 46.845 125.26 46.845C125.575 46.845 125.847 46.81 126.077 46.74C126.307 46.665 126.507 46.585 126.677 46.5C126.847 46.41 126.992 46.33 127.112 46.26C127.232 46.185 127.342 46.1475 127.442 46.1475C127.572 46.1475 127.672 46.1975 127.742 46.2975L128.2 46.89C128.01 47.115 127.795 47.305 127.555 47.46C127.315 47.615 127.06 47.7425 126.79 47.8425C126.52 47.9375 126.242 48.005 125.957 48.045C125.672 48.09 125.395 48.1125 125.125 48.1125C124.595 48.1125 124.102 48.025 123.647 47.85C123.197 47.67 122.805 47.4075 122.47 47.0625C122.14 46.7175 121.88 46.29 121.69 45.78C121.505 45.27 121.412 44.6825 121.412 44.0175C121.412 43.4875 121.495 42.9925 121.66 42.5325C121.83 42.0725 122.07 41.6725 122.38 41.3325C122.695 40.9925 123.075 40.725 123.52 40.53C123.97 40.33 124.477 40.23 125.042 40.23C125.512 40.23 125.947 40.3075 126.347 40.4625C126.747 40.6125 127.092 40.835 127.382 41.13C127.672 41.425 127.897 41.7875 128.057 42.2175C128.222 42.6425 128.305 43.1275 128.305 43.6725C128.305 43.9225 128.277 44.09 128.222 44.175C128.167 44.26 128.067 44.3025 127.922 44.3025H123.01ZM131.331 41.7675C131.571 41.2825 131.861 40.9025 132.201 40.6275C132.541 40.3475 132.949 40.2075 133.424 40.2075C133.589 40.2075 133.744 40.2275 133.889 40.2675C134.034 40.3025 134.164 40.3575 134.279 40.4325L134.166 41.6475C134.146 41.7325 134.114 41.7925 134.069 41.8275C134.029 41.8575 133.974 41.8725 133.904 41.8725C133.829 41.8725 133.721 41.86 133.581 41.835C133.441 41.805 133.294 41.79 133.139 41.79C132.914 41.79 132.714 41.8225 132.539 41.8875C132.369 41.9525 132.214 42.0475 132.074 42.1725C131.939 42.2975 131.819 42.45 131.714 42.63C131.609 42.81 131.511 43.015 131.421 43.245V48H129.809V40.35H130.746C130.916 40.35 131.034 40.3825 131.099 40.4475C131.164 40.5075 131.209 40.615 131.234 40.77L131.331 41.7675ZM136.853 41.3625C137.018 41.1925 137.188 41.04 137.363 40.905C137.543 40.765 137.733 40.645 137.933 40.545C138.133 40.445 138.346 40.3675 138.571 40.3125C138.796 40.2575 139.041 40.23 139.306 40.23C139.726 40.23 140.093 40.3 140.408 40.44C140.728 40.58 140.996 40.7775 141.211 41.0325C141.431 41.2875 141.596 41.595 141.706 41.955C141.816 42.31 141.871 42.7025 141.871 43.1325V48H140.266V43.1325C140.266 42.6175 140.146 42.2175 139.906 41.9325C139.671 41.6475 139.311 41.505 138.826 41.505C138.466 41.505 138.131 41.5875 137.821 41.7525C137.516 41.9175 137.228 42.1425 136.958 42.4275V48H135.346V40.35H136.321C136.541 40.35 136.681 40.4525 136.741 40.6575L136.853 41.3625ZM145.434 40.35V48H143.821V40.35H145.434ZM145.704 38.04C145.704 38.185 145.674 38.3225 145.614 38.4525C145.559 38.5825 145.481 38.6975 145.381 38.7975C145.281 38.8925 145.164 38.97 145.029 39.03C144.899 39.085 144.759 39.1125 144.609 39.1125C144.464 39.1125 144.326 39.085 144.196 39.03C144.071 38.97 143.961 38.8925 143.866 38.7975C143.771 38.6975 143.694 38.5825 143.634 38.4525C143.579 38.3225 143.551 38.185 143.551 38.04C143.551 37.89 143.579 37.75 143.634 37.62C143.694 37.49 143.771 37.3775 143.866 37.2825C143.961 37.1825 144.071 37.105 144.196 37.05C144.326 36.99 144.464 36.96 144.609 36.96C144.759 36.96 144.899 36.99 145.029 37.05C145.164 37.105 145.281 37.1825 145.381 37.2825C145.481 37.3775 145.559 37.49 145.614 37.62C145.674 37.75 145.704 37.89 145.704 38.04ZM152.028 41.7375C151.988 41.8075 151.943 41.8575 151.893 41.8875C151.843 41.9175 151.78 41.9325 151.705 41.9325C151.62 41.9325 151.528 41.9075 151.428 41.8575C151.328 41.8025 151.21 41.7425 151.075 41.6775C150.94 41.6125 150.78 41.555 150.595 41.505C150.415 41.45 150.203 41.4225 149.958 41.4225C149.758 41.4225 149.575 41.4475 149.41 41.4975C149.25 41.5425 149.113 41.61 148.998 41.7C148.888 41.785 148.803 41.8875 148.743 42.0075C148.683 42.1225 148.653 42.2475 148.653 42.3825C148.653 42.5625 148.708 42.7125 148.818 42.8325C148.928 42.9525 149.073 43.0575 149.253 43.1475C149.433 43.2325 149.638 43.31 149.868 43.38C150.098 43.45 150.333 43.525 150.573 43.605C150.813 43.685 151.048 43.7775 151.278 43.8825C151.508 43.9875 151.713 44.1175 151.893 44.2725C152.073 44.4225 152.218 44.6075 152.328 44.8275C152.438 45.0425 152.493 45.305 152.493 45.615C152.493 45.975 152.428 46.3075 152.298 46.6125C152.168 46.9175 151.978 47.1825 151.728 47.4075C151.478 47.6325 151.165 47.8075 150.79 47.9325C150.42 48.0575 149.995 48.12 149.515 48.12C149.25 48.12 148.993 48.095 148.743 48.045C148.498 48 148.263 47.9375 148.038 47.8575C147.818 47.7725 147.61 47.6725 147.415 47.5575C147.225 47.4425 147.055 47.3175 146.905 47.1825L147.28 46.5675C147.325 46.4925 147.38 46.435 147.445 46.395C147.515 46.35 147.6 46.3275 147.7 46.3275C147.805 46.3275 147.908 46.3625 148.008 46.4325C148.113 46.4975 148.233 46.57 148.368 46.65C148.508 46.73 148.675 46.805 148.87 46.875C149.065 46.94 149.308 46.9725 149.598 46.9725C149.838 46.9725 150.045 46.945 150.22 46.89C150.395 46.83 150.54 46.75 150.655 46.65C150.77 46.55 150.855 46.4375 150.91 46.3125C150.965 46.1825 150.993 46.045 150.993 45.9C150.993 45.705 150.938 45.545 150.828 45.42C150.718 45.295 150.57 45.1875 150.385 45.0975C150.205 45.0075 149.998 44.9275 149.763 44.8575C149.533 44.7875 149.298 44.7125 149.058 44.6325C148.818 44.5525 148.58 44.46 148.345 44.355C148.115 44.25 147.908 44.1175 147.723 43.9575C147.543 43.7925 147.398 43.595 147.288 43.365C147.178 43.13 147.123 42.845 147.123 42.51C147.123 42.205 147.183 41.915 147.303 41.64C147.428 41.365 147.608 41.1225 147.843 40.9125C148.083 40.7025 148.375 40.5375 148.72 40.4175C149.07 40.2925 149.473 40.23 149.928 40.23C150.443 40.23 150.91 40.3125 151.33 40.4775C151.75 40.6425 152.103 40.8675 152.388 41.1525L152.028 41.7375ZM154.008 48V40.35H154.983C155.203 40.35 155.343 40.4525 155.403 40.6575L155.508 41.325C155.648 41.165 155.793 41.02 155.943 40.89C156.093 40.755 156.253 40.64 156.423 40.545C156.598 40.445 156.783 40.3675 156.978 40.3125C157.178 40.2575 157.393 40.23 157.623 40.23C157.868 40.23 158.093 40.265 158.298 40.335C158.503 40.405 158.683 40.505 158.838 40.635C158.998 40.765 159.135 40.9225 159.25 41.1075C159.365 41.2925 159.46 41.5 159.535 41.73C159.65 41.465 159.795 41.2375 159.97 41.0475C160.145 40.8575 160.34 40.7025 160.555 40.5825C160.77 40.4625 160.998 40.375 161.238 40.32C161.483 40.26 161.73 40.23 161.98 40.23C162.39 40.23 162.755 40.295 163.075 40.425C163.4 40.555 163.673 40.745 163.893 40.995C164.118 41.24 164.288 41.5425 164.403 41.9025C164.518 42.2625 164.575 42.6725 164.575 43.1325V48H162.963V43.1325C162.963 42.5925 162.845 42.1875 162.61 41.9175C162.38 41.6425 162.038 41.505 161.583 41.505C161.378 41.505 161.185 41.54 161.005 41.61C160.825 41.68 160.668 41.7825 160.533 41.9175C160.398 42.0525 160.29 42.2225 160.21 42.4275C160.135 42.6275 160.098 42.8625 160.098 43.1325V48H158.485V43.1325C158.485 42.5725 158.373 42.1625 158.148 41.9025C157.923 41.6375 157.593 41.505 157.158 41.505C156.858 41.505 156.58 41.5825 156.325 41.7375C156.07 41.8875 155.835 42.095 155.62 42.36V48H154.008Z" fill="black"/>
<defs>
<clipPath id="clip0_210_357">
<rect width="70.8999" height="21.7208" fill="white" transform="translate(126.52) rotate(17.4667)"/>
</clipPath>
</defs>
</svg>
