<svg width="146" height="88" viewBox="0 0 146 88" fill="none" xmlns="http://www.w3.org/2000/svg">
<path d="M145.96 88H87.688L105.64 69.376C110.376 64.448 114.088 60.288 116.776 56.896C119.464 53.44 121.448 50.528 122.728 48.16C124.072 45.792 124.904 43.872 125.224 42.4C125.544 40.928 125.704 39.68 125.704 38.656C125.704 37.568 125.512 36.512 125.128 35.488C124.808 34.464 124.296 33.568 123.592 32.8C122.888 31.968 122.024 31.328 121 30.88C120.04 30.368 118.888 30.112 117.544 30.112C114.984 30.112 112.968 30.944 111.496 32.608C110.088 34.272 109.384 36.352 109.384 38.848C109.384 39.552 109.48 40.576 109.672 41.92H89.128C89.128 37.696 89.8 33.856 91.144 30.4C92.552 26.944 94.504 23.968 97 21.472C99.496 18.976 102.44 17.056 105.832 15.712C109.288 14.368 113.064 13.696 117.16 13.696C121.192 13.696 124.904 14.336 128.296 15.616C131.752 16.896 134.728 18.688 137.224 20.992C139.72 23.296 141.672 26.048 143.08 29.248C144.488 32.384 145.192 35.808 145.192 39.52C145.192 43.488 144.328 47.168 142.6 50.56C140.936 53.888 138.248 57.312 134.536 60.832L122.536 72.064H145.96V88Z" fill="black"/>
<path d="M10.6425 48.705C11.0325 48.705 11.375 48.655 11.67 48.555C11.97 48.455 12.2175 48.315 12.4125 48.135C12.6125 47.95 12.7625 47.7275 12.8625 47.4675C12.9625 47.2075 13.0125 46.9175 13.0125 46.5975C13.0125 46.2825 12.9625 46 12.8625 45.75C12.7675 45.5 12.6225 45.2875 12.4275 45.1125C12.2325 44.9375 11.985 44.805 11.685 44.715C11.39 44.62 11.0425 44.5725 10.6425 44.5725H9.0375V48.705H10.6425ZM10.6425 43.2C11.3475 43.2 11.9575 43.2825 12.4725 43.4475C12.9925 43.6125 13.42 43.845 13.755 44.145C14.095 44.44 14.3475 44.7975 14.5125 45.2175C14.6775 45.6325 14.76 46.0925 14.76 46.5975C14.76 47.1125 14.6725 47.585 14.4975 48.015C14.3225 48.44 14.0625 48.8075 13.7175 49.1175C13.3725 49.4225 12.9425 49.6625 12.4275 49.8375C11.9175 50.0075 11.3225 50.0925 10.6425 50.0925H9.0375V54H7.2825V43.2H10.6425ZM19.0644 46.23C19.6294 46.23 20.1394 46.3225 20.5944 46.5075C21.0544 46.6925 21.4444 46.955 21.7644 47.295C22.0894 47.635 22.3394 48.0475 22.5144 48.5325C22.6894 49.0175 22.7769 49.5625 22.7769 50.1675C22.7769 50.7725 22.6894 51.3175 22.5144 51.8025C22.3394 52.2875 22.0894 52.7025 21.7644 53.0475C21.4444 53.3875 21.0544 53.65 20.5944 53.835C20.1394 54.02 19.6294 54.1125 19.0644 54.1125C18.4944 54.1125 17.9794 54.02 17.5194 53.835C17.0644 53.65 16.6744 53.3875 16.3494 53.0475C16.0244 52.7025 15.7744 52.2875 15.5994 51.8025C15.4244 51.3175 15.3369 50.7725 15.3369 50.1675C15.3369 49.5625 15.4244 49.0175 15.5994 48.5325C15.7744 48.0475 16.0244 47.635 16.3494 47.295C16.6744 46.955 17.0644 46.6925 17.5194 46.5075C17.9794 46.3225 18.4944 46.23 19.0644 46.23ZM19.0644 52.8525C19.7544 52.8525 20.2669 52.6225 20.6019 52.1625C20.9419 51.6975 21.1119 51.035 21.1119 50.175C21.1119 49.315 20.9419 48.6525 20.6019 48.1875C20.2669 47.7175 19.7544 47.4825 19.0644 47.4825C18.3644 47.4825 17.8444 47.7175 17.5044 48.1875C17.1644 48.6525 16.9944 49.315 16.9944 50.175C16.9944 51.035 17.1644 51.6975 17.5044 52.1625C17.8444 52.6225 18.3644 52.8525 19.0644 52.8525ZM25.9688 42.9V54H24.3563V42.9H25.9688ZM29.6391 46.35V54H28.0266V46.35H29.6391ZM29.9091 44.04C29.9091 44.185 29.8791 44.3225 29.8191 44.4525C29.7641 44.5825 29.6866 44.6975 29.5866 44.7975C29.4866 44.8925 29.3691 44.97 29.2341 45.03C29.1041 45.085 28.9641 45.1125 28.8141 45.1125C28.6691 45.1125 28.5316 45.085 28.4016 45.03C28.2766 44.97 28.1666 44.8925 28.0716 44.7975C27.9766 44.6975 27.8991 44.5825 27.8391 44.4525C27.7841 44.3225 27.7566 44.185 27.7566 44.04C27.7566 43.89 27.7841 43.75 27.8391 43.62C27.8991 43.49 27.9766 43.3775 28.0716 43.2825C28.1666 43.1825 28.2766 43.105 28.4016 43.05C28.5316 42.99 28.6691 42.96 28.8141 42.96C28.9641 42.96 29.1041 42.99 29.2341 43.05C29.3691 43.105 29.4866 43.1825 29.5866 43.2825C29.6866 43.3775 29.7641 43.49 29.8191 43.62C29.8791 43.75 29.9091 43.89 29.9091 44.04ZM36.2326 47.7375C36.1926 47.8075 36.1476 47.8575 36.0976 47.8875C36.0476 47.9175 35.9851 47.9325 35.9101 47.9325C35.8251 47.9325 35.7326 47.9075 35.6326 47.8575C35.5326 47.8025 35.4151 47.7425 35.2801 47.6775C35.1451 47.6125 34.9851 47.555 34.8001 47.505C34.6201 47.45 34.4076 47.4225 34.1626 47.4225C33.9626 47.4225 33.7801 47.4475 33.6151 47.4975C33.4551 47.5425 33.3176 47.61 33.2026 47.7C33.0926 47.785 33.0076 47.8875 32.9476 48.0075C32.8876 48.1225 32.8576 48.2475 32.8576 48.3825C32.8576 48.5625 32.9126 48.7125 33.0226 48.8325C33.1326 48.9525 33.2776 49.0575 33.4576 49.1475C33.6376 49.2325 33.8426 49.31 34.0726 49.38C34.3026 49.45 34.5376 49.525 34.7776 49.605C35.0176 49.685 35.2526 49.7775 35.4826 49.8825C35.7126 49.9875 35.9176 50.1175 36.0976 50.2725C36.2776 50.4225 36.4226 50.6075 36.5326 50.8275C36.6426 51.0425 36.6976 51.305 36.6976 51.615C36.6976 51.975 36.6326 52.3075 36.5026 52.6125C36.3726 52.9175 36.1826 53.1825 35.9326 53.4075C35.6826 53.6325 35.3701 53.8075 34.9951 53.9325C34.6251 54.0575 34.2001 54.12 33.7201 54.12C33.4551 54.12 33.1976 54.095 32.9476 54.045C32.7026 54 32.4676 53.9375 32.2426 53.8575C32.0226 53.7725 31.8151 53.6725 31.6201 53.5575C31.4301 53.4425 31.2601 53.3175 31.1101 53.1825L31.4851 52.5675C31.5301 52.4925 31.5851 52.435 31.6501 52.395C31.7201 52.35 31.8051 52.3275 31.9051 52.3275C32.0101 52.3275 32.1126 52.3625 32.2126 52.4325C32.3176 52.4975 32.4376 52.57 32.5726 52.65C32.7126 52.73 32.8801 52.805 33.0751 52.875C33.2701 52.94 33.5126 52.9725 33.8026 52.9725C34.0426 52.9725 34.2501 52.945 34.4251 52.89C34.6001 52.83 34.7451 52.75 34.8601 52.65C34.9751 52.55 35.0601 52.4375 35.1151 52.3125C35.1701 52.1825 35.1976 52.045 35.1976 51.9C35.1976 51.705 35.1426 51.545 35.0326 51.42C34.9226 51.295 34.7751 51.1875 34.5901 51.0975C34.4101 51.0075 34.2026 50.9275 33.9676 50.8575C33.7376 50.7875 33.5026 50.7125 33.2626 50.6325C33.0226 50.5525 32.7851 50.46 32.5501 50.355C32.3201 50.25 32.1126 50.1175 31.9276 49.9575C31.7476 49.7925 31.6026 49.595 31.4926 49.365C31.3826 49.13 31.3276 48.845 31.3276 48.51C31.3276 48.205 31.3876 47.915 31.5076 47.64C31.6326 47.365 31.8126 47.1225 32.0476 46.9125C32.2876 46.7025 32.5801 46.5375 32.9251 46.4175C33.2751 46.2925 33.6776 46.23 34.1326 46.23C34.6476 46.23 35.1151 46.3125 35.5351 46.4775C35.9551 46.6425 36.3076 46.8675 36.5926 47.1525L36.2326 47.7375ZM39.8255 47.2575C40.1405 46.9475 40.4855 46.7 40.8605 46.515C41.2355 46.325 41.673 46.23 42.173 46.23C42.593 46.23 42.9605 46.3 43.2755 46.44C43.5955 46.58 43.863 46.7775 44.078 47.0325C44.298 47.2875 44.463 47.595 44.573 47.955C44.683 48.31 44.738 48.7025 44.738 49.1325V54H43.133V49.1325C43.133 48.6175 43.013 48.2175 42.773 47.9325C42.538 47.6475 42.178 47.505 41.693 47.505C41.333 47.505 40.998 47.5875 40.688 47.7525C40.383 47.9175 40.0955 48.1425 39.8255 48.4275V54H38.213V42.9H39.8255V47.2575ZM51.6387 49.3125C51.6387 49.0425 51.5987 48.7925 51.5187 48.5625C51.4437 48.3275 51.3312 48.125 51.1812 47.955C51.0312 47.78 50.8437 47.645 50.6187 47.55C50.3987 47.45 50.1437 47.4 49.8537 47.4C49.2687 47.4 48.8087 47.5675 48.4737 47.9025C48.1387 48.2375 47.9262 48.7075 47.8362 49.3125H51.6387ZM47.7912 50.3025C47.8112 50.7375 47.8787 51.115 47.9937 51.435C48.1087 51.75 48.2612 52.0125 48.4512 52.2225C48.6462 52.4325 48.8762 52.59 49.1412 52.695C49.4112 52.795 49.7112 52.845 50.0412 52.845C50.3562 52.845 50.6287 52.81 50.8587 52.74C51.0887 52.665 51.2887 52.585 51.4587 52.5C51.6287 52.41 51.7737 52.33 51.8937 52.26C52.0137 52.185 52.1237 52.1475 52.2237 52.1475C52.3537 52.1475 52.4537 52.1975 52.5237 52.2975L52.9812 52.89C52.7912 53.115 52.5762 53.305 52.3362 53.46C52.0962 53.615 51.8412 53.7425 51.5712 53.8425C51.3012 53.9375 51.0237 54.005 50.7387 54.045C50.4537 54.09 50.1762 54.1125 49.9062 54.1125C49.3762 54.1125 48.8837 54.025 48.4287 53.85C47.9787 53.67 47.5862 53.4075 47.2512 53.0625C46.9212 52.7175 46.6612 52.29 46.4712 51.78C46.2862 51.27 46.1937 50.6825 46.1937 50.0175C46.1937 49.4875 46.2762 48.9925 46.4412 48.5325C46.6112 48.0725 46.8512 47.6725 47.1612 47.3325C47.4762 46.9925 47.8562 46.725 48.3012 46.53C48.7512 46.33 49.2587 46.23 49.8237 46.23C50.2937 46.23 50.7287 46.3075 51.1287 46.4625C51.5287 46.6125 51.8737 46.835 52.1637 47.13C52.4537 47.425 52.6787 47.7875 52.8387 48.2175C53.0037 48.6425 53.0862 49.1275 53.0862 49.6725C53.0862 49.9225 53.0587 50.09 53.0037 50.175C52.9487 50.26 52.8487 50.3025 52.7037 50.3025H47.7912ZM59.4724 48.2325C59.2474 47.9425 58.9999 47.74 58.7299 47.625C58.4599 47.51 58.1674 47.4525 57.8524 47.4525C57.2224 47.4525 56.7299 47.685 56.3749 48.15C56.0199 48.61 55.8424 49.2925 55.8424 50.1975C55.8424 50.6675 55.8824 51.07 55.9624 51.405C56.0424 51.735 56.1574 52.005 56.3074 52.215C56.4574 52.425 56.6399 52.5775 56.8549 52.6725C57.0699 52.7675 57.3124 52.815 57.5824 52.815C57.9924 52.815 58.3449 52.7275 58.6399 52.5525C58.9399 52.3725 59.2174 52.12 59.4724 51.795V48.2325ZM61.0849 42.9V54H60.1099C59.8949 54 59.7574 53.8975 59.6974 53.6925L59.5549 52.86C59.2349 53.235 58.8699 53.5375 58.4599 53.7675C58.0549 53.9975 57.5824 54.1125 57.0424 54.1125C56.6124 54.1125 56.2224 54.0275 55.8724 53.8575C55.5224 53.6825 55.2224 53.43 54.9724 53.1C54.7224 52.77 54.5274 52.3625 54.3874 51.8775C54.2524 51.3875 54.1849 50.8275 54.1849 50.1975C54.1849 49.6275 54.2599 49.1 54.4099 48.615C54.5649 48.13 54.7849 47.71 55.0699 47.355C55.3549 46.995 55.6999 46.715 56.1049 46.515C56.5149 46.31 56.9724 46.2075 57.4774 46.2075C57.9274 46.2075 58.3099 46.28 58.6249 46.425C58.9399 46.565 59.2224 46.7625 59.4724 47.0175V42.9H61.0849ZM12.93 57.045C12.875 57.135 12.8175 57.2025 12.7575 57.2475C12.6975 57.2875 12.6225 57.3075 12.5325 57.3075C12.4375 57.3075 12.33 57.2675 12.21 57.1875C12.095 57.1075 11.95 57.02 11.775 56.925C11.605 56.825 11.4025 56.735 11.1675 56.655C10.9325 56.57 10.6525 56.5275 10.3275 56.5275C10.0275 56.5275 9.7625 56.565 9.5325 56.64C9.3075 56.715 9.1175 56.82 8.9625 56.955C8.8075 57.09 8.69 57.25 8.61 57.435C8.535 57.615 8.4975 57.8125 8.4975 58.0275C8.4975 58.3025 8.57 58.5325 8.715 58.7175C8.86 58.8975 9.05 59.0525 9.285 59.1825C9.525 59.3125 9.7975 59.4275 10.1025 59.5275C10.4075 59.6225 10.7175 59.725 11.0325 59.835C11.3525 59.945 11.665 60.07 11.97 60.21C12.275 60.35 12.545 60.5275 12.78 60.7425C13.02 60.9575 13.2125 61.22 13.3575 61.53C13.5025 61.84 13.575 62.2175 13.575 62.6625C13.575 63.1425 13.4925 63.5925 13.3275 64.0125C13.1625 64.4325 12.9225 64.8 12.6075 65.115C12.2975 65.425 11.9125 65.67 11.4525 65.85C10.9975 66.03 10.4775 66.12 9.8925 66.12C9.5475 66.12 9.21 66.085 8.88 66.015C8.555 65.95 8.2425 65.8575 7.9425 65.7375C7.6475 65.6125 7.37 65.4625 7.11 65.2875C6.85 65.1125 6.6175 64.9175 6.4125 64.7025L6.9225 63.8625C6.9675 63.7925 7.025 63.7375 7.095 63.6975C7.165 63.6575 7.2425 63.6375 7.3275 63.6375C7.4425 63.6375 7.57 63.6925 7.71 63.8025C7.85 63.9075 8.0175 64.025 8.2125 64.155C8.4125 64.28 8.6525 64.3975 8.9325 64.5075C9.2125 64.6125 9.5475 64.665 9.9375 64.665C10.5725 64.665 11.0625 64.51 11.4075 64.2C11.7575 63.89 11.9325 63.4625 11.9325 62.9175C11.9325 62.6125 11.86 62.365 11.715 62.175C11.57 61.98 11.3775 61.8175 11.1375 61.6875C10.9025 61.5575 10.6325 61.4475 10.3275 61.3575C10.0225 61.2675 9.7125 61.1725 9.3975 61.0725C9.0825 60.9675 8.7725 60.8475 8.4675 60.7125C8.1625 60.5725 7.89 60.3925 7.65 60.1725C7.415 59.9475 7.225 59.6725 7.08 59.3475C6.935 59.0175 6.8625 58.6075 6.8625 58.1175C6.8625 57.7275 6.9375 57.35 7.0875 56.985C7.2425 56.62 7.465 56.2975 7.755 56.0175C8.05 55.7325 8.4125 55.505 8.8425 55.335C9.2725 55.165 9.7625 55.08 10.3125 55.08C10.9325 55.08 11.5 55.1775 12.015 55.3725C12.535 55.5675 12.9825 55.845 13.3575 56.205L12.93 57.045ZM17.2866 66.12C16.6516 66.12 16.1616 65.9425 15.8166 65.5875C15.4766 65.2275 15.3066 64.7225 15.3066 64.0725V59.6175H14.4666C14.3766 59.6175 14.2991 59.59 14.2341 59.535C14.1691 59.475 14.1366 59.3875 14.1366 59.2725V58.62L15.3741 58.44L15.7266 56.2275C15.7516 56.1425 15.7941 56.075 15.8541 56.025C15.9141 55.97 15.9941 55.9425 16.0941 55.9425H16.9191V58.455H19.0416V59.6175H16.9191V63.96C16.9191 64.235 16.9866 64.445 17.1216 64.59C17.2566 64.735 17.4366 64.8075 17.6616 64.8075C17.7866 64.8075 17.8941 64.7925 17.9841 64.7625C18.0741 64.7275 18.1516 64.6925 18.2166 64.6575C18.2816 64.6175 18.3366 64.5825 18.3816 64.5525C18.4316 64.5175 18.4791 64.5 18.5241 64.5C18.6141 64.5 18.6866 64.55 18.7416 64.65L19.2216 65.4375C18.9716 65.6575 18.6766 65.8275 18.3366 65.9475C17.9966 66.0625 17.6466 66.12 17.2866 66.12ZM24.4001 62.655C23.8251 62.675 23.3401 62.7225 22.9451 62.7975C22.5501 62.8675 22.2301 62.96 21.9851 63.075C21.7401 63.185 21.5626 63.3175 21.4526 63.4725C21.3476 63.6275 21.2951 63.7975 21.2951 63.9825C21.2951 64.1625 21.3226 64.3175 21.3776 64.4475C21.4376 64.5725 21.5176 64.6775 21.6176 64.7625C21.7226 64.8425 21.8426 64.9025 21.9776 64.9425C22.1176 64.9775 22.2701 64.995 22.4351 64.995C22.8551 64.995 23.2151 64.9175 23.5151 64.7625C23.8201 64.6025 24.1151 64.3725 24.4001 64.0725V62.655ZM20.1251 59.415C20.9901 58.61 22.0201 58.2075 23.2151 58.2075C23.6551 58.2075 24.0451 58.28 24.3851 58.425C24.7301 58.565 25.0176 58.765 25.2476 59.025C25.4826 59.285 25.6601 59.595 25.7801 59.955C25.9051 60.31 25.9676 60.705 25.9676 61.14V66H25.2476C25.0926 66 24.9751 65.9775 24.8951 65.9325C24.8151 65.8825 24.7476 65.785 24.6926 65.64L24.5351 65.0175C24.3401 65.1925 24.1476 65.35 23.9576 65.49C23.7676 65.625 23.5701 65.74 23.3651 65.835C23.1651 65.93 22.9476 66 22.7126 66.045C22.4826 66.095 22.2276 66.12 21.9476 66.12C21.6376 66.12 21.3476 66.0775 21.0776 65.9925C20.8126 65.9075 20.5826 65.78 20.3876 65.61C20.1926 65.435 20.0376 65.22 19.9226 64.965C19.8126 64.71 19.7576 64.41 19.7576 64.065C19.7576 63.77 19.8351 63.4825 19.9901 63.2025C20.1501 62.9225 20.4101 62.6725 20.7701 62.4525C21.1351 62.2275 21.6126 62.0425 22.2026 61.8975C22.7976 61.7525 23.5301 61.67 24.4001 61.65V61.14C24.4001 60.59 24.2826 60.18 24.0476 59.91C23.8126 59.64 23.4676 59.505 23.0126 59.505C22.7026 59.505 22.4426 59.545 22.2326 59.625C22.0226 59.7 21.8401 59.7825 21.6851 59.8725C21.5301 59.9625 21.3926 60.0475 21.2726 60.1275C21.1526 60.2025 21.0251 60.24 20.8901 60.24C20.7801 60.24 20.6851 60.2125 20.6051 60.1575C20.5301 60.0975 20.4676 60.025 20.4176 59.94L20.1251 59.415ZM29.5365 58.35V66H27.924V58.35H29.5365ZM29.8065 56.04C29.8065 56.185 29.7765 56.3225 29.7165 56.4525C29.6615 56.5825 29.584 56.6975 29.484 56.7975C29.384 56.8925 29.2665 56.97 29.1315 57.03C29.0015 57.085 28.8615 57.1125 28.7115 57.1125C28.5665 57.1125 28.429 57.085 28.299 57.03C28.174 56.97 28.064 56.8925 27.969 56.7975C27.874 56.6975 27.7965 56.5825 27.7365 56.4525C27.6815 56.3225 27.654 56.185 27.654 56.04C27.654 55.89 27.6815 55.75 27.7365 55.62C27.7965 55.49 27.874 55.3775 27.969 55.2825C28.064 55.1825 28.174 55.105 28.299 55.05C28.429 54.99 28.5665 54.96 28.7115 54.96C28.8615 54.96 29.0015 54.99 29.1315 55.05C29.2665 55.105 29.384 55.1825 29.484 55.2825C29.584 55.3775 29.6615 55.49 29.7165 55.62C29.7765 55.75 29.8065 55.89 29.8065 56.04ZM33.0701 59.3625C33.2351 59.1925 33.4051 59.04 33.5801 58.905C33.7601 58.765 33.9501 58.645 34.1501 58.545C34.3501 58.445 34.5626 58.3675 34.7876 58.3125C35.0126 58.2575 35.2576 58.23 35.5226 58.23C35.9426 58.23 36.3101 58.3 36.6251 58.44C36.9451 58.58 37.2126 58.7775 37.4276 59.0325C37.6476 59.2875 37.8126 59.595 37.9226 59.955C38.0326 60.31 38.0876 60.7025 38.0876 61.1325V66H36.4826V61.1325C36.4826 60.6175 36.3626 60.2175 36.1226 59.9325C35.8876 59.6475 35.5276 59.505 35.0426 59.505C34.6826 59.505 34.3476 59.5875 34.0376 59.7525C33.7326 59.9175 33.4451 60.1425 33.1751 60.4275V66H31.5626V58.35H32.5376C32.7576 58.35 32.8976 58.4525 32.9576 58.6575L33.0701 59.3625ZM41.6133 54.9V66H40.0008V54.9H41.6133ZM48.6211 61.3125C48.6211 61.0425 48.5811 60.7925 48.5011 60.5625C48.4261 60.3275 48.3136 60.125 48.1636 59.955C48.0136 59.78 47.8261 59.645 47.6011 59.55C47.3811 59.45 47.1261 59.4 46.8361 59.4C46.2511 59.4 45.7911 59.5675 45.4561 59.9025C45.1211 60.2375 44.9086 60.7075 44.8186 61.3125H48.6211ZM44.7736 62.3025C44.7936 62.7375 44.8611 63.115 44.9761 63.435C45.0911 63.75 45.2436 64.0125 45.4336 64.2225C45.6286 64.4325 45.8586 64.59 46.1236 64.695C46.3936 64.795 46.6936 64.845 47.0236 64.845C47.3386 64.845 47.6111 64.81 47.8411 64.74C48.0711 64.665 48.2711 64.585 48.4411 64.5C48.6111 64.41 48.7561 64.33 48.8761 64.26C48.9961 64.185 49.1061 64.1475 49.2061 64.1475C49.3361 64.1475 49.4361 64.1975 49.5061 64.2975L49.9636 64.89C49.7736 65.115 49.5586 65.305 49.3186 65.46C49.0786 65.615 48.8236 65.7425 48.5536 65.8425C48.2836 65.9375 48.0061 66.005 47.7211 66.045C47.4361 66.09 47.1586 66.1125 46.8886 66.1125C46.3586 66.1125 45.8661 66.025 45.4111 65.85C44.9611 65.67 44.5686 65.4075 44.2336 65.0625C43.9036 64.7175 43.6436 64.29 43.4536 63.78C43.2686 63.27 43.1761 62.6825 43.1761 62.0175C43.1761 61.4875 43.2586 60.9925 43.4236 60.5325C43.5936 60.0725 43.8336 59.6725 44.1436 59.3325C44.4586 58.9925 44.8386 58.725 45.2836 58.53C45.7336 58.33 46.2411 58.23 46.8061 58.23C47.2761 58.23 47.7111 58.3075 48.1111 58.4625C48.5111 58.6125 48.8561 58.835 49.1461 59.13C49.4361 59.425 49.6611 59.7875 49.8211 60.2175C49.9861 60.6425 50.0686 61.1275 50.0686 61.6725C50.0686 61.9225 50.0411 62.09 49.9861 62.175C49.9311 62.26 49.8311 62.3025 49.6861 62.3025H44.7736ZM56.1398 59.7375C56.0998 59.8075 56.0548 59.8575 56.0048 59.8875C55.9548 59.9175 55.8923 59.9325 55.8173 59.9325C55.7323 59.9325 55.6398 59.9075 55.5398 59.8575C55.4398 59.8025 55.3223 59.7425 55.1873 59.6775C55.0523 59.6125 54.8923 59.555 54.7073 59.505C54.5273 59.45 54.3148 59.4225 54.0698 59.4225C53.8698 59.4225 53.6873 59.4475 53.5223 59.4975C53.3623 59.5425 53.2248 59.61 53.1098 59.7C52.9998 59.785 52.9148 59.8875 52.8548 60.0075C52.7948 60.1225 52.7648 60.2475 52.7648 60.3825C52.7648 60.5625 52.8198 60.7125 52.9298 60.8325C53.0398 60.9525 53.1848 61.0575 53.3648 61.1475C53.5448 61.2325 53.7498 61.31 53.9798 61.38C54.2098 61.45 54.4448 61.525 54.6848 61.605C54.9248 61.685 55.1598 61.7775 55.3898 61.8825C55.6198 61.9875 55.8248 62.1175 56.0048 62.2725C56.1848 62.4225 56.3298 62.6075 56.4398 62.8275C56.5498 63.0425 56.6048 63.305 56.6048 63.615C56.6048 63.975 56.5398 64.3075 56.4098 64.6125C56.2798 64.9175 56.0898 65.1825 55.8398 65.4075C55.5898 65.6325 55.2773 65.8075 54.9023 65.9325C54.5323 66.0575 54.1073 66.12 53.6273 66.12C53.3623 66.12 53.1048 66.095 52.8548 66.045C52.6098 66 52.3748 65.9375 52.1498 65.8575C51.9298 65.7725 51.7223 65.6725 51.5273 65.5575C51.3373 65.4425 51.1673 65.3175 51.0173 65.1825L51.3923 64.5675C51.4373 64.4925 51.4923 64.435 51.5573 64.395C51.6273 64.35 51.7123 64.3275 51.8123 64.3275C51.9173 64.3275 52.0198 64.3625 52.1198 64.4325C52.2248 64.4975 52.3448 64.57 52.4798 64.65C52.6198 64.73 52.7873 64.805 52.9823 64.875C53.1773 64.94 53.4198 64.9725 53.7098 64.9725C53.9498 64.9725 54.1573 64.945 54.3323 64.89C54.5073 64.83 54.6523 64.75 54.7673 64.65C54.8823 64.55 54.9673 64.4375 55.0223 64.3125C55.0773 64.1825 55.1048 64.045 55.1048 63.9C55.1048 63.705 55.0498 63.545 54.9398 63.42C54.8298 63.295 54.6823 63.1875 54.4973 63.0975C54.3173 63.0075 54.1098 62.9275 53.8748 62.8575C53.6448 62.7875 53.4098 62.7125 53.1698 62.6325C52.9298 62.5525 52.6923 62.46 52.4573 62.355C52.2273 62.25 52.0198 62.1175 51.8348 61.9575C51.6548 61.7925 51.5098 61.595 51.3998 61.365C51.2898 61.13 51.2348 60.845 51.2348 60.51C51.2348 60.205 51.2948 59.915 51.4148 59.64C51.5398 59.365 51.7198 59.1225 51.9548 58.9125C52.1948 58.7025 52.4873 58.5375 52.8323 58.4175C53.1823 58.2925 53.5848 58.23 54.0398 58.23C54.5548 58.23 55.0223 58.3125 55.4423 58.4775C55.8623 58.6425 56.2148 58.8675 56.4998 59.1525L56.1398 59.7375ZM62.6877 59.7375C62.6477 59.8075 62.6027 59.8575 62.5527 59.8875C62.5027 59.9175 62.4402 59.9325 62.3652 59.9325C62.2802 59.9325 62.1877 59.9075 62.0877 59.8575C61.9877 59.8025 61.8702 59.7425 61.7352 59.6775C61.6002 59.6125 61.4402 59.555 61.2552 59.505C61.0752 59.45 60.8627 59.4225 60.6177 59.4225C60.4177 59.4225 60.2352 59.4475 60.0702 59.4975C59.9102 59.5425 59.7727 59.61 59.6577 59.7C59.5477 59.785 59.4627 59.8875 59.4027 60.0075C59.3427 60.1225 59.3127 60.2475 59.3127 60.3825C59.3127 60.5625 59.3677 60.7125 59.4777 60.8325C59.5877 60.9525 59.7327 61.0575 59.9127 61.1475C60.0927 61.2325 60.2977 61.31 60.5277 61.38C60.7577 61.45 60.9927 61.525 61.2327 61.605C61.4727 61.685 61.7077 61.7775 61.9377 61.8825C62.1677 61.9875 62.3727 62.1175 62.5527 62.2725C62.7327 62.4225 62.8777 62.6075 62.9877 62.8275C63.0977 63.0425 63.1527 63.305 63.1527 63.615C63.1527 63.975 63.0877 64.3075 62.9577 64.6125C62.8277 64.9175 62.6377 65.1825 62.3877 65.4075C62.1377 65.6325 61.8252 65.8075 61.4502 65.9325C61.0802 66.0575 60.6552 66.12 60.1752 66.12C59.9102 66.12 59.6527 66.095 59.4027 66.045C59.1577 66 58.9227 65.9375 58.6977 65.8575C58.4777 65.7725 58.2702 65.6725 58.0752 65.5575C57.8852 65.4425 57.7152 65.3175 57.5652 65.1825L57.9402 64.5675C57.9852 64.4925 58.0402 64.435 58.1052 64.395C58.1752 64.35 58.2602 64.3275 58.3602 64.3275C58.4652 64.3275 58.5677 64.3625 58.6677 64.4325C58.7727 64.4975 58.8927 64.57 59.0277 64.65C59.1677 64.73 59.3352 64.805 59.5302 64.875C59.7252 64.94 59.9677 64.9725 60.2577 64.9725C60.4977 64.9725 60.7052 64.945 60.8802 64.89C61.0552 64.83 61.2002 64.75 61.3152 64.65C61.4302 64.55 61.5152 64.4375 61.5702 64.3125C61.6252 64.1825 61.6527 64.045 61.6527 63.9C61.6527 63.705 61.5977 63.545 61.4877 63.42C61.3777 63.295 61.2302 63.1875 61.0452 63.0975C60.8652 63.0075 60.6577 62.9275 60.4227 62.8575C60.1927 62.7875 59.9577 62.7125 59.7177 62.6325C59.4777 62.5525 59.2402 62.46 59.0052 62.355C58.7752 62.25 58.5677 62.1175 58.3827 61.9575C58.2027 61.7925 58.0577 61.595 57.9477 61.365C57.8377 61.13 57.7827 60.845 57.7827 60.51C57.7827 60.205 57.8427 59.915 57.9627 59.64C58.0877 59.365 58.2677 59.1225 58.5027 58.9125C58.7427 58.7025 59.0352 58.5375 59.3802 58.4175C59.7302 58.2925 60.1327 58.23 60.5877 58.23C61.1027 58.23 61.5702 58.3125 61.9902 58.4775C62.4102 58.6425 62.7627 58.8675 63.0477 59.1525L62.6877 59.7375ZM74.3509 57.045C74.2959 57.135 74.2384 57.2025 74.1784 57.2475C74.1184 57.2875 74.0434 57.3075 73.9534 57.3075C73.8584 57.3075 73.7509 57.2675 73.6309 57.1875C73.5159 57.1075 73.3709 57.02 73.1959 56.925C73.0259 56.825 72.8234 56.735 72.5884 56.655C72.3534 56.57 72.0734 56.5275 71.7484 56.5275C71.4484 56.5275 71.1834 56.565 70.9534 56.64C70.7284 56.715 70.5384 56.82 70.3834 56.955C70.2284 57.09 70.1109 57.25 70.0309 57.435C69.9559 57.615 69.9184 57.8125 69.9184 58.0275C69.9184 58.3025 69.9909 58.5325 70.1359 58.7175C70.2809 58.8975 70.4709 59.0525 70.7059 59.1825C70.9459 59.3125 71.2184 59.4275 71.5234 59.5275C71.8284 59.6225 72.1384 59.725 72.4534 59.835C72.7734 59.945 73.0859 60.07 73.3909 60.21C73.6959 60.35 73.9659 60.5275 74.2009 60.7425C74.4409 60.9575 74.6334 61.22 74.7784 61.53C74.9234 61.84 74.9959 62.2175 74.9959 62.6625C74.9959 63.1425 74.9134 63.5925 74.7484 64.0125C74.5834 64.4325 74.3434 64.8 74.0284 65.115C73.7184 65.425 73.3334 65.67 72.8734 65.85C72.4184 66.03 71.8984 66.12 71.3134 66.12C70.9684 66.12 70.6309 66.085 70.3009 66.015C69.9759 65.95 69.6634 65.8575 69.3634 65.7375C69.0684 65.6125 68.7909 65.4625 68.5309 65.2875C68.2709 65.1125 68.0384 64.9175 67.8334 64.7025L68.3434 63.8625C68.3884 63.7925 68.4459 63.7375 68.5159 63.6975C68.5859 63.6575 68.6634 63.6375 68.7484 63.6375C68.8634 63.6375 68.9909 63.6925 69.1309 63.8025C69.2709 63.9075 69.4384 64.025 69.6334 64.155C69.8334 64.28 70.0734 64.3975 70.3534 64.5075C70.6334 64.6125 70.9684 64.665 71.3584 64.665C71.9934 64.665 72.4834 64.51 72.8284 64.2C73.1784 63.89 73.3534 63.4625 73.3534 62.9175C73.3534 62.6125 73.2809 62.365 73.1359 62.175C72.9909 61.98 72.7984 61.8175 72.5584 61.6875C72.3234 61.5575 72.0534 61.4475 71.7484 61.3575C71.4434 61.2675 71.1334 61.1725 70.8184 61.0725C70.5034 60.9675 70.1934 60.8475 69.8884 60.7125C69.5834 60.5725 69.3109 60.3925 69.0709 60.1725C68.8359 59.9475 68.6459 59.6725 68.5009 59.3475C68.3559 59.0175 68.2834 58.6075 68.2834 58.1175C68.2834 57.7275 68.3584 57.35 68.5084 56.985C68.6634 56.62 68.8859 56.2975 69.1759 56.0175C69.4709 55.7325 69.8334 55.505 70.2634 55.335C70.6934 55.165 71.1834 55.08 71.7334 55.08C72.3534 55.08 72.9209 55.1775 73.4359 55.3725C73.9559 55.5675 74.4034 55.845 74.7784 56.205L74.3509 57.045ZM78.7075 66.12C78.0725 66.12 77.5825 65.9425 77.2375 65.5875C76.8975 65.2275 76.7275 64.7225 76.7275 64.0725V59.6175H75.8875C75.7975 59.6175 75.72 59.59 75.655 59.535C75.59 59.475 75.5575 59.3875 75.5575 59.2725V58.62L76.795 58.44L77.1475 56.2275C77.1725 56.1425 77.215 56.075 77.275 56.025C77.335 55.97 77.415 55.9425 77.515 55.9425H78.34V58.455H80.4625V59.6175H78.34V63.96C78.34 64.235 78.4075 64.445 78.5425 64.59C78.6775 64.735 78.8575 64.8075 79.0825 64.8075C79.2075 64.8075 79.315 64.7925 79.405 64.7625C79.495 64.7275 79.5725 64.6925 79.6375 64.6575C79.7025 64.6175 79.7575 64.5825 79.8025 64.5525C79.8525 64.5175 79.9 64.5 79.945 64.5C80.035 64.5 80.1075 64.55 80.1625 64.65L80.6425 65.4375C80.3925 65.6575 80.0975 65.8275 79.7575 65.9475C79.4175 66.0625 79.0675 66.12 78.7075 66.12ZM86.6924 61.3125C86.6924 61.0425 86.6524 60.7925 86.5724 60.5625C86.4974 60.3275 86.3849 60.125 86.2349 59.955C86.0849 59.78 85.8974 59.645 85.6724 59.55C85.4524 59.45 85.1974 59.4 84.9074 59.4C84.3224 59.4 83.8624 59.5675 83.5274 59.9025C83.1924 60.2375 82.9799 60.7075 82.8899 61.3125H86.6924ZM82.8449 62.3025C82.8649 62.7375 82.9324 63.115 83.0474 63.435C83.1624 63.75 83.3149 64.0125 83.5049 64.2225C83.6999 64.4325 83.9299 64.59 84.1949 64.695C84.4649 64.795 84.7649 64.845 85.0949 64.845C85.4099 64.845 85.6824 64.81 85.9124 64.74C86.1424 64.665 86.3424 64.585 86.5124 64.5C86.6824 64.41 86.8274 64.33 86.9474 64.26C87.0674 64.185 87.1774 64.1475 87.2774 64.1475C87.4074 64.1475 87.5074 64.1975 87.5774 64.2975L88.0349 64.89C87.8449 65.115 87.6299 65.305 87.3899 65.46C87.1499 65.615 86.8949 65.7425 86.6249 65.8425C86.3549 65.9375 86.0774 66.005 85.7924 66.045C85.5074 66.09 85.2299 66.1125 84.9599 66.1125C84.4299 66.1125 83.9374 66.025 83.4824 65.85C83.0324 65.67 82.6399 65.4075 82.3049 65.0625C81.9749 64.7175 81.7149 64.29 81.5249 63.78C81.3399 63.27 81.2474 62.6825 81.2474 62.0175C81.2474 61.4875 81.3299 60.9925 81.4949 60.5325C81.6649 60.0725 81.9049 59.6725 82.2149 59.3325C82.5299 58.9925 82.9099 58.725 83.3549 58.53C83.8049 58.33 84.3124 58.23 84.8774 58.23C85.3474 58.23 85.7824 58.3075 86.1824 58.4625C86.5824 58.6125 86.9274 58.835 87.2174 59.13C87.5074 59.425 87.7324 59.7875 87.8924 60.2175C88.0574 60.6425 88.1399 61.1275 88.1399 61.6725C88.1399 61.9225 88.1124 62.09 88.0574 62.175C88.0024 62.26 87.9024 62.3025 87.7574 62.3025H82.8449ZM94.6611 61.3125C94.6611 61.0425 94.6211 60.7925 94.5411 60.5625C94.4661 60.3275 94.3536 60.125 94.2036 59.955C94.0536 59.78 93.8661 59.645 93.6411 59.55C93.4211 59.45 93.1661 59.4 92.8761 59.4C92.2911 59.4 91.8311 59.5675 91.4961 59.9025C91.1611 60.2375 90.9486 60.7075 90.8586 61.3125H94.6611ZM90.8136 62.3025C90.8336 62.7375 90.9011 63.115 91.0161 63.435C91.1311 63.75 91.2836 64.0125 91.4736 64.2225C91.6686 64.4325 91.8986 64.59 92.1636 64.695C92.4336 64.795 92.7336 64.845 93.0636 64.845C93.3786 64.845 93.6511 64.81 93.8811 64.74C94.1111 64.665 94.3111 64.585 94.4811 64.5C94.6511 64.41 94.7961 64.33 94.9161 64.26C95.0361 64.185 95.1461 64.1475 95.2461 64.1475C95.3761 64.1475 95.4761 64.1975 95.5461 64.2975L96.0036 64.89C95.8136 65.115 95.5986 65.305 95.3586 65.46C95.1186 65.615 94.8636 65.7425 94.5936 65.8425C94.3236 65.9375 94.0461 66.005 93.7611 66.045C93.4761 66.09 93.1986 66.1125 92.9286 66.1125C92.3986 66.1125 91.9061 66.025 91.4511 65.85C91.0011 65.67 90.6086 65.4075 90.2736 65.0625C89.9436 64.7175 89.6836 64.29 89.4936 63.78C89.3086 63.27 89.2161 62.6825 89.2161 62.0175C89.2161 61.4875 89.2986 60.9925 89.4636 60.5325C89.6336 60.0725 89.8736 59.6725 90.1836 59.3325C90.4986 58.9925 90.8786 58.725 91.3236 58.53C91.7736 58.33 92.2811 58.23 92.8461 58.23C93.3161 58.23 93.7511 58.3075 94.1511 58.4625C94.5511 58.6125 94.8961 58.835 95.1861 59.13C95.4761 59.425 95.7011 59.7875 95.8611 60.2175C96.0261 60.6425 96.1086 61.1275 96.1086 61.6725C96.1086 61.9225 96.0811 62.09 96.0261 62.175C95.9711 62.26 95.8711 62.3025 95.7261 62.3025H90.8136ZM99.2549 54.9V66H97.6424V54.9H99.2549ZM14.7825 75.5925C14.8775 75.5925 14.96 75.63 15.03 75.705L15.7275 76.4625C15.2875 76.9925 14.7475 77.4025 14.1075 77.6925C13.4675 77.9775 12.7025 78.12 11.8125 78.12C11.0225 78.12 10.3075 77.985 9.6675 77.715C9.0325 77.44 8.49 77.06 8.04 76.575C7.59 76.085 7.2425 75.5025 6.9975 74.8275C6.7575 74.1525 6.6375 73.41 6.6375 72.6C6.6375 71.79 6.765 71.0475 7.02 70.3725C7.28 69.6925 7.6425 69.11 8.1075 68.625C8.5775 68.135 9.1375 67.755 9.7875 67.485C10.4425 67.215 11.1625 67.08 11.9475 67.08C12.7275 67.08 13.415 67.2075 14.01 67.4625C14.61 67.7125 15.13 68.0475 15.57 68.4675L14.9925 69.285C14.9525 69.34 14.905 69.3875 14.85 69.4275C14.795 69.4675 14.72 69.4875 14.625 69.4875C14.525 69.4875 14.41 69.4425 14.28 69.3525C14.155 69.2575 13.9925 69.155 13.7925 69.045C13.5975 68.93 13.35 68.8275 13.05 68.7375C12.755 68.6425 12.385 68.595 11.94 68.595C11.425 68.595 10.9525 68.685 10.5225 68.865C10.0925 69.045 9.7225 69.3075 9.4125 69.6525C9.1025 69.9975 8.86 70.4175 8.685 70.9125C8.515 71.4075 8.43 71.97 8.43 72.6C8.43 73.235 8.52 73.8025 8.7 74.3025C8.88 74.7975 9.1275 75.2175 9.4425 75.5625C9.7575 75.9025 10.1275 76.1625 10.5525 76.3425C10.9775 76.5225 11.435 76.6125 11.925 76.6125C12.225 76.6125 12.4925 76.5975 12.7275 76.5675C12.9675 76.5325 13.1875 76.48 13.3875 76.41C13.5875 76.335 13.775 76.2425 13.95 76.1325C14.13 76.0225 14.3075 75.8875 14.4825 75.7275C14.5825 75.6375 14.6825 75.5925 14.7825 75.5925ZM18.4366 71.7675C18.6766 71.2825 18.9666 70.9025 19.3066 70.6275C19.6466 70.3475 20.0541 70.2075 20.5291 70.2075C20.6941 70.2075 20.8491 70.2275 20.9941 70.2675C21.1391 70.3025 21.2691 70.3575 21.3841 70.4325L21.2716 71.6475C21.2516 71.7325 21.2191 71.7925 21.1741 71.8275C21.1341 71.8575 21.0791 71.8725 21.0091 71.8725C20.9341 71.8725 20.8266 71.86 20.6866 71.835C20.5466 71.805 20.3991 71.79 20.2441 71.79C20.0191 71.79 19.8191 71.8225 19.6441 71.8875C19.4741 71.9525 19.3191 72.0475 19.1791 72.1725C19.0441 72.2975 18.9241 72.45 18.8191 72.63C18.7141 72.81 18.6166 73.015 18.5266 73.245V78H16.9141V70.35H17.8516C18.0216 70.35 18.1391 70.3825 18.2041 70.4475C18.2691 70.5075 18.3141 70.615 18.3391 70.77L18.4366 71.7675ZM28.9013 70.35V78H27.9263C27.7113 78 27.5738 77.8975 27.5138 77.6925L27.3938 76.98C27.2338 77.15 27.0638 77.305 26.8838 77.445C26.7088 77.585 26.5213 77.705 26.3213 77.805C26.1213 77.905 25.9063 77.9825 25.6763 78.0375C25.4513 78.0925 25.2088 78.12 24.9488 78.12C24.5288 78.12 24.1588 78.05 23.8388 77.91C23.5188 77.77 23.2488 77.5725 23.0288 77.3175C22.8138 77.0625 22.6513 76.7575 22.5413 76.4025C22.4313 76.0425 22.3763 75.6475 22.3763 75.2175V70.35H23.9888V75.2175C23.9888 75.7325 24.1063 76.1325 24.3413 76.4175C24.5813 76.7025 24.9438 76.845 25.4287 76.845C25.7838 76.845 26.1138 76.765 26.4188 76.605C26.7288 76.44 27.0188 76.215 27.2888 75.93V70.35H28.9013ZM30.8595 78V70.35H31.8345C32.0545 70.35 32.1945 70.4525 32.2545 70.6575L32.3595 71.325C32.4995 71.165 32.6445 71.02 32.7945 70.89C32.9445 70.755 33.1045 70.64 33.2745 70.545C33.4495 70.445 33.6345 70.3675 33.8295 70.3125C34.0295 70.2575 34.2445 70.23 34.4745 70.23C34.7195 70.23 34.9445 70.265 35.1495 70.335C35.3545 70.405 35.5345 70.505 35.6895 70.635C35.8495 70.765 35.987 70.9225 36.102 71.1075C36.217 71.2925 36.312 71.5 36.387 71.73C36.502 71.465 36.647 71.2375 36.822 71.0475C36.997 70.8575 37.192 70.7025 37.407 70.5825C37.622 70.4625 37.8495 70.375 38.0895 70.32C38.3345 70.26 38.582 70.23 38.832 70.23C39.242 70.23 39.607 70.295 39.927 70.425C40.252 70.555 40.5245 70.745 40.7445 70.995C40.9695 71.24 41.1395 71.5425 41.2545 71.9025C41.3695 72.2625 41.427 72.6725 41.427 73.1325V78H39.8145V73.1325C39.8145 72.5925 39.697 72.1875 39.462 71.9175C39.232 71.6425 38.8895 71.505 38.4345 71.505C38.2295 71.505 38.037 71.54 37.857 71.61C37.677 71.68 37.5195 71.7825 37.3845 71.9175C37.2495 72.0525 37.142 72.2225 37.062 72.4275C36.987 72.6275 36.9495 72.8625 36.9495 73.1325V78H35.337V73.1325C35.337 72.5725 35.2245 72.1625 34.9995 71.9025C34.7745 71.6375 34.4445 71.505 34.0095 71.505C33.7095 71.505 33.432 71.5825 33.177 71.7375C32.922 71.8875 32.687 72.095 32.472 72.36V78H30.8595ZM44.9231 76.08C45.1481 76.37 45.3931 76.575 45.6581 76.695C45.9281 76.81 46.2206 76.8675 46.5356 76.8675C47.1706 76.8675 47.6656 76.6375 48.0206 76.1775C48.3756 75.7175 48.5531 75.005 48.5531 74.04C48.5531 73.16 48.3981 72.5175 48.0881 72.1125C47.7831 71.7075 47.3456 71.505 46.7756 71.505C46.3806 71.505 46.0356 71.595 45.7406 71.775C45.4506 71.95 45.1781 72.2025 44.9231 72.5325V76.08ZM44.9231 71.3625C45.2381 71.0175 45.5906 70.7425 45.9806 70.5375C46.3706 70.3325 46.8156 70.23 47.3156 70.23C47.7606 70.23 48.1606 70.3175 48.5156 70.4925C48.8756 70.6625 49.1806 70.91 49.4306 71.235C49.6806 71.56 49.8731 71.955 50.0081 72.42C50.1431 72.88 50.2106 73.4 50.2106 73.98C50.2106 74.6 50.1331 75.165 49.9781 75.675C49.8281 76.18 49.6106 76.615 49.3256 76.98C49.0406 77.34 48.6956 77.62 48.2906 77.82C47.8856 78.015 47.4331 78.1125 46.9331 78.1125C46.6881 78.1125 46.4656 78.0875 46.2656 78.0375C46.0656 77.9925 45.8806 77.925 45.7106 77.835C45.5406 77.745 45.3831 77.6375 45.2381 77.5125C45.0981 77.3875 44.9631 77.245 44.8331 77.085L44.7656 77.6775C44.7406 77.7925 44.6956 77.875 44.6306 77.925C44.5656 77.975 44.4756 78 44.3606 78H43.3106V66.9H44.9231V71.3625ZM62.7912 68.6625H59.4237V78H57.6762V68.6625H54.3012V67.2H62.7912V68.6625ZM63.9347 71.7675C64.1747 71.2825 64.4647 70.9025 64.8047 70.6275C65.1447 70.3475 65.5522 70.2075 66.0272 70.2075C66.1922 70.2075 66.3472 70.2275 66.4922 70.2675C66.6372 70.3025 66.7672 70.3575 66.8822 70.4325L66.7697 71.6475C66.7497 71.7325 66.7172 71.7925 66.6722 71.8275C66.6322 71.8575 66.5772 71.8725 66.5072 71.8725C66.4322 71.8725 66.3247 71.86 66.1847 71.835C66.0447 71.805 65.8972 71.79 65.7422 71.79C65.5172 71.79 65.3172 71.8225 65.1422 71.8875C64.9722 71.9525 64.8172 72.0475 64.6772 72.1725C64.5422 72.2975 64.4222 72.45 64.3172 72.63C64.2122 72.81 64.1147 73.015 64.0247 73.245V78H62.4122V70.35H63.3497C63.5197 70.35 63.6372 70.3825 63.7022 70.4475C63.7672 70.5075 63.8122 70.615 63.8372 70.77L63.9347 71.7675ZM71.9196 74.655C71.3446 74.675 70.8596 74.7225 70.4646 74.7975C70.0696 74.8675 69.7496 74.96 69.5046 75.075C69.2596 75.185 69.0821 75.3175 68.9721 75.4725C68.8671 75.6275 68.8146 75.7975 68.8146 75.9825C68.8146 76.1625 68.8421 76.3175 68.8971 76.4475C68.9571 76.5725 69.0371 76.6775 69.1371 76.7625C69.2421 76.8425 69.3621 76.9025 69.4971 76.9425C69.6371 76.9775 69.7896 76.995 69.9546 76.995C70.3746 76.995 70.7346 76.9175 71.0346 76.7625C71.3396 76.6025 71.6346 76.3725 71.9196 76.0725V74.655ZM67.6446 71.415C68.5096 70.61 69.5396 70.2075 70.7346 70.2075C71.1746 70.2075 71.5646 70.28 71.9046 70.425C72.2496 70.565 72.5371 70.765 72.7671 71.025C73.0021 71.285 73.1796 71.595 73.2996 71.955C73.4246 72.31 73.4871 72.705 73.4871 73.14V78H72.7671C72.6121 78 72.4946 77.9775 72.4146 77.9325C72.3346 77.8825 72.2671 77.785 72.2121 77.64L72.0546 77.0175C71.8596 77.1925 71.6671 77.35 71.4771 77.49C71.2871 77.625 71.0896 77.74 70.8846 77.835C70.6846 77.93 70.4671 78 70.2321 78.045C70.0021 78.095 69.7471 78.12 69.4671 78.12C69.1571 78.12 68.8671 78.0775 68.5971 77.9925C68.3321 77.9075 68.1021 77.78 67.9071 77.61C67.7121 77.435 67.5571 77.22 67.4421 76.965C67.3321 76.71 67.2771 76.41 67.2771 76.065C67.2771 75.77 67.3546 75.4825 67.5096 75.2025C67.6696 74.9225 67.9296 74.6725 68.2896 74.4525C68.6546 74.2275 69.1321 74.0425 69.7221 73.8975C70.3171 73.7525 71.0496 73.67 71.9196 73.65V73.14C71.9196 72.59 71.8021 72.18 71.5671 71.91C71.3321 71.64 70.9871 71.505 70.5321 71.505C70.2221 71.505 69.9621 71.545 69.7521 71.625C69.5421 71.7 69.3596 71.7825 69.2046 71.8725C69.0496 71.9625 68.9121 72.0475 68.7921 72.1275C68.6721 72.2025 68.5446 72.24 68.4096 72.24C68.2996 72.24 68.2046 72.2125 68.1246 72.1575C68.0496 72.0975 67.9871 72.025 67.9371 71.94L67.6446 71.415ZM81.9585 70.35L77.7435 80.175C77.6885 80.29 77.621 80.38 77.541 80.445C77.466 80.51 77.3485 80.5425 77.1885 80.5425H75.996L77.406 77.4825L74.286 70.35H75.6885C75.8235 70.35 75.926 70.3825 75.996 70.4475C76.071 70.5075 76.126 70.58 76.161 70.665L77.9835 75.0075C78.0285 75.1325 78.0685 75.2575 78.1035 75.3825C78.1435 75.5025 78.181 75.6275 78.216 75.7575C78.256 75.6275 78.296 75.5 78.336 75.375C78.376 75.25 78.421 75.125 78.471 75L80.2185 70.665C80.2535 70.575 80.311 70.5 80.391 70.44C80.476 70.38 80.5685 70.35 80.6685 70.35H81.9585Z" fill="black"/>
<g clip-path="url(#clip0_210_358)">
<path d="M4.83323 2.30675C4.07675 2.91725 3.80003 3.02311 3.17422 3.44711C2.62434 3.81967 1.48127 4.38792 1.23578 5.01341C1.05281 5.47962 2.77842 6.35854 3.08021 6.53989C3.55602 6.82581 4.77057 7.46784 5.30813 7.64289M84.0082 19.6847C82.3593 18.8529 80.6435 18.1431 78.8886 17.5159C71.15 14.7502 63.007 12.8163 54.9612 11.0614C45.2542 8.94417 35.4875 7.37408 25.6116 6.36532C21.355 5.93054 18.1447 5.66831 13.9289 5.41537C10.037 5.18187 6.19082 5.17814 2.30555 5.09129" stroke="#333333" stroke-width="3" stroke-linecap="round"/>
</g>
<defs>
<clipPath id="clip0_210_358">
<rect width="86.0498" height="7.72085" fill="white" transform="matrix(-0.984055 -0.177866 -0.177866 0.984055 86.0508 15.3054)"/>
</clipPath>
</defs>
</svg>
