<svg width="198" height="33" viewBox="0 0 198 33" fill="none" xmlns="http://www.w3.org/2000/svg">
<path d="M0.24 0.36H5.376L32.16 22.68L32.16 0.36H38.88L38.88 33L33.744 33L6.96 10.584L6.96 33H0.24L0.24 0.36ZM51.3806 0.36H58.9166V33H51.3806L51.3806 0.36ZM99.3803 12.36V5.928H78.4523V27.24H99.3803V20.136L106.868 21.72V26.568C106.868 28.008 106.644 29.16 106.196 30.024C105.748 30.888 105.14 31.544 104.372 31.992C103.604 32.408 102.708 32.68 101.684 32.808C100.66 32.936 99.5723 33 98.4203 33H77.7323C76.3563 33 75.2203 32.808 74.3243 32.424C73.4603 32.04 72.7723 31.512 72.2603 30.84C71.7483 30.168 71.3963 29.384 71.2043 28.488C71.0123 27.592 70.9163 26.648 70.9163 25.656V7.704C70.9163 6.2 71.0763 4.984 71.3963 4.056C71.7483 3.096 72.2603 2.344 72.9323 1.8C73.6043 1.256 74.4523 0.887998 75.4763 0.695998C76.5003 0.471999 77.7003 0.36 79.0763 0.36H98.1803C100.068 0.36 101.572 0.52 102.692 0.839999C103.844 1.128 104.708 1.56 105.284 2.136C105.892 2.712 106.292 3.4 106.484 4.2C106.676 4.968 106.772 5.832 106.772 6.792V11.304L99.3803 12.36ZM120.897 33H113.601L132.129 0.36H139.329L158.193 33H149.889L145.953 26.088L124.689 26.088L120.897 33ZM127.905 20.136H142.785L135.345 7.08L127.905 20.136ZM165.381 0.36H172.917V27H197.781V33H165.381V0.36Z" fill="#070000"/>
</svg>
