<svg width="362" height="79" viewBox="0 0 362 79" fill="none" xmlns="http://www.w3.org/2000/svg">
<line x1="178" y1="45.5" x2="370" y2="45.5" stroke="black" stroke-width="3"/>
<path d="M24.192 47L16.656 47L16.656 19.928L1.44 19.928L1.44 14.36L39.12 14.36V19.928L24.192 19.928L24.192 47ZM46.7869 14.36L80.6269 14.36V19.928L54.3229 19.928V27.368L69.7309 27.368V33.224L54.3229 33.224V41.096L80.8669 41.096V47L46.7869 47L46.7869 14.36ZM119.912 26.36V19.928L98.9835 19.928V41.24L119.912 41.24V34.136L127.4 35.72V40.568C127.4 42.008 127.176 43.16 126.728 44.024C126.28 44.888 125.672 45.544 124.904 45.992C124.136 46.408 123.24 46.68 122.216 46.808C121.192 46.936 120.104 47 118.952 47L98.2635 47C96.8875 47 95.7515 46.808 94.8555 46.424C93.9915 46.04 93.3035 45.512 92.7915 44.84C92.2795 44.168 91.9275 43.384 91.7355 42.488C91.5435 41.592 91.4475 40.648 91.4475 39.656V21.704C91.4475 20.2 91.6075 18.984 91.9275 18.056C92.2795 17.096 92.7915 16.344 93.4635 15.8C94.1355 15.256 94.9835 14.888 96.0075 14.696C97.0315 14.472 98.2315 14.36 99.6075 14.36L118.712 14.36C120.6 14.36 122.104 14.52 123.224 14.84C124.376 15.128 125.24 15.56 125.816 16.136C126.424 16.712 126.824 17.4 127.016 18.2C127.208 18.968 127.304 19.832 127.304 20.792V25.304L119.912 26.36ZM139.412 14.36L146.948 14.36V27.272L171.092 27.272V14.36H178.628V47H171.092V33.224H146.948V47H139.412V14.36Z" fill="#070000"/>
<path d="M11.24 46.36H16.376L43.16 68.68L43.16 46.36H49.88L49.88 79L44.744 79L17.96 56.584L17.96 79H11.24L11.24 46.36ZM62.3806 46.36H69.9166V79H62.3806L62.3806 46.36ZM110.38 58.36V51.928H89.4523V73.24H110.38V66.136L117.868 67.72V72.568C117.868 74.008 117.644 75.16 117.196 76.024C116.748 76.888 116.14 77.544 115.372 77.992C114.604 78.408 113.708 78.68 112.684 78.808C111.66 78.936 110.572 79 109.42 79H88.7323C87.3563 79 86.2203 78.808 85.3243 78.424C84.4603 78.04 83.7723 77.512 83.2603 76.84C82.7483 76.168 82.3963 75.384 82.2043 74.488C82.0123 73.592 81.9163 72.648 81.9163 71.656V53.704C81.9163 52.2 82.0763 50.984 82.3963 50.056C82.7483 49.096 83.2603 48.344 83.9323 47.8C84.6043 47.256 85.4523 46.888 86.4763 46.696C87.5003 46.472 88.7003 46.36 90.0763 46.36H109.18C111.068 46.36 112.572 46.52 113.692 46.84C114.844 47.128 115.708 47.56 116.284 48.136C116.892 48.712 117.292 49.4 117.484 50.2C117.676 50.968 117.772 51.832 117.772 52.792V57.304L110.38 58.36ZM131.897 79H124.601L143.129 46.36H150.329L169.193 79H160.889L156.953 72.088L135.689 72.088L131.897 79ZM138.905 66.136H153.785L146.345 53.08L138.905 66.136ZM176.381 46.36H183.917V73H208.781V79H176.381V46.36Z" fill="#070000"/>
</svg>
