<svg width="178" height="33" viewBox="0 0 178 33" fill="none" xmlns="http://www.w3.org/2000/svg">
<path d="M23.192 33L15.656 33L15.656 5.928L0.44 5.928L0.44 0.36L38.12 0.36V5.928L23.192 5.928L23.192 33ZM45.7869 0.36L79.6269 0.36V5.928L53.3229 5.928V13.368L68.7309 13.368V19.224L53.3229 19.224V27.096L79.8669 27.096V33L45.7869 33L45.7869 0.36ZM118.912 12.36V5.928L97.9835 5.928V27.24L118.912 27.24V20.136L126.4 21.72V26.568C126.4 28.008 126.176 29.16 125.728 30.024C125.28 30.888 124.672 31.544 123.904 31.992C123.136 32.408 122.24 32.68 121.216 32.808C120.192 32.936 119.104 33 117.952 33L97.2635 33C95.8875 33 94.7515 32.808 93.8555 32.424C92.9915 32.04 92.3035 31.512 91.7915 30.84C91.2795 30.168 90.9275 29.384 90.7355 28.488C90.5435 27.592 90.4475 26.648 90.4475 25.656V7.704C90.4475 6.2 90.6075 4.984 90.9275 4.056C91.2795 3.096 91.7915 2.344 92.4635 1.8C93.1355 1.256 93.9835 0.887998 95.0075 0.695998C96.0315 0.471999 97.2315 0.36 98.6075 0.36L117.712 0.36C119.6 0.36 121.104 0.52 122.224 0.839999C123.376 1.128 124.24 1.56 124.816 2.136C125.424 2.712 125.824 3.4 126.016 4.2C126.208 4.968 126.304 5.832 126.304 6.792V11.304L118.912 12.36ZM138.412 0.36L145.948 0.36V13.272L170.092 13.272V0.36L177.628 0.36V33H170.092V19.224L145.948 19.224V33H138.412V0.36Z" fill="#070000"/>
</svg>
