<svg width="170" height="72" viewBox="0 0 170 72" fill="none" xmlns="http://www.w3.org/2000/svg">
<g clip-path="url(#clip0_3_894)">
<path d="M160.563 53.2568C161.166 55.5432 161.52 56.0921 162.111 57.7852C162.631 59.2728 163.946 61.8607 163.654 63.6486C163.437 64.9811 159.472 65.3246 158.747 65.4524C157.604 65.6537 154.787 65.9528 153.665 65.8181M4.8184 12.8566C8.59751 12.5481 12.3526 12.6081 16.0804 12.9113C32.5196 14.2485 48.7048 18.0448 64.519 22.1773C83.5983 27.1631 102.157 33.5505 120.262 41.4258C128.066 44.8201 133.877 47.5408 141.403 51.3375C148.351 54.8424 154.959 58.8618 161.729 62.7187" stroke="#333333" stroke-width="3" stroke-linecap="round"/>
</g>
<defs>
<clipPath id="clip0_3_894">
<rect width="170.7" height="21" fill="white" transform="translate(6.30322) rotate(17.4667)"/>
</clipPath>
</defs>
</svg>
