<svg width="145" height="113" viewBox="0 0 145 113" fill="none" xmlns="http://www.w3.org/2000/svg">
<g clip-path="url(#clip0_3_900)">
<path d="M10.0382 87.2205C10.8368 90.4204 10.827 91.2061 11.2794 93.5878C11.6768 95.6804 11.9729 99.3551 13.3308 101.794C14.3429 103.611 18.361 103.753 19.1348 103.869C20.3547 104.051 23.243 104.228 24.2408 103.949M135.397 18.5718C131.578 18.4621 128.005 18.8581 124.604 19.5869C109.608 22.8006 96.3382 29.3807 83.6276 36.393C68.2927 44.8532 54.3035 55.2006 41.6463 67.56C36.1909 72.887 32.2453 77.1198 27.2989 82.9779C22.7326 88.3858 18.8037 94.474 14.6212 100.352" stroke="#333333" stroke-width="3" stroke-linecap="round"/>
</g>
<defs>
<clipPath id="clip0_3_900">
<rect width="151.225" height="32.5813" fill="white" transform="matrix(-0.830803 0.556566 0.556566 0.830803 126.22 0.985107)"/>
</clipPath>
</defs>
</svg>
