<svg width="25" height="25" viewBox="0 0 25 25" fill="none" xmlns="http://www.w3.org/2000/svg">
<path d="M16.9011 12.416C16.9011 11.8856 17.1118 11.3769 17.4869 11.0018C17.862 10.6267 18.3707 10.416 18.9011 10.416C19.4316 10.416 19.9403 10.6267 20.3153 11.0018C20.6904 11.3769 20.9011 11.8856 20.9011 12.416C20.9011 12.9464 20.6904 13.4552 20.3153 13.8302C19.9403 14.2053 19.4316 14.416 18.9011 14.416C18.3707 14.416 17.862 14.2053 17.4869 13.8302C17.1118 13.4552 16.9011 12.9464 16.9011 12.416ZM10.9011 12.416C10.9011 11.8856 11.1118 11.3769 11.4869 11.0018C11.862 10.6267 12.3707 10.416 12.9011 10.416C13.4316 10.416 13.9403 10.6267 14.3153 11.0018C14.6904 11.3769 14.9011 11.8856 14.9011 12.416C14.9011 12.9464 14.6904 13.4552 14.3153 13.8302C13.9403 14.2053 13.4316 14.416 12.9011 14.416C12.3707 14.416 11.862 14.2053 11.4869 13.8302C11.1118 13.4552 10.9011 12.9464 10.9011 12.416ZM4.90112 12.416C4.90112 11.8856 5.11184 11.3769 5.48691 11.0018C5.86198 10.6267 6.37069 10.416 6.90112 10.416C7.43156 10.416 7.94026 10.6267 8.31534 11.0018C8.69041 11.3769 8.90112 11.8856 8.90112 12.416C8.90112 12.9464 8.69041 13.4552 8.31534 13.8302C7.94026 14.2053 7.43156 14.416 6.90112 14.416C6.37069 14.416 5.86198 14.2053 5.48691 13.8302C5.11184 13.4552 4.90112 12.9464 4.90112 12.416Z" fill="black"/>
</svg>
