<svg width="93" height="23" viewBox="0 0 93 23" fill="none" xmlns="http://www.w3.org/2000/svg">
<path d="M69.5 11.9591C69.5 9.04968 70.7204 6.25947 72.8927 4.20224C75.065 2.145 78.0112 0.989258 81.0833 0.989258C84.1554 0.989258 87.1017 2.145 89.274 4.20224C91.4463 6.25947 92.6667 9.04968 92.6667 11.9591C92.6667 14.8684 91.4463 17.6586 89.274 19.7159C87.1017 21.7731 84.1554 22.9288 81.0833 22.9288C78.0112 22.9288 75.065 21.7731 72.8927 19.7159C70.7204 17.6586 69.5 14.8684 69.5 11.9591ZM34.75 11.9591C34.75 9.04968 35.9704 6.25947 38.1427 4.20224C40.315 2.145 43.2612 0.989258 46.3333 0.989258C49.4054 0.989258 52.3517 2.145 54.524 4.20224C56.6963 6.25947 57.9167 9.04968 57.9167 11.9591C57.9167 14.8684 56.6963 17.6586 54.524 19.7159C52.3517 21.7731 49.4054 22.9288 46.3333 22.9288C43.2612 22.9288 40.315 21.7731 38.1427 19.7159C35.9704 17.6586 34.75 14.8684 34.75 11.9591ZM0 11.9591C0 9.04968 1.22038 6.25947 3.39268 4.20224C5.56498 2.145 8.51124 0.989258 11.5833 0.989258C14.6554 0.989258 17.6017 2.145 19.774 4.20224C21.9463 6.25947 23.1667 9.04968 23.1667 11.9591C23.1667 14.8684 21.9463 17.6586 19.774 19.7159C17.6017 21.7731 14.6554 22.9288 11.5833 22.9288C8.51124 22.9288 5.56498 21.7731 3.39268 19.7159C1.22038 17.6586 0 14.8684 0 11.9591Z" fill="black"/>
</svg>
