<svg width="23" height="22" viewBox="0 0 23 22" fill="none" xmlns="http://www.w3.org/2000/svg">
<path d="M17.5 15H16.92L16.11 14.19C17 13 17.5 11.5 17.5 10C17.5 6.13 14.37 3 10.5 3C9 3 7.5 3.5 6.29 4.4C3.2 6.72 2.57 11.11 4.89 14.2C7.21 17.29 11.6 17.92 14.69 15.6L15.5 16.41V17L20.5 22L22.5 20L17.5 15ZM10.5 15C7.74 15 5.5 12.76 5.5 10C5.5 7.24 7.74 5 10.5 5C13.26 5 15.5 7.24 15.5 10C15.5 12.76 13.26 15 10.5 15ZM2.5 5L0.5 7V0H7.5L5.5 2H2.5V5ZM20.5 0V7L18.5 5V2H15.5L13.5 0H20.5ZM5.5 18L7.5 20H0.5V13L2.5 15V18H5.5Z" fill="#263B85"/>
</svg>
