<svg width="556" height="116" viewBox="0 0 556 116" fill="none" xmlns="http://www.w3.org/2000/svg">
<path d="M167.824 68.52H162.96L162.064 71H160.528L164.56 59.912H166.24L170.256 71H168.72L167.824 68.52ZM167.408 67.336L165.392 61.704L163.376 67.336H167.408ZM171.469 66.584C171.469 65.688 171.651 64.904 172.013 64.232C172.376 63.5493 172.872 63.0213 173.501 62.648C174.141 62.2747 174.856 62.088 175.645 62.088C176.328 62.088 176.963 62.248 177.549 62.568C178.136 62.8773 178.584 63.288 178.893 63.8V59.16H180.365V71H178.893V69.352C178.605 69.8747 178.179 70.3067 177.613 70.648C177.048 70.9787 176.387 71.144 175.629 71.144C174.851 71.144 174.141 70.952 173.501 70.568C172.872 70.184 172.376 69.6453 172.013 68.952C171.651 68.2587 171.469 67.4693 171.469 66.584ZM178.893 66.6C178.893 65.9387 178.76 65.3627 178.493 64.872C178.227 64.3813 177.864 64.008 177.405 63.752C176.957 63.4853 176.461 63.352 175.917 63.352C175.373 63.352 174.877 63.48 174.429 63.736C173.981 63.992 173.624 64.3653 173.357 64.856C173.091 65.3467 172.957 65.9227 172.957 66.584C172.957 67.256 173.091 67.8427 173.357 68.344C173.624 68.8347 173.981 69.2133 174.429 69.48C174.877 69.736 175.373 69.864 175.917 69.864C176.461 69.864 176.957 69.736 177.405 69.48C177.864 69.2133 178.227 68.8347 178.493 68.344C178.76 67.8427 178.893 67.2613 178.893 66.6ZM182.282 66.584C182.282 65.688 182.463 64.904 182.826 64.232C183.188 63.5493 183.684 63.0213 184.314 62.648C184.954 62.2747 185.668 62.088 186.458 62.088C187.14 62.088 187.775 62.248 188.362 62.568C188.948 62.8773 189.396 63.288 189.706 63.8V59.16H191.178V71H189.706V69.352C189.418 69.8747 188.991 70.3067 188.426 70.648C187.86 70.9787 187.199 71.144 186.442 71.144C185.663 71.144 184.954 70.952 184.314 70.568C183.684 70.184 183.188 69.6453 182.826 68.952C182.463 68.2587 182.282 67.4693 182.282 66.584ZM189.706 66.6C189.706 65.9387 189.572 65.3627 189.306 64.872C189.039 64.3813 188.676 64.008 188.218 63.752C187.77 63.4853 187.274 63.352 186.73 63.352C186.186 63.352 185.69 63.48 185.242 63.736C184.794 63.992 184.436 64.3653 184.17 64.856C183.903 65.3467 183.77 65.9227 183.77 66.584C183.77 67.256 183.903 67.8427 184.17 68.344C184.436 68.8347 184.794 69.2133 185.242 69.48C185.69 69.736 186.186 69.864 186.73 69.864C187.274 69.864 187.77 69.736 188.218 69.48C188.676 69.2133 189.039 68.8347 189.306 68.344C189.572 67.8427 189.706 67.2613 189.706 66.6ZM195.094 63.656C195.35 63.1547 195.713 62.7653 196.182 62.488C196.662 62.2107 197.244 62.072 197.926 62.072V63.576H197.542C195.91 63.576 195.094 64.4613 195.094 66.232V71H193.638V62.232H195.094V63.656ZM207.607 66.28C207.607 66.5573 207.591 66.8507 207.559 67.16H200.551C200.604 68.024 200.898 68.7013 201.431 69.192C201.975 69.672 202.631 69.912 203.399 69.912C204.028 69.912 204.551 69.768 204.967 69.48C205.394 69.1813 205.692 68.7867 205.863 68.296H207.431C207.196 69.1387 206.727 69.8267 206.023 70.36C205.319 70.8827 204.444 71.144 203.399 71.144C202.567 71.144 201.82 70.9573 201.159 70.584C200.508 70.2107 199.996 69.6827 199.623 69C199.25 68.3067 199.063 67.5067 199.063 66.6C199.063 65.6933 199.244 64.8987 199.607 64.216C199.97 63.5333 200.476 63.0107 201.127 62.648C201.788 62.2747 202.546 62.088 203.399 62.088C204.231 62.088 204.967 62.2693 205.607 62.632C206.247 62.9947 206.738 63.496 207.079 64.136C207.431 64.7653 207.607 65.48 207.607 66.28ZM206.103 65.976C206.103 65.4213 205.98 64.9467 205.735 64.552C205.49 64.1467 205.154 63.8427 204.727 63.64C204.311 63.4267 203.847 63.32 203.335 63.32C202.599 63.32 201.97 63.5547 201.447 64.024C200.935 64.4933 200.642 65.144 200.567 65.976H206.103ZM212.633 71.144C211.961 71.144 211.358 71.032 210.825 70.808C210.292 70.5733 209.87 70.2533 209.561 69.848C209.252 69.432 209.081 68.9573 209.049 68.424H210.553C210.596 68.8613 210.798 69.2187 211.161 69.496C211.534 69.7733 212.02 69.912 212.617 69.912C213.172 69.912 213.609 69.7893 213.929 69.544C214.249 69.2987 214.409 68.9893 214.409 68.616C214.409 68.232 214.238 67.9493 213.897 67.768C213.556 67.576 213.028 67.3893 212.313 67.208C211.662 67.0373 211.129 66.8667 210.713 66.696C210.308 66.5147 209.956 66.2533 209.657 65.912C209.369 65.56 209.225 65.1013 209.225 64.536C209.225 64.088 209.358 63.6773 209.625 63.304C209.892 62.9307 210.27 62.6373 210.761 62.424C211.252 62.2 211.812 62.088 212.441 62.088C213.412 62.088 214.196 62.3333 214.793 62.824C215.39 63.3147 215.71 63.9867 215.753 64.84H214.297C214.265 64.3813 214.078 64.0133 213.737 63.736C213.406 63.4587 212.958 63.32 212.393 63.32C211.87 63.32 211.454 63.432 211.145 63.656C210.836 63.88 210.681 64.1733 210.681 64.536C210.681 64.824 210.772 65.064 210.953 65.256C211.145 65.4373 211.38 65.5867 211.657 65.704C211.945 65.8107 212.34 65.9333 212.841 66.072C213.47 66.2427 213.982 66.4133 214.377 66.584C214.772 66.744 215.108 66.9893 215.385 67.32C215.673 67.6507 215.822 68.0827 215.833 68.616C215.833 69.096 215.7 69.528 215.433 69.912C215.166 70.296 214.788 70.6 214.297 70.824C213.817 71.0373 213.262 71.144 212.633 71.144ZM220.992 71.144C220.32 71.144 219.718 71.032 219.184 70.808C218.651 70.5733 218.23 70.2533 217.92 69.848C217.611 69.432 217.44 68.9573 217.408 68.424H218.912C218.955 68.8613 219.158 69.2187 219.52 69.496C219.894 69.7733 220.379 69.912 220.976 69.912C221.531 69.912 221.968 69.7893 222.288 69.544C222.608 69.2987 222.768 68.9893 222.768 68.616C222.768 68.232 222.598 67.9493 222.256 67.768C221.915 67.576 221.387 67.3893 220.672 67.208C220.022 67.0373 219.488 66.8667 219.072 66.696C218.667 66.5147 218.315 66.2533 218.016 65.912C217.728 65.56 217.584 65.1013 217.584 64.536C217.584 64.088 217.718 63.6773 217.984 63.304C218.251 62.9307 218.63 62.6373 219.12 62.424C219.611 62.2 220.171 62.088 220.8 62.088C221.771 62.088 222.555 62.3333 223.152 62.824C223.75 63.3147 224.07 63.9867 224.112 64.84H222.656C222.624 64.3813 222.438 64.0133 222.096 63.736C221.766 63.4587 221.318 63.32 220.752 63.32C220.23 63.32 219.814 63.432 219.504 63.656C219.195 63.88 219.04 64.1733 219.04 64.536C219.04 64.824 219.131 65.064 219.312 65.256C219.504 65.4373 219.739 65.5867 220.016 65.704C220.304 65.8107 220.699 65.9333 221.2 66.072C221.83 66.2427 222.342 66.4133 222.736 66.584C223.131 66.744 223.467 66.9893 223.744 67.32C224.032 67.6507 224.182 68.0827 224.192 68.616C224.192 69.096 224.059 69.528 223.792 69.912C223.526 70.296 223.147 70.6 222.656 70.824C222.176 71.0373 221.622 71.144 220.992 71.144Z" fill="#647F95"/>
<path d="M313.688 63.112C313.688 64.04 313.368 64.8133 312.728 65.432C312.099 66.04 311.133 66.344 309.832 66.344H307.688V71H306.232V59.848H309.832C311.091 59.848 312.045 60.152 312.696 60.76C313.357 61.368 313.688 62.152 313.688 63.112ZM309.832 65.144C310.643 65.144 311.24 64.968 311.624 64.616C312.008 64.264 312.2 63.7627 312.2 63.112C312.2 61.736 311.411 61.048 309.832 61.048H307.688V65.144H309.832ZM314.954 66.584C314.954 65.688 315.135 64.904 315.498 64.232C315.86 63.5493 316.356 63.0213 316.986 62.648C317.626 62.2747 318.335 62.088 319.114 62.088C319.882 62.088 320.548 62.2533 321.114 62.584C321.679 62.9147 322.1 63.3307 322.378 63.832V62.232H323.85V71H322.378V69.368C322.09 69.88 321.658 70.3067 321.082 70.648C320.516 70.9787 319.855 71.144 319.098 71.144C318.319 71.144 317.615 70.952 316.986 70.568C316.356 70.184 315.86 69.6453 315.498 68.952C315.135 68.2587 314.954 67.4693 314.954 66.584ZM322.378 66.6C322.378 65.9387 322.244 65.3627 321.978 64.872C321.711 64.3813 321.348 64.008 320.89 63.752C320.442 63.4853 319.946 63.352 319.402 63.352C318.858 63.352 318.362 63.48 317.914 63.736C317.466 63.992 317.108 64.3653 316.842 64.856C316.575 65.3467 316.442 65.9227 316.442 66.584C316.442 67.256 316.575 67.8427 316.842 68.344C317.108 68.8347 317.466 69.2133 317.914 69.48C318.362 69.736 318.858 69.864 319.402 69.864C319.946 69.864 320.442 69.736 320.89 69.48C321.348 69.2133 321.711 68.8347 321.978 68.344C322.244 67.8427 322.378 67.2613 322.378 66.6ZM333.862 62.232L328.582 75.128H327.078L328.806 70.904L325.27 62.232H326.886L329.638 69.336L332.358 62.232H333.862ZM345.87 62.072C346.552 62.072 347.16 62.216 347.694 62.504C348.227 62.7813 348.648 63.2027 348.958 63.768C349.267 64.3333 349.422 65.0213 349.422 65.832V71H347.982V66.04C347.982 65.1653 347.763 64.4987 347.326 64.04C346.899 63.5707 346.318 63.336 345.582 63.336C344.824 63.336 344.222 63.5813 343.774 64.072C343.326 64.552 343.102 65.2507 343.102 66.168V71H341.662V66.04C341.662 65.1653 341.443 64.4987 341.006 64.04C340.579 63.5707 339.998 63.336 339.262 63.336C338.504 63.336 337.902 63.5813 337.454 64.072C337.006 64.552 336.782 65.2507 336.782 66.168V71H335.326V62.232H336.782V63.496C337.07 63.0373 337.454 62.6853 337.934 62.44C338.424 62.1947 338.963 62.072 339.55 62.072C340.286 62.072 340.936 62.2373 341.502 62.568C342.067 62.8987 342.488 63.384 342.766 64.024C343.011 63.4053 343.416 62.9253 343.982 62.584C344.547 62.2427 345.176 62.072 345.87 62.072ZM359.81 66.28C359.81 66.5573 359.794 66.8507 359.762 67.16H352.754C352.807 68.024 353.101 68.7013 353.634 69.192C354.178 69.672 354.834 69.912 355.602 69.912C356.231 69.912 356.754 69.768 357.17 69.48C357.597 69.1813 357.895 68.7867 358.066 68.296H359.634C359.399 69.1387 358.93 69.8267 358.226 70.36C357.522 70.8827 356.647 71.144 355.602 71.144C354.77 71.144 354.023 70.9573 353.362 70.584C352.711 70.2107 352.199 69.6827 351.826 69C351.453 68.3067 351.266 67.5067 351.266 66.6C351.266 65.6933 351.447 64.8987 351.81 64.216C352.173 63.5333 352.679 63.0107 353.33 62.648C353.991 62.2747 354.749 62.088 355.602 62.088C356.434 62.088 357.17 62.2693 357.81 62.632C358.45 62.9947 358.941 63.496 359.282 64.136C359.634 64.7653 359.81 65.48 359.81 66.28ZM358.306 65.976C358.306 65.4213 358.183 64.9467 357.938 64.552C357.693 64.1467 357.357 63.8427 356.93 63.64C356.514 63.4267 356.05 63.32 355.538 63.32C354.802 63.32 354.173 63.5547 353.65 64.024C353.138 64.4933 352.845 65.144 352.77 65.976H358.306ZM366.004 62.072C367.071 62.072 367.935 62.3973 368.596 63.048C369.257 63.688 369.588 64.616 369.588 65.832V71H368.148V66.04C368.148 65.1653 367.929 64.4987 367.492 64.04C367.055 63.5707 366.457 63.336 365.7 63.336C364.932 63.336 364.319 63.576 363.86 64.056C363.412 64.536 363.188 65.2347 363.188 66.152V71H361.732V62.232H363.188V63.48C363.476 63.032 363.865 62.6853 364.356 62.44C364.857 62.1947 365.407 62.072 366.004 62.072ZM373.742 63.432V68.6C373.742 69.0267 373.833 69.3307 374.014 69.512C374.196 69.6827 374.51 69.768 374.958 69.768H376.03V71H374.718C373.908 71 373.3 70.8133 372.894 70.44C372.489 70.0667 372.286 69.4533 372.286 68.6V63.432H371.15V62.232H372.286V60.024H373.742V62.232H376.03V63.432H373.742Z" fill="#647F95"/>
<path d="M467.104 71L464.448 66.44H462.688V71H461.232V59.848H464.832C465.675 59.848 466.384 59.992 466.96 60.28C467.547 60.568 467.984 60.9573 468.272 61.448C468.56 61.9387 468.704 62.4987 468.704 63.128C468.704 63.896 468.48 64.5733 468.032 65.16C467.595 65.7467 466.933 66.136 466.048 66.328L468.848 71H467.104ZM462.688 65.272H464.832C465.621 65.272 466.213 65.08 466.608 64.696C467.003 64.3013 467.2 63.7787 467.2 63.128C467.2 62.4667 467.003 61.9547 466.608 61.592C466.224 61.2293 465.632 61.048 464.832 61.048H462.688V65.272ZM478.966 66.28C478.966 66.5573 478.95 66.8507 478.918 67.16H471.91C471.964 68.024 472.257 68.7013 472.79 69.192C473.334 69.672 473.99 69.912 474.758 69.912C475.388 69.912 475.91 69.768 476.326 69.48C476.753 69.1813 477.052 68.7867 477.222 68.296H478.79C478.556 69.1387 478.086 69.8267 477.382 70.36C476.678 70.8827 475.804 71.144 474.758 71.144C473.926 71.144 473.18 70.9573 472.518 70.584C471.868 70.2107 471.356 69.6827 470.982 69C470.609 68.3067 470.422 67.5067 470.422 66.6C470.422 65.6933 470.604 64.8987 470.966 64.216C471.329 63.5333 471.836 63.0107 472.486 62.648C473.148 62.2747 473.905 62.088 474.758 62.088C475.59 62.088 476.326 62.2693 476.966 62.632C477.606 62.9947 478.097 63.496 478.438 64.136C478.79 64.7653 478.966 65.48 478.966 66.28ZM477.462 65.976C477.462 65.4213 477.34 64.9467 477.094 64.552C476.849 64.1467 476.513 63.8427 476.086 63.64C475.67 63.4267 475.206 63.32 474.694 63.32C473.958 63.32 473.329 63.5547 472.806 64.024C472.294 64.4933 472.001 65.144 471.926 65.976H477.462ZM484.152 69.656L486.872 62.232H488.424L484.984 71H483.288L479.848 62.232H481.416L484.152 69.656ZM490.609 60.808C490.332 60.808 490.097 60.712 489.905 60.52C489.713 60.328 489.617 60.0933 489.617 59.816C489.617 59.5387 489.713 59.304 489.905 59.112C490.097 58.92 490.332 58.824 490.609 58.824C490.876 58.824 491.1 58.92 491.281 59.112C491.473 59.304 491.569 59.5387 491.569 59.816C491.569 60.0933 491.473 60.328 491.281 60.52C491.1 60.712 490.876 60.808 490.609 60.808ZM491.313 62.232V71H489.857V62.232H491.313ZM501.795 66.28C501.795 66.5573 501.779 66.8507 501.747 67.16H494.739C494.792 68.024 495.085 68.7013 495.619 69.192C496.163 69.672 496.819 69.912 497.587 69.912C498.216 69.912 498.739 69.768 499.155 69.48C499.581 69.1813 499.88 68.7867 500.051 68.296H501.619C501.384 69.1387 500.915 69.8267 500.211 70.36C499.507 70.8827 498.632 71.144 497.587 71.144C496.755 71.144 496.008 70.9573 495.347 70.584C494.696 70.2107 494.184 69.6827 493.811 69C493.437 68.3067 493.251 67.5067 493.251 66.6C493.251 65.6933 493.432 64.8987 493.795 64.216C494.157 63.5333 494.664 63.0107 495.315 62.648C495.976 62.2747 496.733 62.088 497.587 62.088C498.419 62.088 499.155 62.2693 499.795 62.632C500.435 62.9947 500.925 63.496 501.267 64.136C501.619 64.7653 501.795 65.48 501.795 66.28ZM500.291 65.976C500.291 65.4213 500.168 64.9467 499.923 64.552C499.677 64.1467 499.341 63.8427 498.915 63.64C498.499 63.4267 498.035 63.32 497.523 63.32C496.787 63.32 496.157 63.5547 495.635 64.024C495.123 64.4933 494.829 65.144 494.755 65.976H500.291ZM515.396 62.232L512.66 71H511.156L509.044 64.04L506.932 71H505.428L502.676 62.232H504.164L506.18 69.592L508.356 62.232H509.844L511.972 69.608L513.956 62.232H515.396ZM520.563 66.584C520.563 65.688 520.744 64.904 521.107 64.232C521.47 63.5493 521.966 63.0213 522.595 62.648C523.235 62.2747 523.944 62.088 524.723 62.088C525.491 62.088 526.158 62.2533 526.723 62.584C527.288 62.9147 527.71 63.3307 527.987 63.832V62.232H529.459V71H527.987V69.368C527.699 69.88 527.267 70.3067 526.691 70.648C526.126 70.9787 525.464 71.144 524.707 71.144C523.928 71.144 523.224 70.952 522.595 70.568C521.966 70.184 521.47 69.6453 521.107 68.952C520.744 68.2587 520.563 67.4693 520.563 66.584ZM527.987 66.6C527.987 65.9387 527.854 65.3627 527.587 64.872C527.32 64.3813 526.958 64.008 526.499 63.752C526.051 63.4853 525.555 63.352 525.011 63.352C524.467 63.352 523.971 63.48 523.523 63.736C523.075 63.992 522.718 64.3653 522.451 64.856C522.184 65.3467 522.051 65.9227 522.051 66.584C522.051 67.256 522.184 67.8427 522.451 68.344C522.718 68.8347 523.075 69.2133 523.523 69.48C523.971 69.736 524.467 69.864 525.011 69.864C525.555 69.864 526.051 69.736 526.499 69.48C526.958 69.2133 527.32 68.8347 527.587 68.344C527.854 67.8427 527.987 67.2613 527.987 66.6ZM536.192 62.072C537.258 62.072 538.122 62.3973 538.784 63.048C539.445 63.688 539.776 64.616 539.776 65.832V71H538.336V66.04C538.336 65.1653 538.117 64.4987 537.68 64.04C537.242 63.5707 536.645 63.336 535.888 63.336C535.12 63.336 534.506 63.576 534.048 64.056C533.6 64.536 533.376 65.2347 533.376 66.152V71H531.92V62.232H533.376V63.48C533.664 63.032 534.053 62.6853 534.544 62.44C535.045 62.1947 535.594 62.072 536.192 62.072ZM541.61 66.584C541.61 65.688 541.791 64.904 542.154 64.232C542.517 63.5493 543.013 63.0213 543.642 62.648C544.282 62.2747 544.997 62.088 545.786 62.088C546.469 62.088 547.103 62.248 547.69 62.568C548.277 62.8773 548.725 63.288 549.034 63.8V59.16H550.506V71H549.034V69.352C548.746 69.8747 548.319 70.3067 547.754 70.648C547.189 70.9787 546.527 71.144 545.77 71.144C544.991 71.144 544.282 70.952 543.642 70.568C543.013 70.184 542.517 69.6453 542.154 68.952C541.791 68.2587 541.61 67.4693 541.61 66.584ZM549.034 66.6C549.034 65.9387 548.901 65.3627 548.634 64.872C548.367 64.3813 548.005 64.008 547.546 63.752C547.098 63.4853 546.602 63.352 546.058 63.352C545.514 63.352 545.018 63.48 544.57 63.736C544.122 63.992 543.765 64.3653 543.498 64.856C543.231 65.3467 543.098 65.9227 543.098 66.584C543.098 67.256 543.231 67.8427 543.498 68.344C543.765 68.8347 544.122 69.2133 544.57 69.48C545.018 69.736 545.514 69.864 546.058 69.864C546.602 69.864 547.098 69.736 547.546 69.48C548.005 69.2133 548.367 68.8347 548.634 68.344C548.901 67.8427 549.034 67.2613 549.034 66.6ZM471.274 77.112C471.274 78.04 470.954 78.8133 470.314 79.432C469.685 80.04 468.719 80.344 467.418 80.344H465.274V85H463.818V73.848H467.418C468.677 73.848 469.631 74.152 470.282 74.76C470.943 75.368 471.274 76.152 471.274 77.112ZM467.418 79.144C468.229 79.144 468.826 78.968 469.21 78.616C469.594 78.264 469.786 77.7627 469.786 77.112C469.786 75.736 468.997 75.048 467.418 75.048H465.274V79.144H467.418ZM474.54 73.16V85H473.084V73.16H474.54ZM476.477 80.584C476.477 79.688 476.658 78.904 477.021 78.232C477.384 77.5493 477.88 77.0213 478.509 76.648C479.149 76.2747 479.858 76.088 480.637 76.088C481.405 76.088 482.072 76.2533 482.637 76.584C483.202 76.9147 483.624 77.3307 483.901 77.832V76.232H485.373V85H483.901V83.368C483.613 83.88 483.181 84.3067 482.605 84.648C482.04 84.9787 481.378 85.144 480.621 85.144C479.842 85.144 479.138 84.952 478.509 84.568C477.88 84.184 477.384 83.6453 477.021 82.952C476.658 82.2587 476.477 81.4693 476.477 80.584ZM483.901 80.6C483.901 79.9387 483.768 79.3627 483.501 78.872C483.234 78.3813 482.872 78.008 482.413 77.752C481.965 77.4853 481.469 77.352 480.925 77.352C480.381 77.352 479.885 77.48 479.437 77.736C478.989 77.992 478.632 78.3653 478.365 78.856C478.098 79.3467 477.965 79.9227 477.965 80.584C477.965 81.256 478.098 81.8427 478.365 82.344C478.632 82.8347 478.989 83.2133 479.437 83.48C479.885 83.736 480.381 83.864 480.925 83.864C481.469 83.864 481.965 83.736 482.413 83.48C482.872 83.2133 483.234 82.8347 483.501 82.344C483.768 81.8427 483.901 81.2613 483.901 80.6ZM487.29 80.6C487.29 79.6933 487.471 78.904 487.834 78.232C488.196 77.5493 488.698 77.0213 489.338 76.648C489.988 76.2747 490.73 76.088 491.562 76.088C492.639 76.088 493.524 76.3493 494.218 76.872C494.922 77.3947 495.386 78.12 495.61 79.048H494.042C493.892 78.5147 493.599 78.0933 493.162 77.784C492.735 77.4747 492.202 77.32 491.562 77.32C490.73 77.32 490.058 77.608 489.546 78.184C489.034 78.7493 488.778 79.5547 488.778 80.6C488.778 81.656 489.034 82.472 489.546 83.048C490.058 83.624 490.73 83.912 491.562 83.912C492.202 83.912 492.735 83.7627 493.162 83.464C493.588 83.1653 493.882 82.7387 494.042 82.184H495.61C495.375 83.08 494.906 83.8 494.202 84.344C493.498 84.8773 492.618 85.144 491.562 85.144C490.73 85.144 489.988 84.9573 489.338 84.584C488.698 84.2107 488.196 83.6827 487.834 83C487.471 82.3173 487.29 81.5173 487.29 80.6ZM505.552 80.28C505.552 80.5573 505.536 80.8507 505.504 81.16H498.496C498.55 82.024 498.843 82.7013 499.376 83.192C499.92 83.672 500.576 83.912 501.344 83.912C501.974 83.912 502.496 83.768 502.912 83.48C503.339 83.1813 503.638 82.7867 503.808 82.296H505.376C505.142 83.1387 504.672 83.8267 503.968 84.36C503.264 84.8827 502.39 85.144 501.344 85.144C500.512 85.144 499.766 84.9573 499.104 84.584C498.454 84.2107 497.942 83.6827 497.568 83C497.195 82.3067 497.008 81.5067 497.008 80.6C497.008 79.6933 497.19 78.8987 497.552 78.216C497.915 77.5333 498.422 77.0107 499.072 76.648C499.734 76.2747 500.491 76.088 501.344 76.088C502.176 76.088 502.912 76.2693 503.552 76.632C504.192 76.9947 504.683 77.496 505.024 78.136C505.376 78.7653 505.552 79.48 505.552 80.28ZM504.048 79.976C504.048 79.4213 503.926 78.9467 503.68 78.552C503.435 78.1467 503.099 77.8427 502.672 77.64C502.256 77.4267 501.792 77.32 501.28 77.32C500.544 77.32 499.915 77.5547 499.392 78.024C498.88 78.4933 498.587 79.144 498.512 79.976H504.048ZM515.564 85.144C514.742 85.144 513.996 84.9573 513.324 84.584C512.662 84.2107 512.14 83.6827 511.756 83C511.382 82.3067 511.196 81.5067 511.196 80.6C511.196 79.704 511.388 78.9147 511.772 78.232C512.166 77.5387 512.7 77.0107 513.372 76.648C514.044 76.2747 514.796 76.088 515.628 76.088C516.46 76.088 517.212 76.2747 517.884 76.648C518.556 77.0107 519.084 77.5333 519.468 78.216C519.862 78.8987 520.06 79.6933 520.06 80.6C520.06 81.5067 519.857 82.3067 519.452 83C519.057 83.6827 518.518 84.2107 517.836 84.584C517.153 84.9573 516.396 85.144 515.564 85.144ZM515.564 83.864C516.086 83.864 516.577 83.7413 517.036 83.496C517.494 83.2507 517.862 82.8827 518.14 82.392C518.428 81.9013 518.572 81.304 518.572 80.6C518.572 79.896 518.433 79.2987 518.156 78.808C517.878 78.3173 517.516 77.9547 517.068 77.72C516.62 77.4747 516.134 77.352 515.612 77.352C515.078 77.352 514.588 77.4747 514.14 77.72C513.702 77.9547 513.35 78.3173 513.084 78.808C512.817 79.2987 512.684 79.896 512.684 80.6C512.684 81.3147 512.812 81.9173 513.068 82.408C513.334 82.8987 513.686 83.2667 514.124 83.512C514.561 83.7467 515.041 83.864 515.564 83.864ZM523.43 77.656C523.686 77.1547 524.049 76.7653 524.518 76.488C524.998 76.2107 525.58 76.072 526.262 76.072V77.576H525.878C524.246 77.576 523.43 78.4613 523.43 80.232V85H521.974V76.232H523.43V77.656ZM527.399 80.584C527.399 79.688 527.58 78.904 527.943 78.232C528.306 77.5493 528.802 77.0213 529.431 76.648C530.071 76.2747 530.786 76.088 531.575 76.088C532.258 76.088 532.892 76.248 533.479 76.568C534.066 76.8773 534.514 77.288 534.823 77.8V73.16H536.295V85H534.823V83.352C534.535 83.8747 534.108 84.3067 533.543 84.648C532.978 84.9787 532.316 85.144 531.559 85.144C530.78 85.144 530.071 84.952 529.431 84.568C528.802 84.184 528.306 83.6453 527.943 82.952C527.58 82.2587 527.399 81.4693 527.399 80.584ZM534.823 80.6C534.823 79.9387 534.69 79.3627 534.423 78.872C534.156 78.3813 533.794 78.008 533.335 77.752C532.887 77.4853 532.391 77.352 531.847 77.352C531.303 77.352 530.807 77.48 530.359 77.736C529.911 77.992 529.554 78.3653 529.287 78.856C529.02 79.3467 528.887 79.9227 528.887 80.584C528.887 81.256 529.02 81.8427 529.287 82.344C529.554 82.8347 529.911 83.2133 530.359 83.48C530.807 83.736 531.303 83.864 531.847 83.864C532.391 83.864 532.887 83.736 533.335 83.48C533.794 83.2133 534.156 82.8347 534.423 82.344C534.69 81.8427 534.823 81.2613 534.823 80.6ZM546.755 80.28C546.755 80.5573 546.739 80.8507 546.707 81.16H539.699C539.753 82.024 540.046 82.7013 540.579 83.192C541.123 83.672 541.779 83.912 542.547 83.912C543.177 83.912 543.699 83.768 544.115 83.48C544.542 83.1813 544.841 82.7867 545.011 82.296H546.579C546.345 83.1387 545.875 83.8267 545.171 84.36C544.467 84.8827 543.593 85.144 542.547 85.144C541.715 85.144 540.969 84.9573 540.307 84.584C539.657 84.2107 539.145 83.6827 538.771 83C538.398 82.3067 538.211 81.5067 538.211 80.6C538.211 79.6933 538.393 78.8987 538.755 78.216C539.118 77.5333 539.625 77.0107 540.275 76.648C540.937 76.2747 541.694 76.088 542.547 76.088C543.379 76.088 544.115 76.2693 544.755 76.632C545.395 76.9947 545.886 77.496 546.227 78.136C546.579 78.7653 546.755 79.48 546.755 80.28ZM545.251 79.976C545.251 79.4213 545.129 78.9467 544.883 78.552C544.638 78.1467 544.302 77.8427 543.875 77.64C543.459 77.4267 542.995 77.32 542.483 77.32C541.747 77.32 541.118 77.5547 540.595 78.024C540.083 78.4933 539.79 79.144 539.715 79.976H545.251ZM550.133 77.656C550.389 77.1547 550.752 76.7653 551.221 76.488C551.701 76.2107 552.283 76.072 552.965 76.072V77.576H552.581C550.949 77.576 550.133 78.4613 550.133 80.232V85H548.677V76.232H550.133V77.656Z" fill="#EAE6E3"/>
<path d="M24 34L16 10H67.5L57.5 34H24Z" stroke="#647F95" stroke-width="2"/>
<path d="M18.5 11.5L6 4" stroke="#647F95" stroke-width="3"/>
<circle cx="26" cy="38" r="9" fill="#647F95"/>
<circle cx="55" cy="38" r="9" fill="#647F95"/>
<path d="M193.072 43.5C183.405 32.1667 169.262 1 193.072 1C205.762 1 215.872 12.7 193.072 43.5Z" stroke="#647F95" stroke-width="2"/>
<circle cx="193" cy="14" r="9" fill="#647F95"/>
<rect x="316" y="15" width="49" height="28" rx="4" stroke="#647F95" stroke-width="2"/>
<rect x="317.5" y="31.5" width="48" height="7" fill="#647F95" stroke="#647F95"/>
<line x1="39" y1="103" x2="508" y2="103" stroke="black" stroke-width="2"/>
<circle cx="193" cy="104" r="9" fill="black"/>
<circle cx="341" cy="104" r="9" fill="black"/>
<circle cx="508" cy="104" r="10.5" fill="black" stroke="#EAE6E3" stroke-width="3"/>
<circle cx="39" cy="104" r="9" fill="black"/>
<rect x="492" y="22" width="31" height="25.72" rx="4" stroke="#EAE6E3" stroke-width="2"/>
<path d="M497 13C497 10.7909 498.791 9 501 9H513.44C515.649 9 517.44 10.7909 517.44 13V21.52H497V13Z" stroke="#EAE6E3" stroke-width="2"/>
<circle cx="508.16" cy="32.76" r="5.28" fill="#EAE6E3"/>
<path d="M506.66 40.6801C506.66 41.5085 507.332 42.1801 508.16 42.1801C508.988 42.1801 509.66 41.5085 509.66 40.6801H506.66ZM506.66 34.0801V40.6801H509.66V34.0801H506.66Z" fill="#EAE6E3"/>
<path d="M0.688 65.416C0.688 64.328 0.933333 63.352 1.424 62.488C1.91467 61.6133 2.58133 60.9307 3.424 60.44C4.27733 59.9493 5.22133 59.704 6.256 59.704C7.472 59.704 8.53333 59.9973 9.44 60.584C10.3467 61.1707 11.008 62.0027 11.424 63.08H9.68C9.37067 62.408 8.92267 61.8907 8.336 61.528C7.76 61.1653 7.06667 60.984 6.256 60.984C5.47733 60.984 4.77867 61.1653 4.16 61.528C3.54133 61.8907 3.056 62.408 2.704 63.08C2.352 63.7413 2.176 64.52 2.176 65.416C2.176 66.3013 2.352 67.08 2.704 67.752C3.056 68.4133 3.54133 68.9253 4.16 69.288C4.77867 69.6507 5.47733 69.832 6.256 69.832C7.06667 69.832 7.76 69.656 8.336 69.304C8.92267 68.9413 9.37067 68.424 9.68 67.752H11.424C11.008 68.8187 10.3467 69.6453 9.44 70.232C8.53333 70.808 7.472 71.096 6.256 71.096C5.22133 71.096 4.27733 70.856 3.424 70.376C2.58133 69.8853 1.91467 69.208 1.424 68.344C0.933333 67.48 0.688 66.504 0.688 65.416ZM17.9434 62.072C18.6047 62.072 19.202 62.216 19.7354 62.504C20.2687 62.7813 20.6847 63.2027 20.9834 63.768C21.2927 64.3333 21.4474 65.0213 21.4474 65.832V71H20.0074V66.04C20.0074 65.1653 19.7887 64.4987 19.3514 64.04C18.914 63.5707 18.3167 63.336 17.5594 63.336C16.7914 63.336 16.178 63.576 15.7194 64.056C15.2714 64.536 15.0474 65.2347 15.0474 66.152V71H13.5914V59.16H15.0474V63.48C15.3354 63.032 15.73 62.6853 16.2314 62.44C16.7434 62.1947 17.314 62.072 17.9434 62.072ZM31.8258 66.28C31.8258 66.5573 31.8098 66.8507 31.7778 67.16H24.7698C24.8231 68.024 25.1164 68.7013 25.6498 69.192C26.1938 69.672 26.8498 69.912 27.6178 69.912C28.2471 69.912 28.7698 69.768 29.1858 69.48C29.6124 69.1813 29.9111 68.7867 30.0818 68.296H31.6498C31.4151 69.1387 30.9458 69.8267 30.2418 70.36C29.5378 70.8827 28.6631 71.144 27.6178 71.144C26.7858 71.144 26.0391 70.9573 25.3778 70.584C24.7271 70.2107 24.2151 69.6827 23.8418 69C23.4684 68.3067 23.2818 67.5067 23.2818 66.6C23.2818 65.6933 23.4631 64.8987 23.8258 64.216C24.1884 63.5333 24.6951 63.0107 25.3458 62.648C26.0071 62.2747 26.7644 62.088 27.6178 62.088C28.4498 62.088 29.1858 62.2693 29.8258 62.632C30.4658 62.9947 30.9564 63.496 31.2978 64.136C31.6498 64.7653 31.8258 65.48 31.8258 66.28ZM30.3218 65.976C30.3218 65.4213 30.1991 64.9467 29.9538 64.552C29.7084 64.1467 29.3724 63.8427 28.9458 63.64C28.5298 63.4267 28.0658 63.32 27.5538 63.32C26.8178 63.32 26.1884 63.5547 25.6658 64.024C25.1538 64.4933 24.8604 65.144 24.7858 65.976H30.3218ZM33.2036 66.6C33.2036 65.6933 33.385 64.904 33.7476 64.232C34.1103 63.5493 34.6116 63.0213 35.2516 62.648C35.9023 62.2747 36.6436 62.088 37.4756 62.088C38.553 62.088 39.4383 62.3493 40.1316 62.872C40.8356 63.3947 41.2996 64.12 41.5236 65.048H39.9556C39.8063 64.5147 39.513 64.0933 39.0756 63.784C38.649 63.4747 38.1156 63.32 37.4756 63.32C36.6436 63.32 35.9716 63.608 35.4596 64.184C34.9476 64.7493 34.6916 65.5547 34.6916 66.6C34.6916 67.656 34.9476 68.472 35.4596 69.048C35.9716 69.624 36.6436 69.912 37.4756 69.912C38.1156 69.912 38.649 69.7627 39.0756 69.464C39.5023 69.1653 39.7956 68.7387 39.9556 68.184H41.5236C41.289 69.08 40.8196 69.8 40.1156 70.344C39.4116 70.8773 38.5316 71.144 37.4756 71.144C36.6436 71.144 35.9023 70.9573 35.2516 70.584C34.6116 70.2107 34.1103 69.6827 33.7476 69C33.385 68.3173 33.2036 67.5173 33.2036 66.6ZM48.3624 71L44.9224 67.128V71H43.4664V59.16H44.9224V66.12L48.2984 62.232H50.3304L46.2024 66.6L50.3464 71H48.3624ZM55.5248 71.144C54.7034 71.144 53.9568 70.9573 53.2848 70.584C52.6234 70.2107 52.1008 69.6827 51.7168 69C51.3434 68.3067 51.1568 67.5067 51.1568 66.6C51.1568 65.704 51.3488 64.9147 51.7328 64.232C52.1274 63.5387 52.6608 63.0107 53.3328 62.648C54.0048 62.2747 54.7568 62.088 55.5888 62.088C56.4208 62.088 57.1728 62.2747 57.8448 62.648C58.5168 63.0107 59.0448 63.5333 59.4288 64.216C59.8234 64.8987 60.0208 65.6933 60.0208 66.6C60.0208 67.5067 59.8181 68.3067 59.4128 69C59.0181 69.6827 58.4794 70.2107 57.7968 70.584C57.1141 70.9573 56.3568 71.144 55.5248 71.144ZM55.5248 69.864C56.0474 69.864 56.5381 69.7413 56.9968 69.496C57.4554 69.2507 57.8234 68.8827 58.1008 68.392C58.3888 67.9013 58.5328 67.304 58.5328 66.6C58.5328 65.896 58.3941 65.2987 58.1168 64.808C57.8394 64.3173 57.4768 63.9547 57.0288 63.72C56.5808 63.4747 56.0954 63.352 55.5728 63.352C55.0394 63.352 54.5488 63.4747 54.1008 63.72C53.6634 63.9547 53.3114 64.3173 53.0448 64.808C52.7781 65.2987 52.6448 65.896 52.6448 66.6C52.6448 67.3147 52.7728 67.9173 53.0288 68.408C53.2954 68.8987 53.6474 69.2667 54.0848 69.512C54.5221 69.7467 55.0021 69.864 55.5248 69.864ZM69.7111 62.232V71H68.2551V69.704C67.9778 70.152 67.5885 70.504 67.0871 70.76C66.5965 71.0053 66.0525 71.128 65.4551 71.128C64.7725 71.128 64.1591 70.9893 63.6151 70.712C63.0711 70.424 62.6391 69.9973 62.3191 69.432C62.0098 68.8667 61.8551 68.1787 61.8551 67.368V62.232H63.2951V67.176C63.2951 68.04 63.5138 68.7067 63.9511 69.176C64.3885 69.6347 64.9858 69.864 65.7431 69.864C66.5218 69.864 67.1351 69.624 67.5831 69.144C68.0311 68.664 68.2551 67.9653 68.2551 67.048V62.232H69.7111ZM73.9455 63.432V68.6C73.9455 69.0267 74.0362 69.3307 74.2175 69.512C74.3988 69.6827 74.7135 69.768 75.1615 69.768H76.2335V71H74.9215C74.1108 71 73.5028 70.8133 73.0975 70.44C72.6922 70.0667 72.4895 69.4533 72.4895 68.6V63.432H71.3535V62.232H72.4895V60.024H73.9455V62.232H76.2335V63.432H73.9455Z" fill="#647F95"/>
</svg>
