<svg width="81" height="11" viewBox="0 0 81 11" fill="none" xmlns="http://www.w3.org/2000/svg">
<path d="M3.368 6.408C1.97067 6.408 1.272 5.69867 1.272 4.28L1.272 2.184C1.272 1.75733 1.34133 1.41067 1.48 1.144C1.61867 0.877333 1.80533 0.669333 2.04 0.52C2.28533 0.36 2.57333 0.253333 2.904 0.2C3.24533 0.146667 3.608 0.12 3.992 0.12L10.376 0.12C10.7813 0.12 11.1493 0.152 11.48 0.216C11.8107 0.269333 12.088 0.375999 12.312 0.535999C12.5467 0.695999 12.728 0.925333 12.856 1.224C12.984 1.512 13.048 1.89067 13.048 2.36C13.048 2.41333 13.0427 2.46667 13.032 2.52C13.032 2.57333 13.032 2.616 13.032 2.648V2.76L10.936 3.144V1.976L3.544 1.976L3.544 4.456L10.92 4.456C11.656 4.456 12.2107 4.60533 12.584 4.904C12.968 5.20267 13.16 5.74133 13.16 6.52V8.888C13.16 9.34667 13.0853 9.71467 12.936 9.992C12.7973 10.2693 12.5947 10.4827 12.328 10.632C12.072 10.7813 11.7573 10.8827 11.384 10.936C11.0213 10.9787 10.616 11 10.168 11L2.968 11C2.22133 11 1.67733 10.8027 1.336 10.408C1.00533 10.0133 0.84 9.43733 0.84 8.68C0.84 8.62667 0.84 8.56267 0.84 8.488C0.850667 8.41333 0.861333 8.344 0.872 8.28C0.882667 8.20533 0.893333 8.13067 0.904 8.056L2.92 7.72L2.92 9.08L10.888 9.08V6.408L3.368 6.408ZM22.7519 0.12H25.1199L30.0639 6.52L35.0079 0.12H37.4559L37.4559 11H34.9439L34.9439 3.448L30.1279 9.688H29.6479L24.9919 3.576V11H22.7519V0.12ZM46.9394 0.12L58.2194 0.12V1.976L49.4514 1.976V4.456L54.5874 4.456V6.408L49.4514 6.408L49.4514 9.032L58.2994 9.032V11L46.9394 11L46.9394 0.12ZM80.508 8.856C80.508 9.336 80.4333 9.72 80.284 10.008C80.1347 10.296 79.932 10.5147 79.676 10.664C79.42 10.8027 79.1213 10.8933 78.78 10.936C78.4387 10.9787 78.076 11 77.692 11L69.692 11C69.2333 11 68.8547 10.936 68.556 10.808C68.268 10.68 68.0387 10.504 67.868 10.28C67.6973 10.056 67.58 9.79467 67.516 9.496C67.452 9.19733 67.42 8.88267 67.42 8.552V2.36C67.42 1.92267 67.4733 1.56 67.58 1.272C67.6973 0.983999 67.868 0.754666 68.092 0.584C68.3267 0.413333 68.6147 0.295999 68.956 0.231999C69.2973 0.157333 69.692 0.12 70.14 0.12L78.06 0.12C78.5187 0.12 78.8973 0.162666 79.196 0.247999C79.5053 0.333333 79.7507 0.455999 79.932 0.615999C80.124 0.765333 80.2573 0.946666 80.332 1.16C80.4067 1.37333 80.444 1.60267 80.444 1.848V2.888L78.044 3.288V1.976L69.932 1.976V9.08L78.044 9.08V6.616L73.772 6.616V4.76L80.508 4.76V8.856Z" fill="white"/>
</svg>
